<?xml version="1.0" standalone="no"?>
<!DOCTYPE svg PUBLIC "-//W3C//DTD SVG 20010904//EN"
 "http://www.w3.org/TR/2001/REC-SVG-20010904/DTD/svg10.dtd">
<svg version="1.0" xmlns="http://www.w3.org/2000/svg"
 width="771.000000pt" height="771.000000pt" viewBox="0 0 771.000000 771.000000"
 preserveAspectRatio="xMidYMid meet">
<metadata>
Created by potrace 1.14, written by Peter Selinger 2001-2017
</metadata>
<g transform="translate(0.000000,771.000000) scale(0.100000,-0.100000)"
fill="#000000" stroke="none">
<path d="M4829 7504 c-6 -8 -24 -14 -40 -14 -15 0 -30 -4 -33 -9 -6 -10 -111
6 -144 21 -19 10 -26 8 -42 -10 -15 -16 -27 -20 -50 -15 -19 3 -38 0 -52 -9
-22 -15 -75 -28 -111 -29 -9 0 -29 -7 -45 -15 -15 -7 -35 -14 -45 -14 -11 0
-30 -9 -44 -20 -17 -13 -35 -18 -54 -15 -15 3 -40 0 -56 -6 -44 -17 -85 -19
-118 -8 -24 9 -38 8 -69 -5 -21 -9 -47 -16 -57 -16 -11 0 -45 -9 -76 -20 -64
-22 -83 -25 -83 -10 0 6 7 10 16 10 8 0 13 4 10 9 -5 7 -69 -2 -181 -27 -22
-5 -54 -16 -71 -25 -17 -9 -44 -18 -60 -21 -16 -3 -30 -10 -32 -16 -2 -5 -18
-10 -35 -10 -31 0 -66 -11 -317 -101 -290 -103 -471 -171 -695 -261 -27 -11
-65 -24 -84 -30 -53 -15 -363 -159 -357 -165 5 -5 235 82 321 121 28 13 82 34
120 46 39 13 141 52 229 87 87 34 164 63 171 63 7 0 44 13 81 29 139 59 798
273 809 263 2 -3 -120 -46 -273 -97 -152 -51 -293 -102 -312 -114 -19 -11 -44
-21 -56 -21 -11 0 -24 -4 -30 -8 -5 -5 -36 -17 -69 -27 -33 -9 -65 -24 -72
-32 -7 -9 -19 -13 -28 -9 -10 3 -29 -3 -44 -14 -16 -10 -49 -24 -75 -30 -26
-6 -66 -20 -88 -33 -22 -12 -49 -26 -59 -32 -11 -5 -19 -14 -19 -19 0 -14 60
2 130 35 36 17 83 34 105 39 45 9 155 48 170 61 11 8 65 26 145 49 25 7 73 21
108 32 35 11 65 18 68 15 6 -6 -101 -45 -236 -86 -58 -18 -125 -42 -149 -54
-25 -12 -49 -22 -55 -22 -6 -1 -18 -4 -26 -8 -19 -8 -224 -82 -305 -109 -33
-11 -72 -27 -87 -34 -14 -8 -33 -14 -42 -14 -9 0 -24 -4 -34 -9 -39 -21 -132
-53 -143 -49 -7 2 12 14 42 27 150 62 177 75 173 82 -2 4 -34 -6 -72 -21 -37
-16 -94 -37 -127 -46 -33 -9 -64 -21 -69 -26 -6 -4 -18 -8 -28 -8 -10 0 -18
-7 -18 -16 0 -16 8 -16 67 1 10 3 -5 -5 -34 -19 -28 -13 -62 -27 -75 -30 -12
-3 -17 -3 -10 0 6 3 10 9 7 14 -7 12 -87 0 -106 -16 -8 -8 -23 -14 -32 -14 -9
0 -18 -4 -21 -9 -3 -4 -19 -11 -36 -14 -34 -7 -41 -27 -8 -27 18 0 100 33 150
60 10 6 19 6 23 1 3 -5 -14 -16 -37 -24 -57 -21 -145 -59 -186 -81 -25 -13
-31 -20 -23 -30 8 -10 2 -16 -28 -26 -48 -16 -78 -8 -39 10 15 7 25 17 22 21
-2 5 13 17 36 29 22 11 40 27 40 35 0 20 1 20 -65 -15 -31 -16 -70 -30 -86
-30 -34 0 -69 -15 -131 -56 l-47 -32 35 -6 c18 -4 34 -11 34 -16 0 -13 -27
-13 -51 1 -16 8 -25 7 -40 -7 -17 -16 -19 -16 -19 -1 0 19 -25 23 -36 6 -4 -8
-9 -7 -14 2 -7 10 -11 10 -24 0 -8 -7 -20 -10 -26 -6 -5 3 -10 1 -10 -4 0 -6
6 -11 13 -11 8 0 7 -3 -3 -10 -8 -5 -24 -7 -36 -4 -13 3 -23 0 -27 -9 -3 -9
-29 -16 -76 -21 -58 -5 -80 -2 -126 15 -85 31 -175 29 -250 -6 -73 -35 -165
-118 -158 -143 2 -10 -5 -26 -16 -36 -31 -28 -25 -39 19 -34 22 2 40 2 40 1 0
-9 -65 -33 -90 -33 -21 0 -41 -10 -63 -32 -18 -18 -45 -38 -59 -45 -15 -6 -32
-24 -40 -40 -7 -15 -26 -34 -41 -41 -16 -8 -26 -16 -24 -19 8 -7 48 16 79 44
30 29 54 24 38 -8 -6 -10 -17 -19 -25 -19 -8 0 -19 -9 -25 -20 -7 -12 -21 -20
-38 -20 -25 -1 -26 -1 -7 -12 26 -15 35 -28 35 -55 0 -13 9 -28 19 -35 14 -9
17 -16 10 -24 -7 -9 -1 -14 22 -19 44 -10 66 -36 65 -75 -1 -30 3 -34 42 -47
34 -12 42 -19 37 -33 -4 -13 2 -24 22 -37 15 -10 33 -23 38 -30 6 -7 30 -23
55 -36 25 -13 65 -35 90 -49 56 -30 119 -48 187 -51 59 -4 65 -7 69 -42 2 -18
-2 -25 -14 -25 -10 0 -13 -3 -7 -8 21 -15 12 -51 -17 -63 -39 -16 -35 -35 7
-36 25 -1 39 5 50 20 8 11 16 19 17 16 22 -34 24 -45 14 -71 -6 -17 -16 -26
-24 -23 -7 2 -10 1 -7 -4 3 -5 -4 -13 -15 -16 -12 -4 -20 -14 -18 -22 2 -13
18 -16 88 -14 98 3 100 -11 4 -35 -32 -9 -67 -22 -78 -30 -11 -8 -33 -14 -48
-14 -15 0 -63 -16 -107 -35 -43 -19 -86 -35 -95 -35 -8 0 -21 -10 -27 -22 -7
-13 -31 -44 -53 -69 -45 -50 -76 -124 -76 -181 0 -20 -4 -40 -10 -43 -19 -12
-11 -35 12 -32 26 3 41 -41 33 -91 -5 -26 0 -43 24 -80 16 -26 33 -60 37 -77
6 -29 48 -74 69 -75 25 0 105 -46 101 -57 -11 -28 34 -34 181 -27 141 7 145 6
135 -12 -10 -18 -30 -406 -24 -449 7 -47 9 -143 5 -183 -5 -41 -7 -43 -32 -37
-14 4 -44 8 -66 10 -60 4 -118 16 -132 27 -7 6 -18 8 -25 6 -7 -3 5 -16 29
-31 51 -32 61 -47 39 -59 -12 -7 -14 -13 -6 -29 13 -24 13 -24 -45 2 -54 24
-67 22 -250 -26 -49 -13 -123 -29 -163 -34 -40 -6 -87 -19 -105 -29 -76 -41
-155 -104 -192 -152 -48 -63 -75 -90 -89 -90 -6 0 -16 -11 -23 -25 -10 -22 -9
-25 9 -25 15 0 18 -5 13 -20 -5 -16 -2 -20 19 -20 14 0 26 -4 26 -10 0 -6 -28
-10 -63 -10 -39 0 -71 -5 -83 -14 -10 -8 -17 -16 -14 -18 3 -2 14 -8 25 -14
11 -7 19 -19 17 -28 -2 -10 4 -16 14 -16 25 0 84 -68 81 -93 -2 -17 4 -23 26
-25 35 -4 45 -28 21 -48 -18 -15 -18 -15 6 -9 43 11 55 10 52 -2 -1 -7 6 -13
17 -13 10 0 31 -10 47 -22 20 -17 26 -18 22 -6 -6 15 8 38 24 38 16 0 8 -49
-9 -59 -17 -10 -17 -10 0 -11 10 0 36 -14 57 -31 35 -28 42 -30 87 -24 66 10
283 6 302 -5 15 -9 -118 -16 -196 -11 -23 2 -33 -2 -33 -12 0 -18 21 -27 61
-27 33 0 115 -34 121 -50 1 -5 26 -13 53 -16 28 -4 57 -13 66 -20 11 -10 24
-11 48 -4 33 9 61 4 61 -11 0 -5 -10 -9 -22 -9 -22 -1 -22 -1 -4 -15 25 -19
14 -30 -14 -15 -20 11 -26 8 -51 -20 -20 -22 -35 -30 -47 -25 -13 5 -14 8 -3
15 22 13 -12 60 -39 53 -14 -4 -22 1 -29 18 -9 22 -10 22 -11 4 -1 -11 -1 -32
0 -48 2 -32 -23 -46 -51 -29 -12 8 -20 8 -24 2 -4 -6 -9 -9 -13 -6 -4 2 -16 0
-27 -4 -18 -6 -17 -8 11 -23 19 -10 35 -12 44 -7 10 6 23 1 42 -17 23 -21 28
-23 28 -10 0 9 7 17 15 17 17 0 20 -31 4 -47 -7 -7 -29 -7 -75 2 -51 9 -68 9
-82 -1 -12 -8 -23 -9 -33 -3 -20 12 -26 11 -32 -5 -4 -10 -1 -13 9 -9 8 3 29
-2 48 -11 25 -12 41 -14 60 -7 28 11 80 -9 90 -34 7 -20 -12 -29 -30 -14 -21
17 -27 5 -20 -36 7 -34 9 -36 36 -30 25 6 28 4 23 -14 -4 -15 -1 -21 11 -21
10 0 14 4 11 10 -11 17 6 11 29 -11 14 -13 37 -22 62 -23 65 -3 198 -76 138
-76 -8 0 -13 4 -10 9 8 12 -18 21 -63 21 -20 0 -41 4 -46 8 -12 10 -145 35
-152 28 -2 -2 1 -12 7 -23 13 -20 -1 -73 -19 -73 -17 0 -22 19 -11 41 6 11 9
27 6 35 -8 21 -46 0 -46 -26 0 -22 -22 -30 -70 -24 -85 10 -109 11 -104 3 3
-5 18 -9 34 -9 16 0 32 -5 35 -11 4 -5 12 -8 18 -6 7 2 24 -5 40 -15 15 -11
40 -21 55 -22 15 -1 36 -8 47 -15 19 -11 18 -12 -6 -7 -31 7 -53 -13 -43 -37
5 -13 56 -47 71 -47 1 0 3 11 3 24 0 14 5 28 11 32 8 4 7 9 -2 15 -9 6 3 7 30
3 32 -5 42 -4 37 4 -5 8 0 12 13 12 12 0 21 -7 21 -15 0 -8 5 -15 10 -15 6 0
10 7 10 16 0 23 24 11 28 -14 3 -18 8 -20 38 -15 28 5 34 2 34 -12 0 -12 6
-16 20 -12 11 3 27 -1 34 -9 8 -8 22 -14 31 -14 9 0 29 -7 46 -15 26 -14 30
-14 35 0 8 20 -22 65 -43 65 -20 0 -78 18 -118 36 -16 8 -55 17 -85 22 -53 7
-55 8 -58 40 -2 18 1 32 7 32 6 0 11 -4 11 -9 0 -5 16 -12 35 -15 20 -4 33
-11 30 -17 -4 -5 -2 -9 4 -9 5 0 12 4 15 9 3 5 26 5 53 0 46 -9 82 -38 83 -66
0 -17 30 -4 30 13 0 16 33 18 60 4 15 -8 21 -6 31 12 10 18 8 24 -7 35 -24 17
-35 17 -28 -2 10 -25 -11 -17 -34 14 l-21 29 27 7 c17 4 30 2 37 -7 11 -14 85
-20 85 -6 0 5 11 1 25 -8 24 -16 27 -16 39 1 13 18 14 17 28 -9 l14 -27 19 21
c24 27 35 25 35 -5 0 -19 5 -25 21 -25 13 0 19 5 16 13 -3 9 5 12 32 9 l36 -3
-24 21 c-28 24 -37 80 -14 80 10 0 14 -7 10 -20 -6 -23 11 -28 19 -5 5 13 9
13 34 0 38 -20 90 -20 90 0 0 8 -12 17 -27 21 -16 3 -44 14 -64 25 -20 10 -46
19 -58 19 -12 0 -21 6 -20 13 4 33 -1 38 -35 32 -20 -4 -36 -2 -40 4 -7 11 16
15 62 11 14 -1 22 4 22 14 0 9 7 16 16 16 12 0 15 -6 10 -24 -3 -14 0 -28 8
-35 11 -9 15 -5 20 24 8 39 26 38 26 -1 0 -29 11 -31 28 -4 7 12 16 19 20 16
5 -3 14 -1 21 4 11 6 9 12 -8 26 -31 27 -26 33 17 19 36 -13 37 -15 35 -59 -1
-26 2 -44 7 -41 4 3 11 -2 14 -11 3 -8 11 -12 17 -9 6 4 8 13 5 21 -9 22 4 16
34 -16 15 -16 32 -30 38 -30 25 0 19 -30 -8 -43 -27 -14 -29 -13 -34 8 -6 23
-41 43 -53 31 -11 -11 -13 -66 -3 -66 6 0 19 -9 31 -21 15 -15 24 -18 34 -9
17 14 54 4 90 -24 l29 -23 -39 -19 c-28 -13 -40 -15 -43 -6 -6 20 -61 14 -86
-11 -12 -13 -37 -24 -56 -25 -19 -1 -40 -8 -47 -14 -11 -8 -20 -6 -42 9 -20
16 -32 18 -45 11 -14 -8 -25 -5 -47 11 -30 22 -54 27 -63 12 -3 -5 1 -14 10
-21 8 -7 13 -19 10 -26 -3 -8 5 -14 22 -17 l27 -4 -26 -2 c-15 0 -32 -8 -39
-16 -7 -8 -23 -15 -36 -15 -13 0 -28 -9 -34 -19 -14 -27 -61 -31 -81 -7 -13
16 -19 17 -38 7 -12 -7 -29 -10 -38 -7 -8 3 -20 3 -26 -1 -22 -14 -77 -13 -77
1 0 8 -22 16 -58 22 -31 5 -56 14 -56 19 2 13 -34 37 -48 33 -6 -2 -12 -16
-13 -32 -1 -24 2 -27 30 -24 21 2 30 -1 30 -12 0 -9 -8 -14 -20 -13 -31 3 -96
-19 -92 -31 2 -6 14 -13 27 -16 l24 -6 -24 -17 c-13 -9 -36 -17 -50 -18 l-25
-1 25 -7 c22 -6 17 -9 -35 -23 -85 -23 -157 -38 -175 -36 -42 4 -84 -3 -71
-11 9 -6 -9 -14 -57 -25 -83 -19 -104 -20 -82 -6 19 12 12 12 -70 0 -54 -8
-67 -7 -82 7 -21 19 -96 14 -173 -12 -59 -20 -85 -41 -85 -67 0 -10 -7 -30
-16 -43 -27 -41 -14 -50 62 -48 69 2 266 28 294 40 8 3 51 12 95 20 44 8 101
18 128 23 26 5 62 13 80 19 77 24 160 37 195 31 l37 -7 -40 -11 c-22 -6 -59
-14 -82 -18 -24 -4 -41 -9 -39 -13 2 -3 -12 -7 -32 -8 -20 -1 -38 -6 -40 -11
-1 -5 -16 -6 -33 -4 -17 2 -40 0 -52 -6 -70 -33 -120 -45 -207 -49 -52 -2
-117 -9 -145 -16 -50 -13 -49 -13 60 -15 95 -1 227 14 275 32 8 3 42 10 75 15
33 6 74 13 90 17 26 6 28 5 17 -8 -7 -9 -33 -19 -59 -23 -25 -4 -55 -11 -67
-16 -34 -15 102 -1 170 17 60 17 114 28 194 40 25 4 50 14 56 22 7 10 22 13
44 10 19 -3 52 -1 74 4 44 10 157 0 135 -12 -8 -4 -50 -16 -94 -26 -45 -10
-94 -29 -113 -42 -26 -20 -35 -22 -47 -12 -13 10 -15 9 -15 -9 0 -17 -4 -20
-27 -15 -16 3 -41 -1 -58 -10 -16 -9 -41 -16 -55 -16 -14 0 -34 -8 -45 -16
-19 -15 -15 -16 54 -11 73 4 74 4 51 -13 l-24 -18 34 2 c30 1 58 26 30 26 -6
0 -8 5 -5 10 12 20 36 11 33 -12 -2 -17 1 -22 12 -19 8 3 35 6 59 7 24 2 49 8
54 13 17 17 27 13 27 -9 0 -16 -7 -20 -38 -20 -21 0 -47 -7 -58 -15 -24 -18
-11 -18 71 -1 61 13 85 8 85 -19 0 -10 12 -10 57 1 33 8 61 10 66 5 12 -12
-27 -32 -67 -36 -54 -5 -190 -36 -221 -51 -40 -18 -19 -17 110 5 61 11 171 29
245 41 74 12 157 28 184 36 27 8 68 14 91 14 38 0 139 15 175 27 13 4 13 6 -2
14 -10 6 -47 3 -103 -6 -47 -9 -91 -13 -96 -9 -5 3 -15 1 -22 -4 -7 -5 -27
-12 -44 -15 -25 -5 -33 -3 -33 8 0 8 9 15 19 15 12 0 24 13 34 38 15 35 22 30
17 -11 -1 -14 3 -17 17 -14 32 10 205 36 308 47 55 6 111 13 124 16 20 4 22 3
13 -9 -10 -11 -9 -17 3 -27 12 -10 15 -9 15 6 0 11 7 28 15 38 15 19 15 19 15
-2 0 -14 6 -22 16 -22 14 0 14 -3 4 -15 -11 -13 -2 -15 71 -16 l84 -2 -65 -9
c-182 -25 -241 -48 -126 -48 38 0 66 -4 66 -10 0 -6 -11 -8 -25 -4 -24 6 -55
-9 -55 -26 0 -10 267 -4 415 10 219 20 270 23 263 15 -6 -6 -230 -31 -433 -49
-210 -17 -225 -18 -225 -8 0 15 -110 2 -137 -16 -27 -17 -73 -9 -73 13 0 8 5
15 10 15 18 0 11 20 -7 21 -11 0 -13 3 -5 6 6 2 12 11 12 18 0 21 -37 6 -44
-18 -6 -21 -7 -21 -20 -4 -19 24 -113 19 -186 -11 -8 -3 -19 -6 -25 -7 -5 -1
-28 -5 -50 -10 -22 -5 -51 -9 -65 -10 -69 -4 -75 -6 -93 -36 -17 -31 -15 -49
5 -49 6 0 8 9 5 20 -5 20 12 23 162 22 25 -1 35 4 38 19 6 23 33 26 33 3 0
-11 6 -14 20 -9 14 4 20 2 20 -8 0 -9 -16 -18 -42 -23 -23 -5 -43 -14 -45 -20
-4 -12 113 -7 139 7 9 5 39 9 67 9 27 0 62 5 76 10 15 6 61 13 103 15 43 3 88
8 102 12 28 7 38 8 255 18 82 4 153 9 157 12 5 2 8 -1 8 -6 0 -6 -15 -11 -34
-11 -45 0 -66 -9 -66 -27 0 -13 13 -15 88 -9 142 11 185 7 152 -14 -10 -7 14
-10 72 -10 90 0 118 -5 118 -22 0 -6 -13 -7 -32 -3 -26 6 -30 5 -25 -10 6 -14
3 -16 -26 -9 -40 10 -163 7 -242 -6 -33 -6 -89 -12 -125 -15 -36 -3 -128 -12
-205 -20 -77 -8 -180 -17 -230 -21 -183 -13 -368 -42 -377 -58 -7 -12 -14 -14
-27 -7 -20 11 -77 8 -236 -14 -60 -8 -148 -19 -195 -25 -114 -15 -240 -43
-240 -53 0 -9 34 -5 78 8 16 5 22 3 22 -8 0 -8 -6 -19 -12 -24 -24 -18 -137
-43 -192 -43 -30 0 -57 -4 -60 -9 -3 -5 10 -8 29 -7 22 1 34 -3 31 -10 -5 -13
65 1 104 22 17 8 57 12 114 11 48 -1 90 1 92 4 2 4 31 9 65 13 34 4 69 11 78
17 18 10 351 59 405 59 50 0 45 -17 -6 -24 -148 -19 -195 -26 -303 -44 -66
-11 -229 -37 -362 -59 -134 -21 -243 -40 -243 -43 0 -3 18 -4 40 -2 48 5 52
-4 8 -17 -28 -8 -20 -10 45 -9 92 1 110 -7 35 -16 -112 -14 -128 -18 -128 -31
0 -8 -7 -18 -16 -23 -24 -14 148 -24 269 -16 56 3 128 13 161 21 32 8 64 12
72 9 7 -3 18 2 25 10 7 9 26 14 43 13 17 -1 39 2 48 6 9 4 22 4 28 0 6 -4 19
0 29 9 21 19 103 36 175 36 28 0 71 8 96 16 25 9 84 18 132 20 48 2 99 6 113
10 15 4 38 1 51 -5 21 -9 30 -8 51 9 28 22 73 26 105 9 16 -9 26 -7 49 10 34
25 37 26 60 5 16 -15 20 -15 41 0 12 9 33 16 45 16 15 0 21 5 17 14 -9 24 16
29 36 6 18 -21 24 -22 115 -15 52 4 95 10 95 13 0 2 -8 11 -17 18 -28 20 -8
27 26 9 30 -15 31 -15 31 5 0 18 3 19 20 10 11 -6 19 -17 18 -25 -3 -15 -3
-15 42 -15 23 0 30 5 30 19 0 10 7 22 16 25 29 11 95 6 124 -9 18 -9 40 -13
55 -9 16 4 25 2 25 -5 0 -8 7 -7 23 3 24 15 67 6 67 -15 0 -7 7 -5 19 5 16 15
38 18 138 17 65 -1 147 -4 183 -6 36 -3 59 -2 52 1 -10 5 -9 10 4 25 22 25 46
24 70 -2 l19 -21 5 23 c4 14 14 23 28 24 12 1 25 4 28 8 4 3 18 0 33 -6 33
-17 217 -23 234 -8 9 7 21 6 41 -4 36 -19 46 -19 46 0 0 8 -6 15 -12 15 -9 0
-8 3 2 10 12 7 12 12 -4 29 -11 12 -14 21 -8 21 6 0 14 -5 17 -10 4 -6 15 -8
25 -5 26 8 80 -21 80 -43 0 -21 -19 -42 -37 -42 -8 0 -13 12 -13 29 0 38 -26
48 -35 14 -8 -33 -3 -37 68 -61 41 -14 57 -15 57 -7 0 7 -6 18 -14 24 -8 7
-12 21 -9 31 6 24 45 27 63 5 7 -9 15 -14 17 -11 8 8 121 -33 158 -58 29 -20
41 -23 51 -15 15 13 78 -20 128 -66 19 -17 34 -24 45 -19 9 4 23 6 31 5 23 -4
84 -34 93 -45 5 -7 11 -5 18 7 12 21 29 22 29 2 0 -13 19 -20 44 -16 5 1 16
-5 25 -12 9 -8 26 -18 39 -21 12 -4 22 -12 22 -17 0 -11 -17 -12 -22 -1 -1 4
-22 15 -45 24 -34 13 -49 14 -73 5 -16 -6 -30 -14 -30 -17 0 -7 51 -29 95 -41
43 -12 46 -29 5 -29 -16 0 -30 -4 -30 -10 0 -12 65 -40 94 -40 12 0 26 -4 31
-9 6 -5 27 -14 48 -21 25 -8 41 -20 48 -37 5 -14 8 -27 6 -29 -2 -2 -21 6 -42
17 -36 20 -58 21 -98 4 -14 -6 -16 -4 -10 11 5 14 3 16 -13 9 -30 -13 -107
-15 -132 -2 -29 14 -49 -9 -28 -33 7 -8 11 -21 9 -27 -3 -8 3 -13 14 -13 10 0
29 -7 41 -16 21 -15 24 -14 41 7 l18 23 7 -22 c4 -12 15 -22 24 -22 9 0 35 -7
57 -14 45 -16 62 -12 43 11 -11 14 -10 15 7 10 11 -3 31 -8 45 -12 l25 -6 -24
21 c-13 11 -22 22 -20 25 2 2 29 -5 59 -15 30 -10 89 -20 130 -21 l75 -2 0 48
c0 37 -4 49 -17 53 -20 5 -22 11 -9 30 7 11 17 11 60 -2 28 -8 57 -19 64 -23
6 -4 21 -9 32 -10 11 0 31 -4 45 -8 24 -6 24 -6 6 9 -11 9 -26 16 -34 16 -12
0 -12 3 -1 16 11 14 11 18 -4 29 -9 7 -17 17 -17 23 0 5 -7 12 -15 16 -9 3
-15 0 -15 -9 0 -22 -28 -18 -35 5 -4 13 -15 20 -31 20 -28 0 -30 6 -10 26 19
18 36 18 36 -1 0 -8 5 -15 10 -15 6 0 10 5 10 10 0 6 9 10 20 10 11 0 20 4 20
10 0 16 -38 31 -64 24 -33 -8 -45 1 -39 27 5 17 11 20 35 15 36 -7 87 -45 88
-66 0 -9 6 -6 15 10 28 48 23 52 -90 75 -159 33 -281 72 -235 76 8 1 21 1 29
0 7 -2 10 2 7 7 -3 6 10 12 29 14 23 3 36 -1 40 -10 3 -10 20 -13 53 -12 63 3
82 1 81 -7 -4 -22 2 -25 14 -9 10 14 18 16 33 9 10 -5 34 -17 52 -26 39 -20
65 -22 60 -5 -4 12 -11 14 -95 37 -46 13 -58 31 -20 31 12 0 34 7 50 14 22 12
27 13 27 1 0 -9 11 -13 35 -12 19 1 35 4 35 7 0 3 -9 19 -20 35 -11 17 -20 37
-20 46 0 9 -9 19 -20 22 -23 6 -27 37 -5 37 8 0 15 5 15 10 0 6 9 10 20 10 25
0 26 -17 3 -23 -12 -3 -8 -5 9 -6 15 0 30 3 33 9 5 8 47 6 86 -3 4 -1 18 11
32 27 25 29 26 30 46 12 17 -16 23 -17 36 -6 9 7 13 21 10 31 -9 27 11 32 34
8 19 -21 19 -21 30 -1 7 13 25 21 61 25 75 9 115 26 134 57 14 24 24 28 83 34
38 4 75 11 83 17 19 14 -43 8 -265 -25 -93 -14 -171 -23 -174 -21 -10 11 11
16 110 30 57 7 144 21 193 29 49 9 92 16 96 16 5 0 6 10 3 21 -6 21 -3 22 41
17 49 -6 96 8 96 29 0 13 159 23 167 11 8 -14 21 -8 19 10 -1 12 8 18 29 20
17 2 35 7 40 11 6 4 35 6 65 5 65 -3 160 15 160 30 0 18 50 66 68 66 20 0 64
29 46 30 -6 0 -26 -5 -43 -11 -24 -9 -35 -9 -44 0 -9 9 -16 6 -28 -11 -15 -19
-20 -20 -33 -9 -9 8 -23 10 -33 5 -10 -4 -29 -9 -43 -10 -14 -2 -45 -6 -69
-10 -53 -8 -49 12 4 22 25 4 35 12 35 25 0 22 17 31 85 49 75 19 135 42 135
52 0 5 -9 4 -19 -2 -28 -15 -67 -12 -81 5 -10 12 -9 16 5 22 16 6 16 7 -4 15
-13 5 -31 4 -43 -3 -11 -6 -22 -8 -25 -5 -9 9 18 36 36 36 37 1 82 50 46 50
-27 0 -16 17 15 24 37 7 41 36 6 36 -14 0 -31 9 -39 21 -14 19 -19 20 -73 10
-76 -14 -82 -14 -80 6 1 12 -7 19 -22 21 -20 3 -23 0 -18 -15 5 -14 -1 -23
-19 -33 -14 -7 -28 -10 -32 -7 -3 4 1 7 10 7 9 0 17 5 17 11 0 5 -4 7 -10 4
-5 -3 -10 1 -10 10 0 9 5 13 10 10 6 -3 10 -2 10 4 0 6 19 16 41 23 37 11 43
10 55 -7 11 -15 14 -16 14 -4 0 18 32 35 85 45 35 6 45 29 12 29 -8 0 -19 4
-23 8 -4 4 5 7 19 7 15 0 27 5 27 11 0 5 -4 7 -10 4 -5 -3 -10 3 -10 14 0 12
-6 21 -14 21 -11 0 -13 9 -9 35 5 28 2 35 -11 35 -38 0 -2 19 59 30 36 7 62
16 59 21 -2 5 3 20 13 35 16 25 16 27 -3 41 -12 9 -29 12 -49 7 -16 -3 -46 -8
-65 -9 -19 -2 -48 -8 -64 -14 -16 -7 -42 -9 -57 -6 -16 4 -30 1 -34 -5 -4 -7
-19 -9 -35 -5 -16 3 -46 2 -66 -4 -43 -12 -55 -7 -33 13 8 8 74 20 159 30 189
22 200 24 193 42 -3 9 2 14 16 14 12 0 21 6 21 15 0 8 -5 15 -11 15 -12 0 -38
29 -39 43 0 5 5 5 12 1 6 -4 17 1 25 11 7 11 13 13 13 7 0 -15 66 -16 75 -2 5
8 11 8 20 0 9 -7 23 -6 48 5 20 8 48 15 62 15 14 0 25 4 25 10 0 5 3 9 8 7 4
-1 17 8 30 21 l22 22 -37 1 c-21 0 -58 2 -83 4 -32 3 -39 1 -25 -5 17 -7 15
-9 -12 -9 -17 -1 -44 -6 -60 -12 -15 -6 -57 -13 -93 -15 -223 -15 -275 -22
-273 -33 2 -6 -3 -8 -10 -5 -8 3 -32 1 -55 -4 -31 -7 -48 -6 -68 4 -23 13 -29
12 -44 -1 -23 -21 -33 -19 -25 5 5 17 2 20 -25 20 -17 0 -40 -5 -51 -10 -12
-7 -26 -7 -36 -2 -26 13 -43 4 -43 -24 0 -17 -7 -25 -26 -30 -14 -4 -29 -3
-33 2 -15 22 -52 34 -71 24 -24 -13 -30 -13 -30 1 0 18 32 38 63 39 30 0 37
17 10 27 -14 5 -13 8 6 15 12 4 20 12 17 17 -12 18 30 91 52 91 5 0 7 11 4 25
-3 17 0 25 9 25 16 0 39 44 39 74 0 10 3 17 6 13 13 -12 34 23 32 51 -3 39 19
65 49 59 13 -2 23 0 23 4 0 18 38 8 43 -11 3 -11 12 -20 21 -20 19 0 21 31 4
49 -8 8 0 7 20 -3 28 -15 38 -15 62 -4 l29 13 -32 30 c-18 16 -49 44 -69 62
-48 41 -43 68 15 78 75 14 88 14 94 -1 8 -21 23 -17 23 6 0 14 7 20 21 20 11
0 18 4 15 9 -4 5 7 12 23 16 32 7 106 -9 116 -25 12 -19 22 -10 18 14 -6 28
30 50 99 61 47 8 105 34 76 35 -9 0 -18 5 -20 12 -3 9 -20 8 -69 -1 -35 -7
-125 -19 -199 -27 -74 -8 -152 -17 -172 -20 -34 -6 -38 -4 -38 15 0 12 5 21
11 21 6 0 8 7 5 16 -4 9 0 24 8 33 8 9 14 21 13 26 -1 6 9 11 24 13 23 3 25 1
21 -33 -4 -30 -1 -35 16 -35 12 0 28 10 37 23 15 22 16 22 47 4 29 -17 32 -17
50 0 19 17 20 17 33 0 16 -22 21 -22 53 8 33 31 52 32 52 4 0 -15 4 -19 16
-15 9 3 18 6 20 6 2 0 4 6 4 14 0 7 6 19 14 25 8 7 12 21 9 31 -4 14 0 20 11
20 18 0 19 -2 7 -52 -7 -30 -6 -38 5 -38 8 0 14 8 14 19 0 22 25 45 39 37 5
-3 7 -15 4 -26 -3 -11 0 -20 6 -20 6 0 11 14 11 30 0 28 2 30 39 30 21 0 60 3
87 6 36 4 45 3 34 -5 -8 -6 -27 -11 -42 -11 -16 0 -28 -5 -28 -11 0 -7 14 -10
35 -7 30 3 35 1 35 -17 0 -12 -5 -26 -11 -32 -12 -12 31 -11 114 2 43 7 47 10
47 35 0 39 9 60 26 60 8 0 14 5 14 10 0 6 -4 10 -8 10 -16 0 -29 44 -25 77 7
46 -2 66 -24 55 -29 -15 -43 -4 -36 29 3 16 0 35 -6 43 -10 11 -8 17 6 26 14
9 -10 10 -102 6 -66 -3 -133 -8 -150 -11 -17 -3 -10 1 15 10 25 8 58 15 74 15
21 0 26 3 19 13 -26 32 -23 87 3 87 9 0 14 -12 14 -34 0 -22 6 -36 16 -40 18
-7 63 23 64 41 0 7 12 16 28 19 15 4 36 17 47 28 16 18 34 22 90 24 82 3 197
28 240 51 17 9 48 18 70 21 37 5 40 8 43 38 2 17 8 32 13 32 6 0 7 6 2 12 -4
7 -6 25 -4 40 3 37 -7 52 -25 37 -20 -17 -88 15 -103 48 -11 24 -15 25 -64 19
-29 -4 -94 -9 -144 -12 -86 -6 -93 -5 -93 13 0 15 -7 18 -37 16 -137 -9 -181
-8 -176 4 3 7 -2 13 -10 13 -8 0 -17 8 -19 18 -4 15 -12 18 -37 14 -17 -2 -31
-10 -31 -17 0 -7 -7 -16 -16 -19 -28 -11 -37 -7 -23 10 10 13 10 17 -2 25 -19
12 -39 11 -39 -1 0 -6 -27 -10 -60 -10 -39 0 -60 -4 -60 -12 0 -6 -7 -4 -18 5
-21 19 -48 22 -57 7 -4 -6 -11 -7 -17 -4 -6 4 -13 2 -17 -4 -4 -7 -15 -4 -31
8 -14 10 -22 21 -19 25 4 3 96 7 205 9 226 5 252 9 264 42 9 23 40 34 40 14 0
-6 8 -5 20 2 11 7 20 15 20 18 0 7 -242 1 -260 -6 -25 -10 -70 -12 -64 -3 3 5
-5 9 -17 9 -18 0 -19 -2 -9 -15 13 -15 9 -16 -120 -19 -14 -1 -30 -4 -36 -8
-6 -4 -27 -5 -47 -1 -35 5 -37 7 -38 47 -1 22 -3 67 -5 98 -3 49 0 58 16 63
11 4 25 3 30 0 6 -4 63 -9 128 -12 86 -4 119 -9 125 -19 11 -19 37 -18 37 1 0
8 9 15 20 15 11 0 20 -7 20 -15 0 -19 17 -19 27 -1 6 12 17 13 47 6 33 -7 44
-5 64 11 36 28 40 24 37 -28 -3 -49 -16 -63 -40 -43 -16 13 -35 6 -35 -13 0
-7 13 -20 29 -30 33 -19 45 -22 36 -7 -3 6 1 10 9 10 16 0 20 13 16 61 -1 27
31 52 38 30 7 -22 20 -10 26 24 11 55 34 53 27 -2 -1 -7 2 -13 8 -13 5 0 12
-8 14 -17 4 -17 5 -17 6 0 2 26 20 21 27 -8 3 -14 13 -25 23 -25 14 0 14 2 1
10 -12 7 -12 12 -2 22 6 6 12 35 12 63 0 61 15 82 41 59 26 -23 53 -14 57 20
5 38 -12 54 -35 34 -33 -28 -53 -30 -53 -4 0 20 -6 24 -46 30 -26 3 -64 6 -85
6 -28 0 -39 4 -39 15 0 13 20 15 121 15 92 0 120 3 117 13 -3 7 -30 15 -64 18
-32 3 -88 13 -124 22 -84 20 -210 32 -463 41 -70 3 -132 8 -137 11 -5 3 -7 12
-4 20 5 11 -7 15 -53 17 -51 3 -58 6 -61 26 -2 12 -8 22 -13 22 -5 0 -9 18 -9
40 0 22 -4 40 -9 40 -5 0 -11 12 -14 26 l-5 27 77 -8 c42 -4 117 -9 166 -11
194 -7 436 -32 569 -60 38 -8 78 -14 89 -14 11 0 26 -8 33 -17 8 -11 13 -13
14 -5 0 7 14 12 34 12 44 0 66 -9 66 -26 0 -8 5 -14 10 -14 6 0 10 6 10 13 0
8 3 7 10 -3 5 -8 12 -11 16 -8 3 4 19 1 35 -7 26 -14 29 -13 42 6 13 18 16 18
30 4 19 -19 27 -19 27 -2 0 8 -12 19 -27 26 -67 31 -187 71 -211 71 -15 0 -38
7 -50 16 -24 16 -42 12 -42 -12 0 -19 -90 -18 -145 1 -22 8 -48 15 -58 15 -11
0 -31 6 -45 14 -47 24 -154 41 -267 41 -60 0 -156 6 -213 13 -78 10 -107 10
-117 2 -18 -15 -54 -4 -77 23 -10 11 -18 22 -18 25 0 9 213 -7 254 -19 30 -8
49 -8 77 1 31 11 49 10 111 -4 40 -10 111 -26 158 -37 47 -11 106 -27 131 -36
45 -15 47 -15 68 4 l22 20 -22 6 c-13 4 -28 2 -35 -4 -8 -6 -19 -3 -35 10
l-24 20 24 9 c22 8 22 9 6 16 -11 4 -25 0 -35 -9 -26 -24 -43 -19 -36 11 5 18
3 24 -4 19 -17 -10 -89 25 -84 40 3 8 -8 15 -33 20 -21 3 -58 15 -82 26 -24
10 -65 19 -92 19 -41 0 -48 3 -51 22 -3 20 -4 20 -19 6 -14 -15 -19 -15 -43
-2 -27 13 -37 15 -105 14 -38 -1 -86 12 -143 38 -46 21 -49 33 -5 26 26 -4 29
-3 14 6 -9 6 -43 20 -73 30 -56 20 -99 54 -88 71 3 5 -2 12 -10 15 -9 3 -16
14 -16 24 0 11 -13 34 -30 52 -39 42 -38 50 8 43 39 -6 28 4 -31 25 -24 8 -26
12 -15 23 7 8 20 16 28 19 12 5 11 7 -5 14 -11 4 -35 17 -53 27 -25 15 -30 22
-20 28 21 14 54 10 69 -7 11 -13 28 -15 116 -9 67 5 103 4 103 -3 0 -18 66
-23 107 -8 21 8 66 22 101 32 34 9 65 21 68 25 3 5 14 9 26 9 14 0 18 5 14 15
-4 12 -2 13 16 2 16 -9 22 -9 25 0 2 7 10 10 18 7 7 -3 16 -1 20 5 3 7 -2 11
-14 11 -51 0 15 49 88 65 20 4 35 14 38 26 6 20 23 26 23 8 0 -5 5 -7 11 -4 6
4 8 14 4 22 -3 10 3 22 15 30 25 18 26 33 1 33 -12 0 -23 -11 -30 -30 -7 -22
-16 -30 -33 -30 -13 0 -57 -11 -98 -24 -83 -26 -159 -42 -125 -27 18 9 17 10
-9 10 -21 1 -27 -3 -22 -14 4 -11 -1 -15 -17 -15 -18 0 -19 2 -7 11 16 11 -29
8 -155 -11 -111 -17 -206 -23 -203 -14 2 5 -1 10 -7 12 -5 1 -10 -4 -10 -10 0
-16 -30 -22 -53 -12 -14 6 -11 9 13 14 18 5 -21 8 -97 9 -89 1 -128 5 -128 12
0 9 23 10 77 6 89 -7 224 8 268 29 29 14 28 14 -28 8 -38 -4 -62 -2 -71 5 -10
8 -16 9 -21 1 -7 -12 -254 -14 -273 -1 -8 4 58 11 155 15 92 4 186 11 208 16
55 13 158 13 150 0 -3 -5 -20 -10 -36 -10 -28 0 -29 -1 -15 -16 14 -14 18 -14
38 0 12 9 33 16 45 16 16 0 23 6 23 20 0 17 -7 20 -44 20 -24 0 -46 4 -48 10
-2 5 -23 2 -51 -7 -44 -14 -49 -14 -66 1 -15 14 -40 17 -145 15 -69 0 -129 -5
-132 -10 -6 -10 -114 -12 -138 -3 -31 12 -15 23 37 27 49 3 48 3 -15 5 -62 2
-70 5 -102 37 -20 19 -40 35 -46 35 -6 0 -8 5 -5 10 3 6 -1 10 -9 10 -9 0 -16
5 -16 11 0 6 -14 24 -31 40 -17 16 -25 29 -18 29 21 0 -3 18 -31 23 -14 2 4 5
40 6 63 1 73 14 20 24 -14 3 74 2 195 -1 278 -9 531 -5 570 7 23 8 1 10 -90
10 -347 -2 -545 2 -545 11 0 6 35 10 84 10 47 0 87 4 91 9 6 11 -55 18 -235
26 -74 4 -139 11 -144 16 -6 6 -6 9 2 9 7 0 12 6 12 14 0 10 13 16 35 18 25 2
32 6 26 16 -5 8 -61 21 -147 32 -123 17 -129 19 -53 15 67 -4 88 -2 92 8 4 10
-17 17 -83 25 -104 14 -196 15 -165 2 l20 -9 -20 -2 c-12 -1 -6 -5 15 -9 26
-6 21 -7 -20 -4 -30 3 -57 8 -60 12 -8 11 -79 42 -98 42 -15 0 -15 2 -2 10 12
8 11 10 -7 10 -13 0 -23 5 -23 10 0 6 28 10 65 10 49 0 67 -4 71 -15 7 -18 35
-23 184 -34 70 -6 119 -6 126 0 6 5 61 8 122 6 61 -2 109 0 107 3 -2 4 -57 12
-122 19 -65 7 -127 14 -138 15 -43 7 126 4 240 -3 127 -8 159 1 107 28 -25 14
-64 17 -274 20 -45 1 -58 4 -58 16 0 9 -7 15 -16 13 -10 -2 -19 3 -22 11 -4
11 5 12 42 7 26 -4 61 -4 79 0 28 6 30 8 12 15 -11 4 -41 8 -66 8 -44 1 -91
22 -73 34 8 4 215 -10 399 -28 37 -4 54 -2 45 3 -14 8 -126 24 -285 40 -63 6
-70 9 -73 30 -3 19 0 23 15 19 10 -3 65 -8 123 -12 98 -5 104 -5 85 10 -19 16
-19 16 10 13 17 -2 30 -8 30 -15 0 -20 14 -27 21 -10 5 13 18 16 70 12 81 -5
107 -13 100 -31 -3 -8 -2 -14 3 -14 5 0 11 10 14 22 4 15 10 19 19 12 7 -6 38
-11 68 -12 30 -2 91 -7 135 -12 108 -13 165 -13 165 2 0 6 -3 8 -7 5 -3 -4
-11 -3 -17 2 -6 4 -47 14 -91 20 -119 18 -125 20 -125 36 0 12 8 14 43 8 23
-3 47 -13 53 -21 6 -8 16 -12 22 -8 6 3 22 2 35 -3 14 -6 65 -12 114 -15 48
-2 109 -8 136 -12 30 -4 47 -3 47 3 0 12 -58 26 -72 17 -5 -3 -17 1 -26 9 -20
18 -98 33 -208 41 -45 4 -139 18 -210 32 -138 28 -305 52 -394 58 -130 8 -230
20 -230 27 0 4 -15 7 -32 7 -50 -2 -261 13 -278 19 -28 10 -115 11 -175 2 -33
-5 -90 -10 -125 -11 -36 -2 -68 -6 -71 -11 -3 -4 -45 -10 -92 -14 -48 -3 -87
-10 -87 -15 0 -5 17 -9 38 -8 20 1 48 1 62 1 24 -2 24 -2 5 -14 -26 -15 -518
-14 -555 1 -14 6 -19 11 -12 11 6 1 12 10 12 22 0 15 5 19 19 14 10 -3 29 -1
42 4 19 8 12 10 -37 10 -34 1 -65 -4 -72 -11 -7 -7 -33 -15 -59 -18 -61 -7
-68 -28 -11 -33 24 -2 -1 -4 -54 -5 -78 -2 -98 -5 -98 -16 0 -8 10 -17 23 -19
19 -4 18 -4 -5 -6 -16 0 -28 3 -28 9 0 5 -11 12 -25 16 -30 7 -32 20 -5 29 11
3 20 13 20 21 0 16 -11 18 -25 5 -6 -5 -30 -14 -55 -19 -29 -6 -36 -10 -20
-11 14 -1 31 -5 38 -10 9 -5 -21 -11 -77 -15 -50 -4 -91 -12 -91 -17 0 -5 -21
-9 -46 -9 -26 0 -43 -4 -39 -10 7 -11 -94 -8 -113 4 -6 4 -21 2 -33 -5 -12 -6
-42 -9 -66 -6 -25 2 -71 -1 -104 -7 -80 -17 -81 5 -1 34 31 11 66 25 77 29 11
5 44 17 73 27 37 13 51 22 48 33 -15 56 -15 70 -1 81 18 15 20 46 3 56 -6 4
-8 3 -5 -3 8 -12 -23 -28 -79 -43 -51 -13 -79 -40 -43 -40 21 -1 22 -2 7 -11
-35 -20 -113 -39 -117 -28 -2 6 -8 4 -15 -5 -6 -8 -65 -33 -131 -56 -155 -52
-149 -50 -144 -55 9 -9 243 62 284 86 14 9 20 9 23 0 5 -16 32 -14 38 4 7 17
75 38 87 26 22 -22 -36 -71 -86 -71 -12 0 -27 -4 -32 -9 -6 -5 -71 -28 -145
-51 -74 -24 -139 -47 -144 -51 -6 -5 -17 -9 -25 -9 -8 0 -74 -29 -146 -64
-159 -78 -189 -91 -240 -100 -22 -4 -42 -11 -45 -14 -14 -18 -117 -63 -131
-57 -10 3 -20 2 -23 -3 -3 -6 -15 -8 -26 -5 -11 3 -30 -1 -42 -9 -34 -22 -49
-13 -37 22 11 31 86 70 99 51 4 -7 22 -8 50 -3 34 6 45 12 44 25 -1 12 13 25
44 39 25 12 41 23 35 25 -6 2 -9 13 -6 23 5 17 3 18 -20 7 -22 -10 -23 -13 -9
-18 14 -6 13 -8 -8 -17 -19 -7 -28 -6 -38 7 -11 14 -14 14 -28 -6 -18 -25 -40
-30 -46 -11 -3 7 -19 12 -39 10 l-34 -2 26 15 c39 21 179 71 224 79 21 4 48
14 59 22 20 14 18 16 -14 18 -8 1 -16 8 -18 16 -4 21 61 49 371 156 100 35 94
42 -8 9 -133 -42 -95 -12 45 36 70 24 93 24 65 2 -18 -14 -18 -15 -2 -9 10 3
25 6 32 6 8 0 11 7 8 20 -3 11 -14 20 -25 20 -19 0 -106 -24 -143 -40 -11 -5
-69 -27 -130 -50 -60 -23 -118 -45 -127 -51 -10 -5 -30 -9 -46 -9 -32 0 -52
-16 -52 -42 0 -10 -4 -18 -8 -18 -4 0 -7 12 -7 28 1 24 10 30 66 54 35 14 74
27 86 27 12 1 35 12 51 26 17 14 40 25 52 25 13 0 38 11 56 25 18 14 40 25 48
25 9 0 55 12 103 26 49 15 100 29 116 31 15 3 27 9 27 14 0 5 14 9 30 9 17 0
45 7 61 16 17 8 37 13 45 10 8 -3 14 -1 14 5 0 7 12 9 30 7 30 -5 40 6 40 43
0 17 5 19 35 13 30 -5 36 -3 44 17 7 18 10 19 10 7 1 -23 5 -22 76 2 49 17
146 29 107 13 -7 -3 -17 -15 -22 -28 -6 -15 -20 -26 -42 -30 -47 -10 -128 -46
-128 -56 0 -12 29 -4 154 38 55 18 109 33 121 33 12 0 25 4 30 9 6 6 60 26
120 45 125 40 198 66 204 72 8 7 -54 -3 -82 -15 -33 -13 -47 -7 -47 20 0 12 7
19 19 19 10 0 21 8 23 18 5 17 53 37 164 67 16 4 20 11 17 25 -6 24 -16 25
-33 5 -17 -21 -30 -19 -30 4 0 14 -8 21 -27 23 -23 3 -16 7 35 22 34 10 65 23
68 27 7 12 7 12 -97 -16 -95 -25 -134 -45 -89 -45 30 0 18 -12 -15 -16 -14 -1
-23 2 -20 7 4 5 -3 9 -14 9 -26 0 -37 -17 -14 -22 11 -2 1 -8 -23 -14 -38 -10
-41 -10 -37 7 7 24 60 48 207 96 68 22 121 44 124 53 7 19 34 40 44 34 4 -3
42 7 85 21 43 14 88 25 100 25 12 0 44 9 70 19 62 24 109 30 106 13 -3 -13 18
-15 54 -6 12 3 19 12 17 18 -5 12 129 56 172 56 32 0 42 13 23 32 -15 14 -19
15 -30 2z m-509 -124 c0 -5 -4 -10 -10 -10 -5 0 -10 5 -10 10 0 6 5 10 10 10
6 0 10 -4 10 -10z m-560 -279 c0 -4 -11 -6 -25 -3 -14 2 -25 6 -25 8 0 2 11 4
25 4 14 0 25 -4 25 -9z m-86 -28 c6 -7 -98 -53 -118 -52 -6 0 6 7 27 16 20 8
37 21 37 29 0 14 41 20 54 7z m-269 -63 c-22 -25 -14 -36 15 -20 20 10 40 7
29 -5 -5 -5 -133 -48 -377 -128 -73 -24 -138 -49 -144 -55 -7 -7 -19 -12 -28
-12 -9 0 -69 -18 -135 -40 -121 -41 -167 -46 -79 -10 27 11 62 27 77 35 16 8
37 15 47 15 10 0 22 4 25 10 3 5 16 9 28 9 36 -1 117 32 117 48 0 17 81 53
119 53 16 0 40 9 54 20 14 11 33 20 44 20 10 0 27 7 37 15 11 8 34 15 50 15
17 0 49 12 71 25 50 31 76 34 50 5z m120 0 c-27 -12 -43 -12 -25 0 8 5 22 9
30 9 10 0 8 -3 -5 -9z m362 -36 c-3 -3 -12 -4 -19 -1 -8 3 -5 6 6 6 11 1 17
-2 13 -5z m-1287 -279 c-14 -8 -50 -22 -80 -31 -30 -9 -86 -29 -124 -45 -77
-33 -86 -34 -86 -16 0 20 72 56 137 68 32 6 63 15 68 19 11 9 47 17 85 18 l25
1 -25 -14z m-314 -101 c-11 -8 -29 -14 -40 -14 -16 1 -13 5 14 19 39 20 55 17
26 -5z m-55 -37 c-4 -4 -28 -9 -53 -12 -52 -5 -124 -31 -150 -52 -9 -8 -25
-12 -36 -9 -14 5 -21 1 -25 -14 -5 -21 -32 -26 -55 -11 -21 13 34 48 130 81
46 16 101 35 123 44 36 13 42 13 56 -2 9 -10 14 -20 10 -25z m2699 22 c0 -11
-45 -12 -80 -2 -25 7 -25 7 5 13 36 7 75 1 75 -11z m-2821 1 c-24 -14 -165
-60 -185 -60 -29 0 -9 11 78 40 83 29 140 39 107 20z m2024 -27 c-7 -2 -19 -2
-25 0 -7 3 -2 5 12 5 14 0 19 -2 13 -5z m-2258 -23 c-22 -10 -53 -21 -70 -25
-29 -6 -29 -5 5 11 40 18 80 32 95 32 6 0 -8 -8 -30 -18z m3014 -6 c108 -12
66 -24 -81 -24 -96 0 -138 -3 -128 -10 12 -8 11 -10 -7 -10 -13 0 -22 5 -20
13 1 9 -50 12 -230 12 -128 0 -229 3 -225 7 4 4 122 9 262 11 140 1 280 3 311
5 31 1 84 -1 118 -4z m-1192 -10 c-3 -3 -12 -4 -19 -1 -8 3 -5 6 6 6 11 1 17
-2 13 -5z m80 0 c-3 -3 -12 -4 -19 -1 -8 3 -5 6 6 6 11 1 17 -2 13 -5z m386
-1 c-7 -2 -21 -2 -30 0 -10 3 -4 5 12 5 17 0 24 -2 18 -5z m847 -3 c0 -5 -8
-10 -17 -10 -15 0 -16 2 -3 10 19 12 20 12 20 0z m247 -16 c-3 -3 -12 -4 -19
-1 -8 3 -5 6 6 6 11 1 17 -2 13 -5z m-535 -29 c56 4 114 7 128 7 79 -4 349
-23 370 -26 14 -1 31 -4 38 -4 6 -1 12 -7 12 -13 0 -11 -86 -9 -105 3 -15 9
-135 -3 -135 -14 0 -5 8 -8 18 -7 9 1 19 0 22 -1 3 -1 28 -4 55 -6 28 -1 52
-4 55 -5 3 -1 23 -3 45 -4 120 -3 225 -18 225 -31 0 -10 -11 -12 -42 -9 -108
11 -362 16 -350 7 12 -8 12 -13 0 -32 -12 -20 -18 -22 -110 -18 -59 2 -103 9
-110 16 -7 7 -22 12 -35 12 -13 0 -23 3 -23 8 0 10 -73 32 -105 32 -20 0 -25
5 -25 24 0 21 -5 24 -67 29 -38 4 -90 8 -118 8 -34 1 -22 4 40 9 57 5 91 12
93 20 4 10 6 10 12 0 6 -10 32 -11 112 -5z m803 -38 c27 -21 12 -33 -34 -29
-45 5 -53 18 -18 32 30 12 31 12 52 -3z m-902 -24 c-7 -2 -19 -2 -25 0 -7 3
-2 5 12 5 14 0 19 -2 13 -5z m-2350 -98 c-2 -12 -111 -47 -132 -42 -12 3 -10
6 9 14 14 6 32 18 40 27 14 18 87 19 83 1z m60 -2 c-7 -2 -19 -2 -25 0 -7 3
-2 5 12 5 14 0 19 -2 13 -5z m2917 -43 c23 -5 -13 -8 -106 -9 -108 -1 -148 3
-170 14 -27 14 -18 15 106 9 74 -4 151 -10 170 -14z m-3490 -9 c-8 -5 -28 -11
-45 -14 l-30 -6 30 14 c34 16 72 21 45 6z m3597 -7 c-3 -3 -12 -4 -19 -1 -8 3
-5 6 6 6 11 1 17 -2 13 -5z m-4307 -23 c0 -25 16 -30 63 -19 31 7 42 5 68 -14
31 -23 31 -23 7 -26 -38 -6 -44 -20 -12 -32 l29 -12 -28 -15 c-16 -8 -26 -17
-23 -21 4 -3 12 0 18 6 7 7 18 12 25 12 18 0 16 -29 -2 -36 -8 -4 -15 -12 -15
-20 0 -11 -17 -14 -67 -14 -138 -1 -240 -8 -308 -20 -87 -15 -113 -34 -35 -25
140 16 278 20 366 10 52 -6 96 -14 100 -17 3 -4 -55 -4 -129 -1 -74 3 -147 2
-163 -2 l-29 -8 30 -6 c21 -4 31 -13 33 -29 2 -12 10 -22 18 -22 8 0 14 -4 14
-10 0 -6 -29 -10 -67 -10 -47 0 -63 3 -53 10 11 7 1 9 -33 8 -31 0 -51 -5 -54
-14 -9 -24 -95 -18 -116 7 -10 11 -17 22 -15 24 2 2 50 6 107 9 57 4 110 10
119 15 24 14 -59 24 -128 16 -56 -7 -60 -6 -60 14 0 18 -6 21 -41 21 -26 0
-38 -4 -34 -11 5 -7 -6 -9 -31 -7 -25 2 -38 8 -36 16 2 10 -2 10 -19 2 -22
-12 -35 -8 -25 8 3 5 38 13 78 17 41 4 80 13 88 21 43 41 91 63 123 57 29 -6
31 -5 18 11 -12 15 -12 19 1 33 15 14 77 43 168 79 46 18 50 17 50 -5z m1623
12 c-13 -2 -23 -9 -23 -14 0 -5 -9 -9 -20 -9 -11 0 -20 -4 -20 -9 0 -14 -71
-24 -83 -12 -8 8 -4 11 12 11 13 0 37 6 54 14 46 21 60 24 82 24 17 -1 16 -1
-2 -5z m2754 1 c-3 -3 -12 -4 -19 -1 -8 3 -5 6 6 6 11 1 17 -2 13 -5z m-3947
-64 c0 -5 -12 -10 -27 -9 l-28 1 25 8 c14 4 26 8 28 9 1 1 2 -3 2 -9z m673
-17 c-7 -2 -21 -2 -30 0 -10 3 -4 5 12 5 17 0 24 -2 18 -5z m330 -30 c-13 -2
-23 -9 -23 -14 0 -5 -9 -9 -20 -9 -11 0 -20 -5 -20 -11 0 -6 -17 -9 -42 -7
-61 4 -59 31 2 39 52 7 136 8 103 2z m-508 -39 c-9 -7 -23 -10 -31 -7 -8 3
-14 1 -14 -5 0 -5 -11 -7 -24 -5 -13 3 -42 -5 -67 -18 -24 -13 -48 -24 -54
-24 -28 -2 -116 -28 -121 -36 -9 -16 -44 -11 -38 6 4 8 2 15 -4 15 -5 0 -12
-7 -16 -15 -6 -18 -47 -20 -44 -3 2 7 14 18 28 26 19 10 29 11 47 1 15 -8 26
-9 35 -2 7 6 29 14 48 18 19 4 61 18 92 31 32 13 71 24 87 24 16 0 32 6 35 13
5 9 7 9 12 0 4 -10 10 -9 22 3 12 13 17 14 20 4 3 -7 -3 -19 -13 -26z m-705
-14 c13 -24 10 -24 -24 -7 -14 8 -23 17 -19 20 12 13 32 7 43 -13z m364 12 c7
-11 -84 -39 -149 -46 -34 -3 -42 -2 -25 4 14 4 37 8 53 9 15 1 27 6 27 12 0 6
8 8 18 5 10 -4 27 1 38 9 22 17 31 18 38 7z m656 -72 c0 -5 -4 -10 -10 -10 -5
0 -10 5 -10 10 0 6 5 10 10 10 6 0 10 -4 10 -10z m-767 -17 c-7 -2 -19 -2 -25
0 -7 3 -2 5 12 5 14 0 19 -2 13 -5z m-58 -13 c-3 -5 -20 -10 -36 -10 -18 0
-28 4 -24 10 3 6 20 10 36 10 18 0 28 -4 24 -10z m-909 -19 c-18 -7 -18 -8 -3
-14 17 -6 24 -27 9 -27 -5 0 -17 7 -28 15 -16 13 -17 16 -4 25 8 5 22 9 30 9
10 0 9 -3 -4 -8z m1634 -11 c8 -5 11 -10 5 -10 -5 0 -17 5 -25 10 -8 5 -10 10
-5 10 6 0 17 -5 25 -10z m-981 -46 c2 -2 -17 -4 -42 -4 -26 0 -47 4 -47 9 0 8
79 3 89 -5z m-234 -114 c3 -5 -1 -10 -9 -10 -9 0 -16 5 -16 10 0 6 4 10 9 10
6 0 13 -4 16 -10z m-112 -50 c-1 -37 -19 -53 -44 -39 -20 10 -36 -5 -17 -17 8
-5 7 -9 -5 -13 -33 -12 0 -32 69 -42 77 -12 107 -29 53 -30 -18 0 -28 -3 -21
-6 27 -11 9 -18 -39 -14 -35 2 -47 6 -38 12 12 8 12 11 -1 19 -19 13 -30 13
-30 0 0 -16 -26 -11 -51 10 -24 19 -24 19 -2 20 16 0 20 5 16 20 -4 15 0 20
13 20 16 0 16 3 -6 20 l-25 20 30 0 c22 0 26 3 17 12 -22 22 -13 37 26 41 54
5 57 3 55 -33z m5310 -77 c-7 -2 -19 -2 -25 0 -7 3 -2 5 12 5 14 0 19 -2 13
-5z m607 -82 c-8 -5 -26 -12 -40 -15 l-25 -7 25 15 c14 9 32 15 40 15 13 0 13
-1 0 -8z m-5720 -127 c0 -17 -22 -14 -28 4 -2 7 3 12 12 12 9 0 16 -7 16 -16z
m92 -104 c20 0 28 -5 28 -17 0 -14 -10 -19 -40 -20 -39 -2 -40 -2 -40 29 0 25
3 29 12 20 7 -7 25 -12 40 -12z m3218 -90 c0 -5 9 -10 20 -10 27 0 90 -63 90
-90 0 -11 5 -20 10 -20 6 0 10 -30 10 -70 0 -40 -4 -70 -10 -70 -5 0 -10 -11
-10 -25 0 -14 -4 -25 -10 -25 -5 0 -10 -13 -10 -30 0 -16 -4 -30 -10 -30 -5 0
-10 -13 -10 -30 0 -16 -4 -30 -10 -30 -5 0 -10 -11 -10 -25 0 -14 -4 -25 -10
-25 -5 0 -10 -13 -10 -30 0 -16 -4 -30 -10 -30 -5 0 -10 -8 -10 -18 0 -10 -7
-27 -15 -38 -8 -10 -15 -27 -15 -36 0 -10 -4 -18 -10 -18 -5 0 -10 -13 -10
-30 0 -16 -4 -30 -10 -30 -5 0 -10 -13 -10 -30 0 -16 -4 -30 -10 -30 -5 0 -10
-11 -10 -25 0 -14 -4 -25 -10 -25 -5 0 -10 -13 -10 -30 0 -16 -4 -30 -10 -30
-5 0 -10 -13 -10 -30 0 -16 -4 -30 -10 -30 -5 0 -10 -10 -10 -22 0 -13 -11
-43 -25 -67 -14 -23 -25 -51 -25 -61 0 -11 -4 -22 -10 -25 -5 -3 -10 -19 -10
-36 0 -16 -4 -29 -10 -29 -5 0 -10 -9 -10 -20 0 -11 -4 -20 -10 -20 -5 0 -10
-16 -10 -35 0 -19 -4 -35 -10 -35 -5 0 -10 -13 -10 -30 0 -16 -4 -30 -10 -30
-5 0 -10 -9 -10 -20 0 -11 -4 -20 -9 -20 -5 0 -11 -12 -14 -27 -9 -44 -31
-103 -39 -103 -5 0 -8 -9 -8 -20 0 -11 -4 -20 -10 -20 -5 0 -10 -16 -10 -35 0
-19 -4 -35 -10 -35 -5 0 -10 -13 -10 -30 0 -16 -4 -30 -10 -30 -5 0 -10 -11
-10 -25 0 -14 -4 -25 -10 -25 -5 0 -10 -13 -10 -30 0 -16 -4 -30 -10 -30 -5 0
-10 -13 -10 -30 0 -16 -4 -30 -10 -30 -5 0 -10 -8 -10 -17 0 -10 -7 -27 -15
-37 -8 -11 -15 -28 -15 -38 0 -10 -4 -18 -10 -18 -5 0 -10 -13 -10 -30 0 -16
-4 -30 -10 -30 -5 0 -10 -13 -10 -30 0 -16 -4 -30 -10 -30 -5 0 -10 -11 -10
-25 0 -14 -4 -25 -10 -25 -5 0 -10 -13 -10 -30 0 -16 -4 -30 -10 -30 -5 0 -10
-13 -10 -30 0 -16 -4 -30 -10 -30 -5 0 -10 -11 -10 -25 0 -14 -4 -25 -9 -25
-5 0 -11 -10 -14 -22 -12 -47 -32 -98 -39 -98 -5 0 -8 -11 -8 -25 0 -14 -4
-25 -10 -25 -5 0 -10 -13 -10 -30 0 -16 -4 -30 -10 -30 -5 0 -10 -13 -10 -30
0 -16 -4 -30 -10 -30 -5 0 -10 -9 -10 -20 0 -22 -41 -70 -60 -70 -5 0 -10 -4
-10 -10 0 -5 -13 -10 -30 -10 -16 0 -30 -4 -30 -10 0 -5 -20 -10 -45 -10 -25
0 -45 5 -45 10 0 6 -11 10 -25 10 -29 0 -95 59 -95 85 0 8 -4 15 -10 15 -6 0
-10 32 -10 75 0 43 4 75 10 75 6 0 10 16 10 35 0 19 5 35 10 35 6 0 10 14 10
30 0 17 5 30 10 30 6 0 10 9 10 20 0 11 5 20 10 20 6 0 10 16 10 35 0 19 4 35
8 35 5 0 15 23 22 50 7 28 17 50 21 50 5 0 11 16 15 35 3 19 10 35 15 35 5 0
9 14 9 30 0 17 5 30 10 30 6 0 10 11 10 25 0 14 5 25 10 25 6 0 10 14 10 30 0
17 5 30 10 30 6 0 10 14 10 30 0 17 5 30 10 30 6 0 10 14 10 30 0 17 5 30 10
30 6 0 10 11 10 25 0 14 5 25 10 25 6 0 10 9 10 19 0 11 7 26 15 35 8 8 15 26
15 40 0 14 5 26 10 26 6 0 10 11 10 25 0 14 5 25 10 25 6 0 10 14 10 30 0 17
5 30 10 30 6 0 10 14 10 30 0 17 5 30 10 30 6 0 10 11 10 25 0 14 5 25 10 25
6 0 10 14 10 30 0 17 5 30 10 30 6 0 10 11 10 24 0 14 5 28 10 31 6 3 10 15
10 26 0 11 7 27 15 35 8 9 15 24 15 35 0 10 5 19 10 19 6 0 10 14 10 30 0 17
5 30 10 30 6 0 10 11 10 25 0 14 5 25 10 25 6 0 10 14 10 30 0 17 5 30 10 30
6 0 10 14 10 30 0 17 5 30 10 30 6 0 10 11 10 25 0 14 5 25 10 25 6 0 10 14
10 30 0 17 4 30 9 30 5 0 12 16 15 35 4 19 11 35 16 35 6 0 10 14 10 30 0 17
5 30 10 30 6 0 10 9 10 20 0 11 5 20 10 20 6 0 10 16 10 35 0 19 5 35 10 35 6
0 10 14 10 30 0 17 5 30 10 30 6 0 10 9 10 20 0 11 5 20 10 20 6 0 10 16 10
35 0 19 5 35 10 35 6 0 10 8 10 18 0 9 11 37 25 61 14 23 25 54 25 67 0 13 5
24 10 24 6 0 10 14 10 30 0 17 5 30 10 30 6 0 10 9 10 20 0 11 5 20 10 20 6 0
10 9 10 20 0 22 41 70 60 70 5 0 10 5 10 10 0 6 9 10 20 10 11 0 20 5 20 10 0
6 27 10 60 10 33 0 60 -4 60 -10z m-1380 -452 c22 -7 40 -16 40 -20 0 -5 5 -8
10 -8 17 0 60 -47 60 -65 0 -8 5 -15 10 -15 6 0 10 -32 10 -75 0 -43 -4 -75
-10 -75 -5 0 -10 -9 -10 -20 0 -11 -4 -20 -10 -20 -5 0 -10 -5 -10 -11 0 -11
-25 -39 -35 -39 -7 0 -115 -108 -115 -115 0 -8 -47 -55 -55 -55 -3 0 -30 -25
-60 -55 -30 -30 -55 -57 -55 -60 0 -8 -47 -55 -55 -55 -7 0 -115 -108 -115
-115 0 -8 -47 -55 -55 -55 -3 0 -17 -11 -30 -25 l-25 -24 310 -310 c245 -245
310 -315 310 -335 0 -14 5 -26 10 -26 6 0 10 -16 10 -35 0 -19 -4 -35 -10 -35
-5 0 -10 -13 -10 -30 0 -16 -4 -30 -10 -30 -5 0 -10 -7 -10 -16 0 -18 -23 -44
-39 -44 -6 0 -11 -4 -11 -10 0 -5 -7 -10 -16 -10 -8 0 -22 -7 -30 -15 -20 -20
-104 -20 -130 0 -10 8 -25 15 -32 15 -8 0 -31 18 -52 40 -21 22 -41 40 -45 40
-7 0 -75 67 -75 75 0 7 -88 95 -95 95 -7 0 -75 68 -75 75 0 7 -88 95 -95 95
-8 0 -55 47 -55 55 0 7 -108 115 -115 115 -8 0 -55 47 -55 55 0 7 -108 115
-115 115 -8 0 -55 48 -55 56 0 3 -14 19 -31 35 l-30 28 440 441 c242 242 445
440 451 440 6 0 8 5 5 10 -3 6 4 10 17 10 13 0 30 5 38 10 21 13 63 12 110 -2z
m1875 2 c3 -5 15 -10 26 -10 10 0 19 -4 19 -10 0 -5 7 -10 15 -10 24 0 875
-856 875 -880 0 -24 -831 -860 -855 -860 -8 0 -15 -4 -15 -8 0 -14 -69 -42
-105 -42 -36 0 -105 28 -105 42 0 4 -5 8 -10 8 -17 0 -60 47 -60 65 0 8 -4 15
-10 15 -6 0 -10 28 -10 65 0 37 4 65 10 65 6 0 10 9 10 20 0 11 5 20 10 20 6
0 10 5 10 10 0 11 65 80 75 80 7 0 95 88 95 95 0 7 68 75 75 75 7 0 95 88 95
95 0 8 47 55 55 55 7 0 95 88 95 95 0 8 68 75 75 75 4 0 13 7 21 15 13 13 12
18 -10 40 -14 14 -28 25 -31 25 -7 0 -75 68 -75 75 0 7 -68 75 -75 75 -7 0
-75 68 -75 75 0 7 -88 95 -95 95 -7 0 -75 68 -75 75 0 7 -88 95 -95 95 -15 0
-75 72 -75 90 0 11 -4 20 -10 20 -6 0 -10 33 -10 80 0 79 1 82 35 115 19 19
39 35 45 35 5 0 10 4 10 8 0 21 133 42 145 22z m1638 -47 c-7 -2 -19 -2 -25 0
-7 3 -2 5 12 5 14 0 19 -2 13 -5z m-43 -233 c0 -5 -4 -10 -10 -10 -5 0 -10 5
-10 10 0 6 5 10 10 10 6 0 10 -4 10 -10z m60 -4 c0 -9 -9 -14 -20 -13 -11 1
-20 7 -20 14 0 7 9 13 20 13 11 0 20 -6 20 -14z m710 -196 c0 -5 -4 -10 -10
-10 -5 0 -10 5 -10 10 0 6 5 10 10 10 6 0 10 -4 10 -10z m410 -534 c0 -18 -17
-29 -30 -21 -8 5 -7 11 1 21 15 18 29 18 29 0z m-982 -273 c2 -9 -8 -13 -32
-13 -20 0 -36 4 -36 9 0 22 60 25 68 4z m52 -104 c14 -1 37 2 53 6 17 5 27 3
27 -4 0 -14 -30 -21 -113 -25 -56 -2 -71 -7 -83 -25 -17 -23 -39 -29 -31 -7 3
7 0 19 -6 25 -8 8 -7 11 6 11 11 0 14 5 10 16 -5 14 2 15 53 10 32 -3 70 -7
84 -7z m150 7 c0 -2 -9 -6 -20 -9 -11 -3 -20 -1 -20 4 0 5 9 9 20 9 11 0 20
-2 20 -4z m-160 -86 c0 -5 11 -10 25 -10 19 0 25 -5 25 -23 0 -13 5 -28 11
-34 7 -7 9 -18 6 -26 -6 -15 -60 -28 -76 -17 -18 11 -19 120 -1 120 6 0 10 -4
10 -10z m150 -10 c0 -5 -4 -10 -10 -10 -5 0 -10 5 -10 10 0 6 5 10 10 10 6 0
10 -4 10 -10z m285 0 c-3 -5 -10 -10 -16 -10 -5 0 -9 5 -9 10 0 6 7 10 16 10
8 0 12 -4 9 -10z m79 -35 c-6 -16 -24 -21 -24 -7 0 11 11 22 21 22 5 0 6 -7 3
-15z m-700 -10 c7 -20 89 -20 109 0 13 13 16 12 23 -3 18 -38 10 -57 -29 -70
-40 -14 -73 -10 -62 8 3 5 -1 10 -9 10 -9 0 -16 5 -16 10 0 6 -7 10 -15 10
-16 0 -38 34 -28 44 10 10 21 7 27 -9z m344 3 c7 -7 12 -19 11 -27 0 -11 -2
-12 -6 -3 -2 6 -9 12 -15 12 -6 0 -8 -7 -4 -15 4 -11 -1 -15 -19 -15 -30 0
-30 4 -7 35 20 28 24 29 40 13z m212 -78 c0 -5 -7 -10 -16 -10 -8 0 -12 5 -9
10 3 6 10 10 16 10 5 0 9 -4 9 -10z m91 -30 c-50 -23 -51 -23 -51 -11 0 11 46
29 75 30 11 0 1 -8 -24 -19z m-402 -9 c7 -5 10 -14 7 -20 -9 -14 -86 -15 -86
-1 0 6 9 10 19 10 11 0 23 5 26 10 8 12 16 12 34 1z m-101 -28 c2 -8 -5 -13
-17 -13 -21 0 -35 13 -24 24 10 10 36 3 41 -11z m522 -14 c0 -5 -4 -9 -10 -9
-5 0 -10 7 -10 16 0 8 5 12 10 9 6 -3 10 -10 10 -16z m-490 -13 c0 -3 -4 -8
-10 -11 -5 -3 -10 -1 -10 4 0 6 5 11 10 11 6 0 10 -2 10 -4z m-6433 -172 c-3
-3 -12 -4 -19 -1 -8 3 -5 6 6 6 11 1 17 -2 13 -5z m6118 -4 c3 -5 1 -10 -4
-10 -6 0 -11 5 -11 10 0 6 2 10 4 10 3 0 8 -4 11 -10z m-5271 -523 c-1 -10 10
-17 32 -22 20 -3 34 -12 34 -21 0 -11 -9 -13 -42 -8 -49 7 -98 25 -98 36 0 12
14 10 28 -4 9 -9 12 -7 12 8 0 12 3 24 7 28 11 11 28 0 27 -17z m96 3 c0 -5
-7 -10 -15 -10 -8 0 -15 5 -15 10 0 6 7 10 15 10 8 0 15 -4 15 -10z m45 -50
c-3 -5 -17 -10 -31 -10 -13 0 -24 5 -24 10 0 6 14 10 31 10 17 0 28 -4 24 -10z
m84 -11 c33 -27 18 -36 -26 -15 -29 14 -34 20 -22 27 19 12 20 11 48 -12z
m109 -13 c-2 -8 6 -22 17 -31 19 -15 19 -15 -10 -9 -38 8 -49 19 -42 38 8 20
39 21 35 2z m-508 -11 c0 -3 -9 -15 -19 -26 l-19 -21 -11 20 c-11 21 -11 21
42 31 4 0 7 -1 7 -4z m606 -22 c17 -23 18 -43 0 -43 -20 0 -37 25 -30 44 8 20
14 20 30 -1z m-236 -14 c0 -5 -7 -9 -15 -9 -15 0 -20 12 -9 23 8 8 24 -1 24
-14z m-340 -3 c0 -8 -4 -18 -10 -21 -5 -3 -10 3 -10 14 0 12 5 21 10 21 6 0
10 -6 10 -14z m169 -10 c9 -10 8 -15 -3 -19 -21 -8 -56 3 -56 19 0 18 44 18
59 0z m511 -1 c7 -8 10 -22 6 -31 -5 -13 -10 -12 -38 7 -28 21 -29 23 -12 30
28 11 30 11 44 -6z m-440 -9 c0 -11 -19 -15 -25 -6 -3 5 1 10 9 10 9 0 16 -2
16 -4z m5535 -54 c-4 -4 -12 1 -19 11 -7 9 -23 17 -35 17 -16 0 -21 -6 -22
-27 0 -25 -1 -25 -9 -8 -7 20 15 59 29 51 3 -2 15 0 26 4 16 6 22 2 29 -17 4
-13 5 -27 1 -31z m-5412 25 c31 -14 33 -20 11 -38 -14 -11 -18 -11 -29 4 -7 9
-24 17 -39 17 -19 0 -26 5 -26 19 0 14 6 17 28 14 15 -3 39 -10 55 -16z m222
-17 c-3 -5 -10 -10 -16 -10 -5 0 -9 5 -9 10 0 6 7 10 16 10 8 0 12 -4 9 -10z
m-325 -10 c0 -5 -2 -10 -4 -10 -3 0 -8 5 -11 10 -3 6 -1 10 4 10 6 0 11 -4 11
-10z m99 -86 c18 16 19 16 23 -12 4 -29 4 -29 -41 -24 -25 2 -48 6 -50 8 -2 2
0 16 4 31 l7 28 19 -24 c18 -22 20 -23 38 -7z m127 -18 c14 -10 22 -11 32 -4
10 8 17 7 29 -5 13 -13 14 -21 5 -41 -8 -19 -18 -24 -45 -24 -30 0 -36 4 -42
27 -3 14 -8 34 -11 44 -6 21 5 22 32 3z m4944 -16 c0 -5 -13 -10 -30 -10 -17
0 -39 -9 -51 -21 -20 -20 -23 -20 -31 -5 -8 14 -18 16 -56 10 -35 -5 -44 -3
-36 5 6 6 46 15 90 20 114 12 114 12 114 1z m-5506 -93 c-3 -9 -12 -17 -20
-17 -17 0 -17 5 -3 32 13 24 33 10 23 -15z m301 24 c10 -17 -12 -21 -25 -6
-10 12 -10 15 3 15 9 0 18 -4 22 -9z m820 -71 c3 -5 -1 -10 -9 -10 -9 0 -16 5
-16 10 0 6 4 10 9 10 6 0 13 -4 16 -10z m62 -76 c-3 -3 -12 -4 -19 -1 -8 3 -5
6 6 6 11 1 17 -2 13 -5z m-302 -44 c-3 -5 -12 -10 -18 -10 -7 0 -6 4 3 10 19
12 23 12 15 0z m415 -50 c0 -5 -12 -10 -26 -10 -14 0 -23 4 -19 10 3 6 15 10
26 10 10 0 19 -4 19 -10z m-1050 -4 c0 -11 -33 -36 -40 -31 -15 9 1 35 21 35
10 0 19 -2 19 -4z m415 -6 c-3 -5 -21 -10 -38 -9 -31 1 -31 1 -7 9 36 11 52
11 45 0z m690 -40 c-3 -5 -12 -10 -18 -10 -7 0 -6 4 3 10 19 12 23 12 15 0z
m-52 -7 c-7 -2 -19 -2 -25 0 -7 3 -2 5 12 5 14 0 19 -2 13 -5z m-1746 -169
c-3 -3 -12 -4 -19 -1 -8 3 -5 6 6 6 11 1 17 -2 13 -5z m-40 -10 c-3 -3 -12 -4
-19 -1 -8 3 -5 6 6 6 11 1 17 -2 13 -5z m56 -61 c-7 -2 -21 -2 -30 0 -10 3 -4
5 12 5 17 0 24 -2 18 -5z m2002 -2 c-12 -10 -183 -26 -173 -16 4 4 45 11 90
15 46 4 85 8 88 9 2 0 0 -3 -5 -8z m-1605 -26 c0 -8 -4 -15 -10 -15 -5 0 -10
7 -10 15 0 8 5 15 10 15 6 0 10 -7 10 -15z m5630 -80 c-41 -16 -89 -20 -74 -6
12 12 41 19 79 19 l30 0 -35 -13z m-5280 -9 c0 -3 -4 -8 -10 -11 -5 -3 -10 -1
-10 4 0 6 5 11 10 11 6 0 10 -2 10 -4z m5175 -6 c-11 -5 -29 -9 -40 -9 l-20 0
20 9 c11 5 29 9 40 9 l20 0 -20 -9z m-4725 -20 c-8 -5 -17 -7 -19 -4 -3 3 1 9
9 14 8 5 17 7 19 4 3 -3 -1 -9 -9 -14z m5060 10 c0 -5 -7 -10 -15 -10 -8 0
-15 5 -15 10 0 6 7 10 15 10 8 0 15 -4 15 -10z m-465 -19 c-22 -10 -86 -24
-143 -30 -57 -7 -111 -15 -119 -18 -11 -4 -14 -2 -11 8 2 8 20 15 39 17 19 2
81 12 139 22 135 24 143 24 95 1z m-4955 0 c0 -10 -30 -24 -37 -17 -3 3 -2 9
2 15 8 13 35 15 35 2z m31 -54 c-8 -8 -11 -7 -11 4 0 9 3 19 7 23 4 4 9 2 11
-4 3 -7 -1 -17 -7 -23z m274 14 c0 -15 -85 -40 -138 -41 -46 0 -26 22 33 37
30 7 56 16 59 19 10 10 46 -1 46 -15z m752 -5 c-2 -6 -19 -12 -38 -14 l-34 -2
23 19 c23 20 56 18 49 -3z m3100 -52 c-3 -3 -12 -4 -19 -1 -8 3 -5 6 6 6 11 1
17 -2 13 -5z m-2557 -20 c0 -2 -11 -4 -25 -4 -14 0 -25 4 -25 9 0 4 11 6 25 3
14 -2 25 -6 25 -8z m2205 -5 c-49 -4 -126 -7 -170 -6 l-80 1 80 6 c44 3 121 6
170 7 l90 0 -90 -8z m-3203 -18 c16 9 24 7 37 -6 13 -14 13 -17 1 -13 -8 3
-23 1 -32 -4 -26 -13 -78 -17 -78 -5 0 6 8 19 17 29 15 17 18 17 25 3 7 -12
13 -13 30 -4z m68 15 c0 -3 -4 -8 -10 -11 -5 -3 -10 -1 -10 4 0 6 5 11 10 11
6 0 10 -2 10 -4z m3739 -91 c-3 -2 -90 -14 -195 -25 -104 -11 -206 -22 -226
-25 -21 -3 -38 -1 -38 3 0 8 100 21 320 41 127 11 144 12 139 6z m-1239 -49
c0 -11 -19 -15 -25 -6 -3 5 1 10 9 10 9 0 16 -2 16 -4z m208 -57 c39 -12 72
-26 72 -32 0 -5 -8 -6 -17 -2 -10 3 -46 15 -80 27 -35 11 -63 22 -63 24 0 7
14 4 88 -17z m-523 1 c3 -5 -1 -10 -10 -10 -9 0 -13 5 -10 10 3 6 8 10 10 10
2 0 7 -4 10 -10z m-1285 -20 c-14 -4 -43 -8 -65 -8 -38 0 -39 1 -10 8 17 4 46
8 65 8 32 0 33 -1 10 -8z m1405 -9 c28 -10 69 -22 92 -26 53 -8 66 -23 47 -50
-14 -19 -16 -19 -28 -2 -7 9 -29 22 -47 28 -69 22 -139 53 -139 61 0 13 21 10
75 -11z m-1538 3 c-3 -3 -12 -4 -19 -1 -8 3 -5 6 6 6 11 1 17 -2 13 -5z m-102
-15 c-57 -11 -117 -11 -110 1 3 6 39 9 78 9 65 -1 68 -2 32 -10z m-160 -9
c-16 -4 -50 -8 -75 -8 -37 0 -40 2 -20 8 14 4 48 8 75 8 43 0 46 -1 20 -8z
m-156 -15 c-3 -2 -36 -7 -75 -10 -38 -3 -87 -8 -109 -12 -22 -4 -51 -8 -65 -9
-14 0 -71 -7 -128 -14 -91 -10 -144 -9 -130 5 7 7 135 23 248 30 58 4 107 9
109 11 6 6 155 5 150 -1z m2216 -58 c19 -28 19 -56 0 -63 -20 -8 -43 12 -47
39 -2 14 -9 21 -20 19 -20 -3 -35 18 -19 27 20 13 71 -1 86 -22z m-1415 -7 c0
-5 -4 -10 -10 -10 -5 0 -10 5 -10 10 0 6 5 10 10 10 6 0 10 -4 10 -10z m1648
-112 c51 -17 91 -32 89 -34 -2 -2 -44 8 -93 22 -49 15 -101 29 -117 32 -15 2
-30 9 -33 14 -9 14 40 3 154 -34z m214 -1 c43 -15 59 -27 36 -27 -18 0 -88 28
-88 35 0 8 12 6 52 -8z m280 -58 c21 -11 24 -39 6 -39 -7 1 -30 7 -52 15 -21
7 -45 11 -52 8 -17 -6 -18 9 -1 26 13 13 66 8 99 -10z m-152 -135 c0 -9 -5
-14 -12 -12 -18 6 -21 28 -4 28 9 0 16 -7 16 -16z m-145 -134 c19 -8 19 -9 -2
-9 -12 -1 -25 4 -28 9 -7 12 2 12 30 0z m-17 -55 c-3 -12 -29 -8 -43 7 -7 6
-1 8 18 6 15 -2 26 -7 25 -13z"/>
<path d="M4210 7305 c-10 -13 -9 -15 9 -15 11 0 21 4 21 9 0 18 -18 21 -30 6z"/>
<path d="M4121 7044 c-19 -8 -31 -17 -28 -20 3 -3 14 -1 25 5 12 6 30 11 41
11 12 0 21 5 21 10 0 14 -19 12 -59 -6z"/>
<path d="M4258 7043 c7 -3 16 -2 19 1 4 3 -2 6 -13 5 -11 0 -14 -3 -6 -6z"/>
<path d="M4200 7025 l-35 -13 31 -1 c20 -1 34 5 38 14 3 8 4 15 3 14 -1 0 -18
-7 -37 -14z"/>
<path d="M4230 6890 c-13 -8 -12 -10 3 -10 9 0 17 5 17 10 0 12 -1 12 -20 0z"/>
<path d="M3340 6820 c-9 -6 -10 -10 -3 -10 6 0 15 5 18 10 8 12 4 12 -15 0z"/>
<path d="M3230 6750 c-8 -5 -10 -10 -5 -10 6 0 17 5 25 10 8 5 11 10 5 10 -5
0 -17 -5 -25 -10z"/>
<path d="M3090 6700 c-8 -5 -10 -10 -5 -10 6 0 17 5 25 10 8 5 11 10 5 10 -5
0 -17 -5 -25 -10z"/>
<path d="M3238 6653 c7 -3 16 -2 19 1 4 3 -2 6 -13 5 -11 0 -14 -3 -6 -6z"/>
<path d="M3105 6610 c-22 -11 -32 -18 -23 -16 9 3 35 10 57 16 23 6 41 13 41
15 0 11 -38 3 -75 -15z"/>
<path d="M4270 6620 c0 -5 5 -10 10 -10 6 0 10 5 10 10 0 6 -4 10 -10 10 -5 0
-10 -4 -10 -10z"/>
<path d="M3518 6553 c12 -2 30 -2 40 0 9 3 -1 5 -23 4 -22 0 -30 -2 -17 -4z"/>
<path d="M3408 6543 c6 -2 18 -2 25 0 6 3 1 5 -13 5 -14 0 -19 -2 -12 -5z"/>
<path d="M6505 6499 c-3 -4 2 -10 11 -13 23 -9 54 -7 54 3 0 11 -59 20 -65 10z"/>
<path d="M2775 6468 c-49 -17 -108 -39 -131 -50 -22 -10 -50 -18 -62 -18 -11
0 -23 -4 -26 -8 -6 -11 104 6 119 17 5 5 21 11 35 14 30 7 192 66 199 73 13
13 -55 -2 -134 -28z"/>
<path d="M6868 6473 c6 -2 18 -2 25 0 6 3 1 5 -13 5 -14 0 -19 -2 -12 -5z"/>
<path d="M6230 6369 c25 -4 61 -8 80 -8 28 0 31 2 15 9 -11 5 -47 8 -80 8
l-60 -1 45 -8z"/>
<path d="M2572 6334 c-16 -12 -16 -13 0 -14 22 0 48 10 48 19 0 12 -29 9 -48
-5z"/>
<path d="M5630 6320 c0 -5 5 -10 10 -10 6 0 10 5 10 10 0 6 -4 10 -10 10 -5 0
-10 -4 -10 -10z"/>
<path d="M5710 6309 c66 -11 99 -11 80 1 -8 5 -40 9 -70 9 l-55 -2 45 -8z"/>
<path d="M2495 6295 c-33 -11 -36 -13 -14 -14 14 -1 34 6 45 14 23 17 21 17
-31 0z"/>
<path d="M5833 6303 c9 -2 25 -2 35 0 9 3 1 5 -18 5 -19 0 -27 -2 -17 -5z"/>
<path d="M5908 6293 c12 -2 30 -2 40 0 9 3 -1 5 -23 4 -22 0 -30 -2 -17 -4z"/>
<path d="M6003 6283 c15 -2 37 -2 50 0 12 2 0 4 -28 4 -27 0 -38 -2 -22 -4z"/>
<path d="M6108 6273 c12 -2 30 -2 40 0 9 3 -1 5 -23 4 -22 0 -30 -2 -17 -4z"/>
<path d="M6229 6259 c36 -4 78 -14 93 -20 16 -6 31 -9 34 -6 3 3 17 2 30 -3
16 -6 33 -6 49 2 20 9 28 8 43 -5 30 -27 53 -20 34 10 -9 14 -175 33 -274 32
l-73 -2 64 -8z"/>
<path d="M5920 6240 c-11 -8 -8 -9 13 -4 23 5 27 3 27 -15 0 -19 6 -21 63 -21
56 0 63 2 63 20 0 18 -7 20 -56 20 -30 0 -64 3 -75 5 -11 3 -27 1 -35 -5z"/>
<path d="M6595 6197 c-4 -10 -5 -21 -1 -24 10 -10 18 4 13 24 -4 17 -4 17 -12
0z"/>
<path d="M5540 6136 c0 -10 28 -13 41 -5 10 6 7 9 -13 9 -16 0 -28 -2 -28 -4z"/>
<path d="M5670 6060 c8 -5 22 -9 30 -9 10 0 8 3 -5 9 -27 12 -43 12 -25 0z"/>
<path d="M5978 5983 c7 -3 16 -2 19 1 4 3 -2 6 -13 5 -11 0 -14 -3 -6 -6z"/>
<path d="M6328 5873 c7 -3 16 -2 19 1 4 3 -2 6 -13 5 -11 0 -14 -3 -6 -6z"/>
<path d="M6825 5750 c3 -5 8 -10 11 -10 2 0 4 5 4 10 0 6 -5 10 -11 10 -5 0
-7 -4 -4 -10z"/>
<path d="M6715 5728 c-16 -6 -39 -17 -50 -25 -20 -15 -19 -15 3 -8 24 7 29 -4
10 -23 -18 -18 22 -16 58 3 16 8 37 15 48 15 16 0 16 2 -5 25 -27 28 -24 27
-64 13z m45 -29 c0 -5 -14 -9 -31 -9 -26 0 -29 3 -20 14 12 14 51 10 51 -5z"/>
<path d="M6787 5656 c-3 -8 -39 -25 -79 -37 -52 -16 -66 -24 -49 -27 38 -6
141 37 141 59 0 23 -6 24 -13 5z"/>
<path d="M6887 5533 c-4 -3 -7 -17 -7 -31 0 -19 -4 -23 -17 -18 -15 5 -15 3 1
-9 11 -8 29 -13 40 -9 16 4 18 3 6 -5 -12 -8 -9 -12 14 -20 15 -6 36 -16 46
-21 16 -8 18 -8 14 5 -5 13 -1 13 27 3 32 -12 32 -13 10 -16 -21 -3 -15 -9 39
-38 84 -44 100 -49 100 -30 0 9 -5 16 -10 16 -14 0 -59 51 -60 67 0 6 -10 15
-22 19 -13 3 -35 15 -50 25 -14 11 -37 19 -51 19 -18 0 -27 7 -31 25 -6 24
-34 34 -49 18z"/>
<path d="M6746 5505 c-3 -8 -1 -15 3 -15 5 0 11 7 15 15 3 8 1 15 -3 15 -5 0
-11 -7 -15 -15z"/>
<path d="M6707 5443 c-12 -12 -7 -21 14 -26 17 -5 18 -3 7 11 -7 9 -13 18 -14
20 0 1 -4 -1 -7 -5z"/>
<path d="M871 5379 c-16 -21 -29 -29 -42 -26 -15 4 -19 0 -19 -18 0 -13 -5
-27 -11 -31 -24 -15 18 -169 52 -190 5 -3 9 -13 9 -23 0 -25 32 -51 63 -51 23
0 27 4 27 28 0 15 5 33 12 40 9 9 7 13 -5 18 -15 5 -15 9 -1 35 14 28 14 31
-8 49 -13 11 -17 19 -10 20 7 0 12 14 12 34 0 26 -5 36 -20 41 -11 3 -20 11
-20 16 0 6 -9 7 -20 4 -11 -3 -20 -2 -20 4 0 5 9 12 19 16 20 6 31 31 24 53
-7 19 -17 14 -42 -19z m23 -104 c-4 -8 -2 -15 4 -15 6 0 12 6 15 13 2 6 8 9
12 5 4 -4 3 -14 -4 -22 -6 -8 -11 -18 -10 -22 5 -29 -2 -46 -17 -40 -10 4 -22
-1 -30 -11 -12 -16 -13 -11 -14 39 0 51 2 57 23 61 12 2 23 5 24 6 1 0 0 -6
-3 -14z"/>
<path d="M6537 5389 c7 -7 15 -10 18 -7 3 3 -2 9 -12 12 -14 6 -15 5 -6 -5z"/>
<path d="M930 5367 c0 -27 13 -36 26 -16 3 6 -1 18 -10 27 -15 15 -16 14 -16
-11z"/>
<path d="M990 5346 c0 -2 8 -10 17 -17 9 -8 14 -9 10 -2 -4 6 -1 14 5 16 7 3
3 6 -9 6 -13 1 -23 -1 -23 -3z"/>
<path d="M7075 5270 c3 -5 10 -10 16 -10 5 0 9 5 9 10 0 6 -7 10 -16 10 -8 0
-12 -4 -9 -10z"/>
<path d="M6208 5263 c7 -3 16 -2 19 1 4 3 -2 6 -13 5 -11 0 -14 -3 -6 -6z"/>
<path d="M991 5209 c-1 -10 9 -19 24 -21 13 -3 22 -1 19 3 -3 5 -11 9 -19 9
-7 0 -16 6 -18 13 -4 7 -6 6 -6 -4z"/>
<path d="M1000 5146 c0 -7 7 -19 15 -26 13 -11 15 -8 15 14 0 16 -5 26 -15 26
-8 0 -15 -6 -15 -14z"/>
<path d="M6400 5031 c0 -3 16 -11 35 -17 26 -8 35 -8 32 0 -4 11 -67 28 -67
17z"/>
<path d="M6710 4980 c0 -29 270 -85 285 -59 4 5 -3 9 -14 9 -11 0 -30 4 -43 9
-25 10 -200 51 -217 51 -6 0 -11 -5 -11 -10z"/>
<path d="M7071 4914 c0 -11 3 -14 6 -6 3 7 2 16 -1 19 -3 4 -6 -2 -5 -13z"/>
<path d="M7195 4730 c28 -12 37 -12 30 0 -3 6 -16 10 -28 9 -21 0 -21 -1 -2
-9z"/>
<path d="M6835 4138 c-11 -39 -11 -68 1 -68 7 0 16 5 19 10 3 6 11 10 16 10 6
0 7 -4 4 -10 -4 -6 15 -10 50 -10 41 0 56 3 53 13 -3 6 -19 13 -36 15 -20 2
-32 9 -32 18 0 8 6 14 13 13 23 -3 37 1 37 11 0 15 -120 13 -125 -2z"/>
<path d="M440 4030 c27 -5 31 -8 18 -14 -25 -11 -3 -56 27 -56 13 0 35 -2 51
-4 16 -2 23 -1 17 1 -20 7 -15 23 8 23 19 0 19 1 -5 23 -14 13 -23 27 -19 30
3 4 -25 6 -63 6 -55 -1 -62 -3 -34 -9z m60 -20 c0 -5 -4 -10 -10 -10 -5 0 -10
5 -10 10 0 6 5 10 10 10 6 0 10 -4 10 -10z"/>
<path d="M7288 3903 c12 -2 32 -2 45 0 12 2 2 4 -23 4 -25 0 -35 -2 -22 -4z"/>
<path d="M7428 3903 c7 -3 16 -2 19 1 4 3 -2 6 -13 5 -11 0 -14 -3 -6 -6z"/>
<path d="M435 3880 c3 -5 10 -10 16 -10 5 0 9 5 9 10 0 6 -7 10 -16 10 -8 0
-12 -4 -9 -10z"/>
<path d="M7150 3513 c0 -5 4 -14 9 -22 7 -11 11 -9 20 8 10 18 9 21 -9 21 -11
0 -20 -3 -20 -7z"/>
<path d="M7150 3040 c-8 -5 -27 -10 -42 -10 -16 0 -28 -4 -28 -9 0 -5 -3 -16
-6 -25 -4 -12 0 -16 15 -16 29 0 71 28 71 47 0 10 7 14 20 10 11 -3 18 -1 14
4 -7 12 -25 11 -44 -1z"/>
<path d="M6548 2693 c7 -3 16 -2 19 1 4 3 -2 6 -13 5 -11 0 -14 -3 -6 -6z"/>
<path d="M6850 2120 c-13 -8 -12 -10 3 -10 9 0 17 5 17 10 0 12 -1 12 -20 0z"/>
<path d="M788 2093 c7 -3 16 -2 19 1 4 3 -2 6 -13 5 -11 0 -14 -3 -6 -6z"/>
<path d="M1748 1943 c7 -3 16 -2 19 1 4 3 -2 6 -13 5 -11 0 -14 -3 -6 -6z"/>
<path d="M1448 1908 c9 -9 15 -9 24 0 9 9 7 12 -12 12 -19 0 -21 -3 -12 -12z"/>
<path d="M923 1864 c-3 -8 1 -22 8 -29 12 -12 17 -12 33 0 16 12 17 17 6 30
-16 20 -39 19 -47 -1z"/>
<path d="M1250 1871 c0 -5 5 -13 10 -16 6 -3 10 -2 10 4 0 5 -4 13 -10 16 -5
3 -10 2 -10 -4z"/>
<path d="M1377 1873 c-10 -10 -8 -53 2 -53 10 0 21 24 21 46 0 15 -12 19 -23
7z"/>
<path d="M6580 1790 c0 -5 5 -10 10 -10 6 0 10 5 10 10 0 6 -4 10 -10 10 -5 0
-10 -4 -10 -10z"/>
<path d="M6660 1790 c0 -5 11 -10 25 -10 14 0 25 5 25 10 0 6 -11 10 -25 10
-14 0 -25 -4 -25 -10z"/>
<path d="M855 1690 c-3 -5 3 -10 14 -10 12 0 21 5 21 10 0 6 -6 10 -14 10 -8
0 -18 -4 -21 -10z"/>
<path d="M765 1660 c-25 -11 1 -11 35 0 20 6 21 8 5 8 -11 0 -29 -3 -40 -8z"/>
<path d="M1123 1470 c-13 -5 -23 -12 -23 -15 0 -4 4 -3 10 0 5 3 29 10 52 14
35 7 37 9 13 9 -16 1 -40 -3 -52 -8z"/>
<path d="M6690 1470 c0 -5 4 -10 9 -10 6 0 13 5 16 10 3 6 -1 10 -9 10 -9 0
-16 -4 -16 -10z"/>
<path d="M6627 1463 c-15 -14 -6 -24 16 -18 35 11 44 25 16 25 -14 0 -29 -3
-32 -7z"/>
<path d="M148 1413 c7 -3 16 -2 19 1 4 3 -2 6 -13 5 -11 0 -14 -3 -6 -6z"/>
<path d="M208 1393 c6 -2 18 -2 25 0 6 3 1 5 -13 5 -14 0 -19 -2 -12 -5z"/>
<path d="M170 1351 c0 -15 28 -20 80 -14 76 9 71 23 -9 23 -39 0 -71 -4 -71
-9z"/>
<path d="M6877 1353 c-4 -3 -7 -11 -7 -17 0 -6 5 -5 12 2 6 6 9 14 7 17 -3 3
-9 2 -12 -2z"/>
<path d="M1955 1330 c-4 -6 5 -10 19 -10 14 0 26 5 26 10 0 6 -9 10 -19 10
-11 0 -23 -4 -26 -10z"/>
<path d="M6763 1321 l-52 -17 15 -29 c24 -47 29 -48 73 -21 22 14 45 26 50 26
5 0 13 5 16 10 4 6 3 10 -2 9 -22 -4 -34 3 -31 17 4 23 -9 24 -69 5z"/>
<path d="M465 1310 c-17 -7 -16 -9 10 -9 17 0 39 4 50 9 17 7 16 9 -10 9 -16
0 -39 -4 -50 -9z"/>
<path d="M939 1315 c-3 -2 -83 -16 -179 -31 -96 -15 -177 -28 -179 -30 -15
-13 24 -11 165 11 87 13 174 26 193 27 36 3 57 28 24 28 -11 0 -22 -2 -24 -5z"/>
<path d="M386 1301 c-4 -5 5 -8 19 -6 35 3 44 15 12 15 -14 0 -28 -4 -31 -9z"/>
<path d="M320 1290 c-14 -4 -57 -8 -97 -9 -82 -1 -103 -7 -103 -28 0 -13 12
-15 83 -9 45 4 105 9 132 11 79 6 159 16 164 21 2 2 -26 4 -62 4 -38 0 -67 4
-67 10 0 11 -14 11 -50 0z"/>
<path d="M533 1283 c9 -2 25 -2 35 0 9 3 1 5 -18 5 -19 0 -27 -2 -17 -5z"/>
<path d="M6635 1280 c-16 -7 -17 -9 -3 -9 9 -1 20 4 23 9 7 11 7 11 -20 0z"/>
<path d="M78 1233 c6 -2 18 -2 25 0 6 3 1 5 -13 5 -14 0 -19 -2 -12 -5z"/>
<path d="M217 1177 c-101 -9 -108 -11 -105 -31 3 -19 9 -21 58 -19 85 4 199
33 193 49 -3 8 -13 13 -22 12 -9 -1 -65 -6 -124 -11z"/>
<path d="M1010 1169 c-36 -10 -55 -18 -43 -18 33 -1 123 21 123 31 0 10 2 10
-80 -13z"/>
<path d="M1432 1168 c-8 -18 -11 -19 -11 -5 -1 11 -9 17 -26 17 -18 0 -26 -7
-31 -26 -7 -29 7 -44 44 -44 12 0 22 -5 22 -12 0 -6 7 -4 18 5 10 10 24 17 31
17 7 0 10 10 7 28 -2 15 -5 30 -5 35 -2 17 -39 5 -49 -15z"/>
<path d="M2430 1182 c0 -4 -8 -8 -17 -9 -105 -9 -155 -17 -160 -26 -4 -7 13
-8 52 -3 31 3 91 9 131 13 41 3 74 10 74 16 0 5 -9 7 -20 4 -11 -3 -23 -1 -26
4 -6 11 -34 12 -34 1z"/>
<path d="M6285 1160 c-8 -13 4 -32 16 -25 12 8 12 35 0 35 -6 0 -13 -4 -16
-10z"/>
<path d="M2670 1144 c-8 -1 -60 -6 -114 -9 -57 -4 -93 -11 -86 -15 7 -5 27 -6
44 -4 17 2 70 6 119 10 48 3 87 10 87 15 0 9 -19 10 -50 3z"/>
<path d="M389 1079 c19 -6 37 -7 42 -2 5 5 -9 10 -33 10 l-43 2 34 -10z"/>
<path d="M1701 1081 c-10 -6 -10 -10 -1 -16 13 -8 24 -1 19 14 -3 6 -10 7 -18
2z"/>
<path d="M248 1063 c7 -3 16 -2 19 1 4 3 -2 6 -13 5 -11 0 -14 -3 -6 -6z"/>
<path d="M1385 1051 c-19 -4 -31 -13 -33 -25 -3 -16 1 -18 35 -12 79 14 93 18
93 28 0 6 -14 8 -36 3 -24 -4 -34 -3 -29 4 3 6 5 10 3 10 -2 -1 -16 -4 -33 -8z"/>
<path d="M1662 1048 c-4 -3 -59 -14 -122 -23 -63 -9 -135 -20 -159 -23 -24 -4
-46 -12 -48 -18 -4 -12 89 -3 162 16 22 5 63 11 91 13 28 2 56 7 63 12 8 4 16
3 20 -4 6 -8 17 -7 44 4 20 8 49 15 64 15 15 0 35 5 43 10 10 7 -10 9 -68 8
-46 -2 -86 -6 -90 -10z"/>
<path d="M1233 978 c-40 -9 -64 -30 -25 -23 9 2 38 7 65 10 26 3 47 10 47 16
0 11 -30 10 -87 -3z"/>
<path d="M408 793 c6 -2 18 -2 25 0 6 3 1 5 -13 5 -14 0 -19 -2 -12 -5z"/>
<path d="M3906 714 c-5 -14 -4 -15 9 -4 17 14 19 20 6 20 -5 0 -12 -7 -15 -16z"/>
<path d="M5454 589 c-5 -8 -3 -9 6 -4 7 4 16 2 22 -6 8 -12 9 -12 6 0 -6 20
-24 25 -34 10z"/>
<path d="M5065 370 c-3 -5 -1 -10 4 -10 6 0 11 -4 11 -10 0 -5 -13 -7 -32 -3
-22 4 -29 3 -24 -5 4 -7 16 -12 26 -12 22 0 36 -18 32 -41 -3 -15 36 -32 98
-42 14 -3 33 -8 44 -12 13 -6 17 -4 14 5 -2 7 -34 22 -71 33 -37 11 -67 24
-67 28 0 12 25 11 55 -3 35 -16 59 5 29 27 -10 8 -25 12 -31 10 -7 -3 -20 -8
-28 -11 -11 -5 -19 3 -28 25 -12 32 -21 38 -32 21z"/>
<path d="M5218 363 c7 -3 16 -2 19 1 4 3 -2 6 -13 5 -11 0 -14 -3 -6 -6z"/>
</g>
</svg>
