<svg id="visual" viewBox="0 0 960 150" width="960" height="150" xmlns="http://www.w3.org/2000/svg" xmlns:xlink="http://www.w3.org/1999/xlink" version="1.1"><rect x="0" y="0" width="960" height="150" fill="#f9f8f4"></rect><path d="M0 110L137 99L274 97L411 101L549 97L686 106L823 103L960 102L960 151L823 151L686 151L549 151L411 151L274 151L137 151L0 151Z" fill="#cccccc"></path><path d="M0 105L137 98L274 119L411 106L549 102L686 99L823 103L960 101L960 151L823 151L686 151L549 151L411 151L274 151L137 151L0 151Z" fill="#d7d7d6"></path><path d="M0 109L137 125L274 115L411 115L549 127L686 124L823 115L960 127L960 151L823 151L686 151L549 151L411 151L274 151L137 151L0 151Z" fill="#e2e2e0"></path><path d="M0 129L137 122L274 124L411 135L549 123L686 135L823 124L960 127L960 151L823 151L686 151L549 151L411 151L274 151L137 151L0 151Z" fill="#ededea"></path><path d="M0 142L137 132L274 140L411 132L549 138L686 133L823 138L960 135L960 151L823 151L686 151L549 151L411 151L274 151L137 151L0 151Z" fill="#f9f8f4"></path></svg>