<svg id="visual" viewBox="0 0 960 540" width="960" height="540" xmlns="http://www.w3.org/2000/svg" xmlns:xlink="http://www.w3.org/1999/xlink" version="1.1"><path d="M0 163L13.3 161.2C26.7 159.3 53.3 155.7 80 151.2C106.7 146.7 133.3 141.3 160 125.2C186.7 109 213.3 82 240 100C266.7 118 293.3 181 320 219.7C346.7 258.3 373.3 272.7 400 250.2C426.7 227.7 453.3 168.3 480 161.2C506.7 154 533.3 199 560 208C586.7 217 613.3 190 640 194.5C666.7 199 693.3 235 720 214.3C746.7 193.7 773.3 116.3 800 82.2C826.7 48 853.3 57 880 67.8C906.7 78.7 933.3 91.3 946.7 97.7L960 104L960 0L946.7 0C933.3 0 906.7 0 880 0C853.3 0 826.7 0 800 0C773.3 0 746.7 0 720 0C693.3 0 666.7 0 640 0C613.3 0 586.7 0 560 0C533.3 0 506.7 0 480 0C453.3 0 426.7 0 400 0C373.3 0 346.7 0 320 0C293.3 0 266.7 0 240 0C213.3 0 186.7 0 160 0C133.3 0 106.7 0 80 0C53.3 0 26.7 0 13.3 0L0 0Z" fill="#f9f8f4"></path><path d="M0 222L13.3 215.8C26.7 209.7 53.3 197.3 80 186.7C106.7 176 133.3 167 160 155.2C186.7 143.3 213.3 128.7 240 149.3C266.7 170 293.3 226 320 259.3C346.7 292.7 373.3 303.3 400 282.7C426.7 262 453.3 210 480 203.7C506.7 197.3 533.3 236.7 560 247.3C586.7 258 613.3 240 640 248.2C666.7 256.3 693.3 290.7 720 266.5C746.7 242.3 773.3 159.7 800 119.2C826.7 78.7 853.3 80.3 880 90.2C906.7 100 933.3 118 946.7 127L960 136L960 102L946.7 95.7C933.3 89.3 906.7 76.7 880 65.8C853.3 55 826.7 46 800 80.2C773.3 114.3 746.7 191.7 720 212.3C693.3 233 666.7 197 640 192.5C613.3 188 586.7 215 560 206C533.3 197 506.7 152 480 159.2C453.3 166.3 426.7 225.7 400 248.2C373.3 270.7 346.7 256.3 320 217.7C293.3 179 266.7 116 240 98C213.3 80 186.7 107 160 123.2C133.3 139.3 106.7 144.7 80 149.2C53.3 153.7 26.7 157.3 13.3 159.2L0 161Z" fill="#eff7f1"></path><path d="M0 255L13.3 246.8C26.7 238.7 53.3 222.3 80 219.7C106.7 217 133.3 228 160 226.2C186.7 224.3 213.3 209.7 240 232.2C266.7 254.7 293.3 314.3 320 344.2C346.7 374 373.3 374 400 342.5C426.7 311 453.3 248 480 245.2C506.7 242.3 533.3 299.7 560 319.3C586.7 339 613.3 321 640 319.3C666.7 317.7 693.3 332.3 720 303.7C746.7 275 773.3 203 800 167C826.7 131 853.3 131 880 134.5C906.7 138 933.3 145 946.7 148.5L960 152L960 134L946.7 125C933.3 116 906.7 98 880 88.2C853.3 78.3 826.7 76.7 800 117.2C773.3 157.7 746.7 240.3 720 264.5C693.3 288.7 666.7 254.3 640 246.2C613.3 238 586.7 256 560 245.3C533.3 234.7 506.7 195.3 480 201.7C453.3 208 426.7 260 400 280.7C373.3 301.3 346.7 290.7 320 257.3C293.3 224 266.7 168 240 147.3C213.3 126.7 186.7 141.3 160 153.2C133.3 165 106.7 174 80 184.7C53.3 195.3 26.7 207.7 13.3 213.8L0 220Z" fill="#e3f6f6"></path><path d="M0 266L13.3 266C26.7 266 53.3 266 80 267.7C106.7 269.3 133.3 272.7 160 272.7C186.7 272.7 213.3 269.3 240 287.3C266.7 305.3 293.3 344.7 320 369.8C346.7 395 373.3 406 400 378.2C426.7 350.3 453.3 283.7 480 276.5C506.7 269.3 533.3 321.7 560 340.5C586.7 359.3 613.3 344.7 640 346.3C666.7 348 693.3 366 720 341.8C746.7 317.7 773.3 251.3 800 219C826.7 186.7 853.3 188.3 880 189.2C906.7 190 933.3 190 946.7 190L960 190L960 150L946.7 146.5C933.3 143 906.7 136 880 132.5C853.3 129 826.7 129 800 165C773.3 201 746.7 273 720 301.7C693.3 330.3 666.7 315.7 640 317.3C613.3 319 586.7 337 560 317.3C533.3 297.7 506.7 240.3 480 243.2C453.3 246 426.7 309 400 340.5C373.3 372 346.7 372 320 342.2C293.3 312.3 266.7 252.7 240 230.2C213.3 207.7 186.7 222.3 160 224.2C133.3 226 106.7 215 80 217.7C53.3 220.3 26.7 236.7 13.3 244.8L0 253Z" fill="#dff3fe"></path><path d="M0 320L13.3 332.5C26.7 345 53.3 370 80 384.3C106.7 398.7 133.3 402.3 160 391.5C186.7 380.7 213.3 355.3 240 368.8C266.7 382.3 293.3 434.7 320 458.2C346.7 481.7 373.3 476.3 400 436.7C426.7 397 453.3 323 480 321.2C506.7 319.3 533.3 389.7 560 418.5C586.7 447.3 613.3 434.7 640 426.5C666.7 418.3 693.3 414.7 720 383.2C746.7 351.7 773.3 292.3 800 275.3C826.7 258.3 853.3 283.7 880 283.7C906.7 283.7 933.3 258.3 946.7 245.7L960 233L960 188L946.7 188C933.3 188 906.7 188 880 187.2C853.3 186.3 826.7 184.7 800 217C773.3 249.3 746.7 315.7 720 339.8C693.3 364 666.7 346 640 344.3C613.3 342.7 586.7 357.3 560 338.5C533.3 319.7 506.7 267.3 480 274.5C453.3 281.7 426.7 348.3 400 376.2C373.3 404 346.7 393 320 367.8C293.3 342.7 266.7 303.3 240 285.3C213.3 267.3 186.7 270.7 160 270.7C133.3 270.7 106.7 267.3 80 265.7C53.3 264 26.7 264 13.3 264L0 264Z" fill="#dff3fe"></path><path d="M0 422L13.3 422C26.7 422 53.3 422 80 431C106.7 440 133.3 458 160 459C186.7 460 213.3 444 240 449.5C266.7 455 293.3 482 320 493.7C346.7 505.3 373.3 501.7 400 496.2C426.7 490.7 453.3 483.3 480 481.5C506.7 479.7 533.3 483.3 560 478C586.7 472.7 613.3 458.3 640 455.7C666.7 453 693.3 462 720 459.3C746.7 456.7 773.3 442.3 800 439.7C826.7 437 853.3 446 880 443.2C906.7 440.3 933.3 425.7 946.7 418.3L960 411L960 231L946.7 243.7C933.3 256.3 906.7 281.7 880 281.7C853.3 281.7 826.7 256.3 800 273.3C773.3 290.3 746.7 349.7 720 381.2C693.3 412.7 666.7 416.3 640 424.5C613.3 432.7 586.7 445.3 560 416.5C533.3 387.7 506.7 317.3 480 319.2C453.3 321 426.7 395 400 434.7C373.3 474.3 346.7 479.7 320 456.2C293.3 432.7 266.7 380.3 240 366.8C213.3 353.3 186.7 378.7 160 389.5C133.3 400.3 106.7 396.7 80 382.3C53.3 368 26.7 343 13.3 330.5L0 318Z" fill="#e3f6f6"></path><path d="M0 487L13.3 482.5C26.7 478 53.3 469 80 477.2C106.7 485.3 133.3 510.7 160 515.2C186.7 519.7 213.3 503.3 240 502.3C266.7 501.3 293.3 515.7 320 521C346.7 526.3 373.3 522.7 400 523.7C426.7 524.7 453.3 530.3 480 527.7C506.7 525 533.3 514 560 504C586.7 494 613.3 485 640 481.5C666.7 478 693.3 480 720 480C746.7 480 773.3 478 800 479.7C826.7 481.3 853.3 486.7 880 484C906.7 481.3 933.3 470.7 946.7 465.3L960 460L960 409L946.7 416.3C933.3 423.7 906.7 438.3 880 441.2C853.3 444 826.7 435 800 437.7C773.3 440.3 746.7 454.7 720 457.3C693.3 460 666.7 451 640 453.7C613.3 456.3 586.7 470.7 560 476C533.3 481.3 506.7 477.7 480 479.5C453.3 481.3 426.7 488.7 400 494.2C373.3 499.7 346.7 503.3 320 491.7C293.3 480 266.7 453 240 447.5C213.3 442 186.7 458 160 457C133.3 456 106.7 438 80 429C53.3 420 26.7 420 13.3 420L0 420Z" fill="#eff7f1"></path><path d="M0 541L13.3 541C26.7 541 53.3 541 80 541C106.7 541 133.3 541 160 541C186.7 541 213.3 541 240 541C266.7 541 293.3 541 320 541C346.7 541 373.3 541 400 541C426.7 541 453.3 541 480 541C506.7 541 533.3 541 560 541C586.7 541 613.3 541 640 541C666.7 541 693.3 541 720 541C746.7 541 773.3 541 800 541C826.7 541 853.3 541 880 541C906.7 541 933.3 541 946.7 541L960 541L960 458L946.7 463.3C933.3 468.7 906.7 479.3 880 482C853.3 484.7 826.7 479.3 800 477.7C773.3 476 746.7 478 720 478C693.3 478 666.7 476 640 479.5C613.3 483 586.7 492 560 502C533.3 512 506.7 523 480 525.7C453.3 528.3 426.7 522.7 400 521.7C373.3 520.7 346.7 524.3 320 519C293.3 513.7 266.7 499.3 240 500.3C213.3 501.3 186.7 517.7 160 513.2C133.3 508.7 106.7 483.3 80 475.2C53.3 467 26.7 476 13.3 480.5L0 485Z" fill="#f9f8f4"></path></svg>