<svg id="visual" viewBox="0 0 1800 150" width="1800" height="150" xmlns="http://www.w3.org/2000/svg" xmlns:xlink="http://www.w3.org/1999/xlink" version="1.1"><path d="M0 21L18.8 21.2C37.7 21.3 75.3 21.7 112.8 24.7C150.3 27.7 187.7 33.3 225.2 33.2C262.7 33 300.3 27 337.8 24.7C375.3 22.3 412.7 23.7 450.2 25.2C487.7 26.7 525.3 28.3 562.8 31.7C600.3 35 637.7 40 675.2 41C712.7 42 750.3 39 787.8 39.5C825.3 40 862.7 44 900.2 42C937.7 40 975.3 32 1012.8 30C1050.3 28 1087.7 32 1125.2 33.5C1162.7 35 1200.3 34 1237.8 37.2C1275.3 40.3 1312.7 47.7 1350.2 50.8C1387.7 54 1425.3 53 1462.8 47C1500.3 41 1537.7 30 1575.2 28.8C1612.7 27.7 1650.3 36.3 1687.8 36.3C1725.3 36.3 1762.7 27.7 1781.3 23.3L1800 19L1800 0L1781.3 0C1762.7 0 1725.3 0 1687.8 0C1650.3 0 1612.7 0 1575.2 0C1537.7 0 1500.3 0 1462.8 0C1425.3 0 1387.7 0 1350.2 0C1312.7 0 1275.3 0 1237.8 0C1200.3 0 1162.7 0 1125.2 0C1087.7 0 1050.3 0 1012.8 0C975.3 0 937.7 0 900.2 0C862.7 0 825.3 0 787.8 0C750.3 0 712.7 0 675.2 0C637.7 0 600.3 0 562.8 0C525.3 0 487.7 0 450.2 0C412.7 0 375.3 0 337.8 0C300.3 0 262.7 0 225.2 0C187.7 0 150.3 0 112.8 0C75.3 0 37.7 0 18.8 0L0 0Z" fill="#f9f8f4"></path><path d="M0 43L18.8 42.8C37.7 42.7 75.3 42.3 112.8 45.3C150.3 48.3 187.7 54.7 225.2 54.7C262.7 54.7 300.3 48.3 337.8 46.7C375.3 45 412.7 48 450.2 48.7C487.7 49.3 525.3 47.7 562.8 50.3C600.3 53 637.7 60 675.2 61.3C712.7 62.7 750.3 58.3 787.8 59.8C825.3 61.3 862.7 68.7 900.2 67.2C937.7 65.7 975.3 55.3 1012.8 54.2C1050.3 53 1087.7 61 1125.2 62.5C1162.7 64 1200.3 59 1237.8 58.7C1275.3 58.3 1312.7 62.7 1350.2 64.8C1387.7 67 1425.3 67 1462.8 63C1500.3 59 1537.7 51 1575.2 49C1612.7 47 1650.3 51 1687.8 52.5C1725.3 54 1762.7 53 1781.3 52.5L1800 52L1800 17L1781.3 21.3C1762.7 25.7 1725.3 34.3 1687.8 34.3C1650.3 34.3 1612.7 25.7 1575.2 26.8C1537.7 28 1500.3 39 1462.8 45C1425.3 51 1387.7 52 1350.2 48.8C1312.7 45.7 1275.3 38.3 1237.8 35.2C1200.3 32 1162.7 33 1125.2 31.5C1087.7 30 1050.3 26 1012.8 28C975.3 30 937.7 38 900.2 40C862.7 42 825.3 38 787.8 37.5C750.3 37 712.7 40 675.2 39C637.7 38 600.3 33 562.8 29.7C525.3 26.3 487.7 24.7 450.2 23.2C412.7 21.7 375.3 20.3 337.8 22.7C300.3 25 262.7 31 225.2 31.2C187.7 31.3 150.3 25.7 112.8 22.7C75.3 19.7 37.7 19.3 18.8 19.2L0 19Z" fill="#d5e1d9"></path><path d="M0 60L18.8 58C37.7 56 75.3 52 112.8 55C150.3 58 187.7 68 225.2 68.7C262.7 69.3 300.3 60.7 337.8 57.3C375.3 54 412.7 56 450.2 57.5C487.7 59 525.3 60 562.8 62.5C600.3 65 637.7 69 675.2 69.8C712.7 70.7 750.3 68.3 787.8 70.3C825.3 72.3 862.7 78.7 900.2 78C937.7 77.3 975.3 69.7 1012.8 68.2C1050.3 66.7 1087.7 71.3 1125.2 72C1162.7 72.7 1200.3 69.3 1237.8 70.3C1275.3 71.3 1312.7 76.7 1350.2 79.7C1387.7 82.7 1425.3 83.3 1462.8 78.8C1500.3 74.3 1537.7 64.7 1575.2 62.3C1612.7 60 1650.3 65 1687.8 66C1725.3 67 1762.7 64 1781.3 62.5L1800 61L1800 50L1781.3 50.5C1762.7 51 1725.3 52 1687.8 50.5C1650.3 49 1612.7 45 1575.2 47C1537.7 49 1500.3 57 1462.8 61C1425.3 65 1387.7 65 1350.2 62.8C1312.7 60.7 1275.3 56.3 1237.8 56.7C1200.3 57 1162.7 62 1125.2 60.5C1087.7 59 1050.3 51 1012.8 52.2C975.3 53.3 937.7 63.7 900.2 65.2C862.7 66.7 825.3 59.3 787.8 57.8C750.3 56.3 712.7 60.7 675.2 59.3C637.7 58 600.3 51 562.8 48.3C525.3 45.7 487.7 47.3 450.2 46.7C412.7 46 375.3 43 337.8 44.7C300.3 46.3 262.7 52.7 225.2 52.7C187.7 52.7 150.3 46.3 112.8 43.3C75.3 40.3 37.7 40.7 18.8 40.8L0 41Z" fill="#adcacd"></path><path d="M0 69L18.8 67C37.7 65 75.3 61 112.8 64.5C150.3 68 187.7 79 225.2 79.8C262.7 80.7 300.3 71.3 337.8 67.5C375.3 63.7 412.7 65.3 450.2 67.2C487.7 69 525.3 71 562.8 73C600.3 75 637.7 77 675.2 77C712.7 77 750.3 75 787.8 76.8C825.3 78.7 862.7 84.3 900.2 83.7C937.7 83 975.3 76 1012.8 75.2C1050.3 74.3 1087.7 79.7 1125.2 79.8C1162.7 80 1200.3 75 1237.8 75.2C1275.3 75.3 1312.7 80.7 1350.2 84C1387.7 87.3 1425.3 88.7 1462.8 85.5C1500.3 82.3 1537.7 74.7 1575.2 73.3C1612.7 72 1650.3 77 1687.8 77.8C1725.3 78.7 1762.7 75.3 1781.3 73.7L1800 72L1800 59L1781.3 60.5C1762.7 62 1725.3 65 1687.8 64C1650.3 63 1612.7 58 1575.2 60.3C1537.7 62.7 1500.3 72.3 1462.8 76.8C1425.3 81.3 1387.7 80.7 1350.2 77.7C1312.7 74.7 1275.3 69.3 1237.8 68.3C1200.3 67.3 1162.7 70.7 1125.2 70C1087.7 69.3 1050.3 64.7 1012.8 66.2C975.3 67.7 937.7 75.3 900.2 76C862.7 76.7 825.3 70.3 787.8 68.3C750.3 66.3 712.7 68.7 675.2 67.8C637.7 67 600.3 63 562.8 60.5C525.3 58 487.7 57 450.2 55.5C412.7 54 375.3 52 337.8 55.3C300.3 58.7 262.7 67.3 225.2 66.7C187.7 66 150.3 56 112.8 53C75.3 50 37.7 54 18.8 56L0 58Z" fill="#9aaec5"></path><path d="M0 75L18.8 73.2C37.7 71.3 75.3 67.7 112.8 71.8C150.3 76 187.7 88 225.2 89C262.7 90 300.3 80 337.8 76.8C375.3 73.7 412.7 77.3 450.2 79.7C487.7 82 525.3 83 562.8 84.5C600.3 86 637.7 88 675.2 88.2C712.7 88.3 750.3 86.7 787.8 88.2C825.3 89.7 862.7 94.3 900.2 92.8C937.7 91.3 975.3 83.7 1012.8 82.2C1050.3 80.7 1087.7 85.3 1125.2 85.2C1162.7 85 1200.3 80 1237.8 81.5C1275.3 83 1312.7 91 1350.2 94.5C1387.7 98 1425.3 97 1462.8 93.2C1500.3 89.3 1537.7 82.7 1575.2 81C1612.7 79.3 1650.3 82.7 1687.8 82.7C1725.3 82.7 1762.7 79.3 1781.3 77.7L1800 76L1800 70L1781.3 71.7C1762.7 73.3 1725.3 76.7 1687.8 75.8C1650.3 75 1612.7 70 1575.2 71.3C1537.7 72.7 1500.3 80.3 1462.8 83.5C1425.3 86.7 1387.7 85.3 1350.2 82C1312.7 78.7 1275.3 73.3 1237.8 73.2C1200.3 73 1162.7 78 1125.2 77.8C1087.7 77.7 1050.3 72.3 1012.8 73.2C975.3 74 937.7 81 900.2 81.7C862.7 82.3 825.3 76.7 787.8 74.8C750.3 73 712.7 75 675.2 75C637.7 75 600.3 73 562.8 71C525.3 69 487.7 67 450.2 65.2C412.7 63.3 375.3 61.7 337.8 65.5C300.3 69.3 262.7 78.7 225.2 77.8C187.7 77 150.3 66 112.8 62.5C75.3 59 37.7 63 18.8 65L0 67Z" fill="#9aa8c2"></path><path d="M0 91L18.8 88.5C37.7 86 75.3 81 112.8 84.3C150.3 87.7 187.7 99.3 225.2 101C262.7 102.7 300.3 94.3 337.8 91.5C375.3 88.7 412.7 91.3 450.2 93C487.7 94.7 525.3 95.3 562.8 97C600.3 98.7 637.7 101.3 675.2 102.3C712.7 103.3 750.3 102.7 787.8 105.3C825.3 108 862.7 114 900.2 110.7C937.7 107.3 975.3 94.7 1012.8 91.7C1050.3 88.7 1087.7 95.3 1125.2 96.8C1162.7 98.3 1200.3 94.7 1237.8 96.7C1275.3 98.7 1312.7 106.3 1350.2 108.2C1387.7 110 1425.3 106 1462.8 102.7C1500.3 99.3 1537.7 96.7 1575.2 96.3C1612.7 96 1650.3 98 1687.8 98.5C1725.3 99 1762.7 98 1781.3 97.5L1800 97L1800 74L1781.3 75.7C1762.7 77.3 1725.3 80.7 1687.8 80.7C1650.3 80.7 1612.7 77.3 1575.2 79C1537.7 80.7 1500.3 87.3 1462.8 91.2C1425.3 95 1387.7 96 1350.2 92.5C1312.7 89 1275.3 81 1237.8 79.5C1200.3 78 1162.7 83 1125.2 83.2C1087.7 83.3 1050.3 78.7 1012.8 80.2C975.3 81.7 937.7 89.3 900.2 90.8C862.7 92.3 825.3 87.7 787.8 86.2C750.3 84.7 712.7 86.3 675.2 86.2C637.7 86 600.3 84 562.8 82.5C525.3 81 487.7 80 450.2 77.7C412.7 75.3 375.3 71.7 337.8 74.8C300.3 78 262.7 88 225.2 87C187.7 86 150.3 74 112.8 69.8C75.3 65.7 37.7 69.3 18.8 71.2L0 73Z" fill="#9aaec5"></path><path d="M0 103L18.8 100C37.7 97 75.3 91 112.8 93.3C150.3 95.7 187.7 106.3 225.2 108.2C262.7 110 300.3 103 337.8 101.5C375.3 100 412.7 104 450.2 105.7C487.7 107.3 525.3 106.7 562.8 107.8C600.3 109 637.7 112 675.2 113.5C712.7 115 750.3 115 787.8 117C825.3 119 862.7 123 900.2 118.2C937.7 113.3 975.3 99.7 1012.8 96.2C1050.3 92.7 1087.7 99.3 1125.2 102C1162.7 104.7 1200.3 103.3 1237.8 105.3C1275.3 107.3 1312.7 112.7 1350.2 113.8C1387.7 115 1425.3 112 1462.8 109.3C1500.3 106.7 1537.7 104.3 1575.2 104.3C1612.7 104.3 1650.3 106.7 1687.8 106.7C1725.3 106.7 1762.7 104.3 1781.3 103.2L1800 102L1800 95L1781.3 95.5C1762.7 96 1725.3 97 1687.8 96.5C1650.3 96 1612.7 94 1575.2 94.3C1537.7 94.7 1500.3 97.3 1462.8 100.7C1425.3 104 1387.7 108 1350.2 106.2C1312.7 104.3 1275.3 96.7 1237.8 94.7C1200.3 92.7 1162.7 96.3 1125.2 94.8C1087.7 93.3 1050.3 86.7 1012.8 89.7C975.3 92.7 937.7 105.3 900.2 108.7C862.7 112 825.3 106 787.8 103.3C750.3 100.7 712.7 101.3 675.2 100.3C637.7 99.3 600.3 96.7 562.8 95C525.3 93.3 487.7 92.7 450.2 91C412.7 89.3 375.3 86.7 337.8 89.5C300.3 92.3 262.7 100.7 225.2 99C187.7 97.3 150.3 85.7 112.8 82.3C75.3 79 37.7 84 18.8 86.5L0 89Z" fill="#adcacd"></path><path d="M0 115L18.8 112.5C37.7 110 75.3 105 112.8 107C150.3 109 187.7 118 225.2 121C262.7 124 300.3 121 337.8 120C375.3 119 412.7 120 450.2 121.5C487.7 123 525.3 125 562.8 127.8C600.3 130.7 637.7 134.3 675.2 133.7C712.7 133 750.3 128 787.8 127.7C825.3 127.3 862.7 131.7 900.2 128.5C937.7 125.3 975.3 114.7 1012.8 112.7C1050.3 110.7 1087.7 117.3 1125.2 119C1162.7 120.7 1200.3 117.3 1237.8 118.7C1275.3 120 1312.7 126 1350.2 127.5C1387.7 129 1425.3 126 1462.8 122.2C1500.3 118.3 1537.7 113.7 1575.2 113.7C1612.7 113.7 1650.3 118.3 1687.8 118.3C1725.3 118.3 1762.7 113.7 1781.3 111.3L1800 109L1800 100L1781.3 101.2C1762.7 102.3 1725.3 104.7 1687.8 104.7C1650.3 104.7 1612.7 102.3 1575.2 102.3C1537.7 102.3 1500.3 104.7 1462.8 107.3C1425.3 110 1387.7 113 1350.2 111.8C1312.7 110.7 1275.3 105.3 1237.8 103.3C1200.3 101.3 1162.7 102.7 1125.2 100C1087.7 97.3 1050.3 90.7 1012.8 94.2C975.3 97.7 937.7 111.3 900.2 116.2C862.7 121 825.3 117 787.8 115C750.3 113 712.7 113 675.2 111.5C637.7 110 600.3 107 562.8 105.8C525.3 104.7 487.7 105.3 450.2 103.7C412.7 102 375.3 98 337.8 99.5C300.3 101 262.7 108 225.2 106.2C187.7 104.3 150.3 93.7 112.8 91.3C75.3 89 37.7 95 18.8 98L0 101Z" fill="#d5e1d9"></path><path d="M0 151L18.8 151C37.7 151 75.3 151 112.8 151C150.3 151 187.7 151 225.2 151C262.7 151 300.3 151 337.8 151C375.3 151 412.7 151 450.2 151C487.7 151 525.3 151 562.8 151C600.3 151 637.7 151 675.2 151C712.7 151 750.3 151 787.8 151C825.3 151 862.7 151 900.2 151C937.7 151 975.3 151 1012.8 151C1050.3 151 1087.7 151 1125.2 151C1162.7 151 1200.3 151 1237.8 151C1275.3 151 1312.7 151 1350.2 151C1387.7 151 1425.3 151 1462.8 151C1500.3 151 1537.7 151 1575.2 151C1612.7 151 1650.3 151 1687.8 151C1725.3 151 1762.7 151 1781.3 151L1800 151L1800 107L1781.3 109.3C1762.7 111.7 1725.3 116.3 1687.8 116.3C1650.3 116.3 1612.7 111.7 1575.2 111.7C1537.7 111.7 1500.3 116.3 1462.8 120.2C1425.3 124 1387.7 127 1350.2 125.5C1312.7 124 1275.3 118 1237.8 116.7C1200.3 115.3 1162.7 118.7 1125.2 117C1087.7 115.3 1050.3 108.7 1012.8 110.7C975.3 112.7 937.7 123.3 900.2 126.5C862.7 129.7 825.3 125.3 787.8 125.7C750.3 126 712.7 131 675.2 131.7C637.7 132.3 600.3 128.7 562.8 125.8C525.3 123 487.7 121 450.2 119.5C412.7 118 375.3 117 337.8 118C300.3 119 262.7 122 225.2 119C187.7 116 150.3 107 112.8 105C75.3 103 37.7 108 18.8 110.5L0 113Z" fill="#f9f8f4"></path></svg>