<svg width="656" height="568" xmlns="http://www.w3.org/2000/svg">

 <g>
  <title>Layer 1</title>
  <metadata>Created by potrace 1.16, written by Peter Selinger 2001-2019</metadata>
  <g transform="rotate(4.36459 317.142 308.837)" stroke="null" id="svg_119">
   <g stroke="null" id="svg_4" fill="#000000" transform="translate(0 882) scale(0.1 -0.1)">
    <path fill="#000000" stroke="null" id="svg_5" d="m6205.6155,8991.57345c-23.79281,-31.418 -55.51656,-72.71023 -69.616,-92.45869c-14.09944,-19.74846 -37.89225,-48.47349 -52.87291,-63.73366c-14.09944,-16.15783 -42.29833,-51.16646 -61.68507,-79.89149c-19.38673,-27.82737 -42.29833,-54.75709 -50.22927,-59.24537c-8.81215,-4.48829 -25.55524,-30.52034 -38.77347,-57.45006c-12.33701,-26.92971 -26.43646,-49.37114 -30.84253,-49.37114c-11.4558,0 -9.69337,8.07891 10.57458,41.29223c14.09944,24.23674 14.98066,29.62269 4.40608,25.1344c-15.86187,-6.2836 -19.38673,9.87423 -4.40608,19.74846c5.28729,2.69297 7.04972,15.26017 4.40608,26.92971c-6.16851,22.44143 4.40608,51.16646 37.01104,105.02589c11.4558,19.74846 19.38673,36.80394 16.74309,38.59926c-1.76243,1.79531 -37.89225,-36.80394 -80.19058,-86.17509c-41.41712,-49.37114 -80.19058,-89.76572 -84.59666,-89.76572c-4.40608,0 -16.74309,-16.15783 -26.43646,-35.90629c-14.09944,-27.82737 -22.9116,-35.90629 -41.41712,-35.90629c-22.03038,0 -22.9116,0.89766 -16.74309,48.47349c5.28729,50.2688 -4.40608,70.91492 -23.79281,51.16646c-14.98066,-15.26017 -23.79281,-11.66954 -23.79281,8.97657c0,27.82737 -19.38673,16.15783 -37.89225,-22.44143c-11.4558,-25.1344 -19.38673,-32.31566 -31.72375,-27.82737c-11.4558,3.59063 -22.03038,-3.59063 -37.01104,-26.92971c-11.4558,-17.05549 -26.43646,-31.418 -32.60496,-31.418c-15.86187,0 -48.46684,19.74846 -61.68507,38.59926c-17.6243,23.33909 -44.94198,18.8508 -55.51656,-8.97657c-4.40608,-13.46486 -16.74309,-29.62269 -26.43646,-36.80394c-8.81215,-6.2836 -24.67403,-26.92971 -34.36739,-45.78051c-8.81215,-18.8508 -26.43646,-40.39457 -38.77347,-48.47349l-22.03038,-15.26017l13.21823,25.1344c17.6243,35.90629 14.98066,43.08754 -7.93094,21.54377c-27.31767,-26.92971 -37.89225,-25.1344 -20.26795,3.59063c8.81215,12.5672 14.09944,28.72503 12.33701,36.80394c-1.76243,8.97657 -29.96132,-20.64611 -77.54694,-81.6868c-41.41712,-52.96177 -82.83423,-105.92354 -92.5276,-116.69543c-30.84253,-35.90629 -101.33975,-88.86806 -108.38947,-82.58446c-3.52486,3.59063 8.81215,18.8508 27.31767,34.11097c33.48618,27.82737 44.06076,49.37114 18.50552,39.49691c-13.21823,-5.38594 -13.21823,-3.59063 -3.52486,9.87423c7.04972,8.97657 -6.16851,-3.59063 -29.0801,-28.72503c-22.03038,-24.23674 -40.5359,-48.47349 -41.41712,-52.06412c0,-9.87423 -147.16294,-158.88532 -156.85631,-158.88532c-13.21823,0 -54.63534,-45.78051 -54.63534,-61.04069c0.88122,-13.46486 2.64365,-13.46486 15.86187,2.69297c7.93094,9.87423 32.60496,27.82737 54.63534,39.49691c21.14917,12.5672 55.51656,39.49691 74.90329,60.14303c37.01104,38.59926 57.27899,42.18989 57.27899,9.87423c0,-20.64611 -187.69884,-212.74475 -208.84801,-212.74475c-10.57458,0 -60.80385,-49.37114 -150.6878,-146.31812c-12.33701,-13.46486 -26.43646,-23.33909 -31.72375,-21.54377c-14.09944,4.48829 -29.96132,-13.46486 -25.55524,-29.62269c4.40608,-17.05549 -33.48618,-54.75709 -38.77347,-38.59926c-3.52486,10.77189 -108.38947,-87.07274 -108.38947,-101.43526c0,-4.48829 -14.09944,-23.33909 -31.72375,-42.18989c-26.43646,-28.72503 -33.48618,-32.31566 -44.94198,-22.44143c-14.09944,11.66954 -14.98066,10.77189 -44.06076,-35.00863c-7.93094,-11.66954 -12.33701,-13.46486 -17.6243,-5.38594c-5.28729,7.18126 -14.09944,0.89766 -28.19889,-19.74846c-10.57458,-17.05549 -29.96132,-36.80394 -41.41712,-44.88286c-11.4558,-7.18126 -21.14917,-20.64611 -21.14917,-29.62269c0,-16.15783 -15.86187,-37.7016 -28.19889,-37.7016c-3.52486,0 -4.40608,6.2836 -1.76243,13.46486c3.52486,7.18126 1.76243,13.46486 -1.76243,13.46486c-10.57458,0 -47.58562,-56.5524 -47.58562,-72.71023c0,-16.15783 -42.29833,-61.04069 -109.27069,-115.79777c-26.43646,-22.44143 -48.46684,-43.9852 -49.34805,-47.57583c0,-4.48829 12.33701,2.69297 27.31767,16.15783c29.0801,24.23674 45.82319,24.23674 25.55524,0c-6.16851,-8.07891 -8.81215,-16.15783 -6.16851,-18.8508c7.04972,-8.07891 81.95301,49.37114 125.13256,95.15166c19.38673,20.64611 46.70441,45.78051 60.80385,55.65474l25.55524,18.8508l-14.98066,-22.44143c-12.33701,-19.74846 -89.88395,-96.04932 -412.40872,-409.33166c-33.48618,-31.418 -59.92263,-64.63132 -59.92263,-73.60789c0,-8.97657 -7.04972,-21.54377 -14.98066,-27.82737c-13.21823,-10.77189 -14.09944,-10.77189 -8.81215,3.59063c5.28729,14.36251 4.40608,15.26017 -12.33701,2.69297c-9.69337,-7.18126 -24.67403,-21.54377 -32.60496,-33.21331c-12.33701,-18.8508 -12.33701,-19.74846 0.88122,-14.36251c22.03038,8.97657 8.81215,-12.5672 -29.96132,-46.67817c-19.38673,-17.05549 -42.29833,-30.52034 -51.11048,-31.418c-22.03038,-0.89766 -89.00274,-64.63132 -89.00274,-83.48212c0,-20.64611 -34.36739,-56.5524 -48.46684,-51.16646c-6.16851,2.69297 -22.9116,-15.26017 -39.65468,-43.08754c-22.9116,-37.7016 -29.96132,-43.9852 -34.36739,-31.418c-5.28729,14.36251 -7.93094,13.46486 -29.0801,-8.97657c-12.33701,-13.46486 -30.84253,-42.18989 -41.41712,-62.836c-12.33701,-26.03206 -24.67403,-38.59926 -36.12982,-38.59926c-10.57458,0 -22.9116,-11.66954 -31.72375,-28.72503c-18.50552,-36.80394 -38.77347,-52.96177 -59.04142,-46.67817c-8.81215,2.69297 -21.14917,0.89766 -27.31767,-4.48829c-6.16851,-5.38594 -24.67403,-7.18126 -42.29833,-4.48829c-24.67403,4.48829 -41.41712,17.05549 -73.14086,53.85943c-22.03038,26.92971 -45.82319,48.47349 -52.87291,48.47349c-7.04972,0 -17.6243,8.07891 -25.55524,18.8508c-17.6243,26.92971 -71.37843,61.93834 -93.40881,61.93834c-27.31767,0 -79.30937,45.78051 -79.30937,70.01726c0,10.77189 -5.28729,19.74846 -11.4558,19.74846c-7.04972,0 -21.14917,9.87423 -32.60496,22.44143c-12.33701,13.46486 -26.43646,20.64611 -34.36739,17.95314c-7.93094,-3.59063 -28.19889,10.77189 -52.87291,35.00863c-22.03038,21.54377 -59.92263,51.16646 -83.71545,65.52897c-32.60496,18.8508 -43.17955,31.418 -45.82319,50.2688c-0.88122,14.36251 1.76243,24.23674 7.93094,24.23674c7.04972,0 6.16851,3.59063 -1.76243,8.07891c-7.04972,4.48829 -17.6243,6.2836 -23.79281,3.59063c-18.50552,-7.18126 -49.34805,15.26017 -44.94198,33.21331c2.64365,10.77189 -3.52486,19.74846 -16.74309,27.82737c-11.4558,6.2836 -21.14917,16.15783 -21.14917,23.33909c0,6.2836 -4.40608,11.66954 -9.69337,11.66954c-17.6243,0 -2.64365,21.54377 19.38673,28.72503c13.21823,3.59063 0,5.38594 -34.36739,4.48829c-57.27899,-1.79531 -74.90329,8.07891 -70.49722,38.59926c3.52486,25.1344 -9.69337,35.90629 -38.77347,29.62269c-19.38673,-3.59063 -25.55524,-2.69297 -21.14917,4.48829c3.52486,6.2836 14.09944,10.77189 23.79281,10.77189c8.81215,0 16.74309,4.48829 16.74309,9.87423c0,7.18126 -14.09944,8.97657 -46.70441,4.48829c-26.43646,-2.69297 -50.22927,-2.69297 -52.87291,0.89766c-5.28729,5.38594 33.48618,47.57583 43.17955,47.57583c7.93094,0 56.39777,48.47349 56.39777,55.65474c0,4.48829 -9.69337,7.18126 -22.03038,7.18126c-17.6243,0 -22.03038,4.48829 -22.03038,22.44143c0,17.95314 8.81215,26.03206 52.87291,46.67817l51.9917,25.1344l-51.9917,1.79531c-43.17955,0.89766 -54.63534,-2.69297 -70.49722,-19.74846c-15.86187,-17.05549 -25.55524,-20.64611 -47.58562,-16.15783c-35.24861,7.18126 -58.1602,38.59926 -27.31767,38.59926c7.04972,0 19.38673,9.87423 26.43646,21.54377c7.93094,11.66954 26.43646,23.33909 41.41712,26.92971c26.43646,5.38594 26.43646,6.2836 11.4558,17.95314c-10.57458,7.18126 -29.0801,10.77189 -50.22927,7.18126c-27.31767,-3.59063 -37.01104,0 -50.22927,15.26017c-9.69337,11.66954 -24.67403,19.74846 -33.48618,18.8508c-39.65468,-4.48829 -64.32871,0.89766 -64.32871,13.46486c0,7.18126 4.40608,13.46486 8.81215,13.46486c5.28729,0 8.81215,6.2836 8.81215,13.46486c0,8.97657 -8.81215,13.46486 -23.79281,13.46486c-14.98066,0 -33.48618,11.66954 -55.51656,35.00863c-17.6243,18.8508 -41.41712,37.7016 -51.9917,41.29223c-10.57458,2.69297 -24.67403,15.26017 -32.60496,26.03206c-7.93094,12.5672 -32.60496,26.92971 -60.80385,36.80394c-42.29833,13.46486 -54.63534,13.46486 -95.17124,3.59063c-24.67403,-6.2836 -63.4475,-11.66954 -85.47788,-11.66954c-31.72375,-0.89766 -38.77347,1.79531 -37.01104,13.46486c2.64365,17.05549 -34.36739,30.52034 -43.17955,16.15783c-7.04972,-12.5672 -38.77347,-2.69297 -73.14086,21.54377c-13.21823,9.87423 -30.84253,18.8508 -39.65468,19.74846c-35.24861,4.48829 -71.37843,16.15783 -71.37843,23.33909c0,4.48829 -8.81215,6.2836 -19.38673,4.48829c-11.4558,-2.69297 -22.03038,-4.48829 -24.67403,-4.48829c-2.64365,-0.89766 1.76243,-5.38594 8.81215,-9.87423c9.69337,-6.2836 10.57458,-10.77189 2.64365,-18.8508c-11.4558,-11.66954 -32.60496,-2.69297 -24.67403,10.77189c3.52486,4.48829 -2.64365,8.07891 -12.33701,8.07891c-10.57458,0 -17.6243,-4.48829 -15.86187,-10.77189c0.88122,-5.38594 -5.28729,-12.5672 -14.98066,-14.36251c-10.57458,-2.69297 -14.09944,0 -9.69337,7.18126c4.40608,7.18126 2.64365,9.87423 -5.28729,7.18126c-16.74309,-5.38594 -19.38673,-26.92971 -12.33701,-94.254c5.28729,-48.47349 8.81215,-58.34772 26.43646,-65.52897c22.9116,-8.97657 57.27899,-50.2688 57.27899,-69.1196c0,-18.8508 -53.75413,11.66954 -59.04142,34.11097c-2.64365,9.87423 -12.33701,17.05549 -22.9116,17.05549c-9.69337,0 -53.75413,22.44143 -97.81489,49.37114c-45.82319,27.82737 -94.29003,51.16646 -113.67676,52.96177l-32.60496,4.48829l22.03038,-29.62269c12.33701,-16.15783 22.03038,-34.11097 22.03038,-40.39457c0,-6.2836 8.81215,-18.8508 20.26795,-28.72503c22.03038,-18.8508 7.04972,-23.33909 -22.9116,-7.18126c-10.57458,6.2836 -30.84253,10.77189 -44.94198,9.87423c-14.98066,0 -29.96132,4.48829 -34.36739,9.87423c-4.40608,6.2836 -4.40608,0.89766 -0.88122,-11.66954c3.52486,-12.5672 9.69337,-25.1344 14.09944,-27.82737c5.28729,-3.59063 5.28729,-8.07891 0.88122,-10.77189c-4.40608,-2.69297 -14.98066,2.69297 -22.9116,11.66954c-7.93094,8.97657 -30.84253,21.54377 -51.9917,26.92971c-21.14917,6.2836 -44.94198,14.36251 -53.75413,18.8508c-9.69337,5.38594 -14.98066,4.48829 -14.98066,-1.79531c0,-6.2836 -8.81215,-8.07891 -22.9116,-4.48829c-13.21823,3.59063 -28.19889,1.79531 -35.24861,-4.48829c-9.69337,-8.07891 -15.86187,-7.18126 -25.55524,0.89766c-22.03038,18.8508 -26.43646,1.79531 -5.28729,-21.54377c14.09944,-14.36251 16.74309,-23.33909 9.69337,-27.82737c-7.04972,-4.48829 -4.40608,-13.46486 9.69337,-27.82737c10.57458,-11.66954 23.79281,-21.54377 27.31767,-21.54377c4.40608,0 14.09944,-6.2836 21.14917,-13.46486c7.93094,-7.18126 22.03038,-13.46486 32.60496,-13.46486c10.57458,0 23.79281,-3.59063 28.19889,-7.18126c11.4558,-8.07891 13.21823,-73.60789 2.64365,-73.60789c-9.69337,0 -51.9917,31.418 -80.19058,59.24537c-10.57458,10.77189 -36.12982,27.82737 -57.27899,38.59926c-20.26795,10.77189 -37.01104,23.33909 -37.01104,27.82737c0,5.38594 -10.57458,8.97657 -23.79281,8.97657c-14.09944,0 -56.39777,18.8508 -95.17124,43.08754c-74.02208,43.9852 -157.73752,81.6868 -224.70988,100.5376c-22.03038,5.38594 -46.70441,14.36251 -54.63534,18.8508c-8.81215,4.48829 -16.74309,4.48829 -20.26795,-0.89766c-2.64365,-5.38594 0.88122,-8.97657 8.81215,-8.97657c8.81215,0 11.4558,-4.48829 7.93094,-10.77189c-4.40608,-7.18126 0,-8.07891 13.21823,-4.48829c16.74309,4.48829 17.6243,2.69297 7.93094,-9.87423c-9.69337,-11.66954 -9.69337,-13.46486 4.40608,-8.07891c7.93094,2.69297 14.98066,1.79531 14.98066,-2.69297c0,-5.38594 5.28729,-8.97657 11.4558,-8.97657c7.04972,0 22.9116,-11.66954 35.24861,-26.92971c13.21823,-14.36251 28.19889,-26.92971 33.48618,-26.92971c6.16851,0 7.93094,-8.07891 5.28729,-18.8508c-4.40608,-15.26017 -1.76243,-17.95314 12.33701,-14.36251c12.33701,3.59063 16.74309,0.89766 14.09944,-6.2836c-2.64365,-7.18126 7.04972,-20.64611 20.26795,-31.418c30.84253,-22.44143 35.24861,-23.33909 35.24861,-5.38594c0,17.05549 7.93094,17.05549 44.94198,-0.89766c50.22927,-23.33909 56.39777,-27.82737 56.39777,-40.39457c0,-7.18126 3.52486,-17.95314 7.04972,-23.33909c4.40608,-7.18126 3.52486,-11.66954 -1.76243,-11.66954c-5.28729,0 -9.69337,2.69297 -9.69337,7.18126c0,8.07891 -43.17955,28.72503 -59.92263,28.72503c-7.93094,0 -9.69337,-6.2836 -6.16851,-18.8508c5.28729,-16.15783 3.52486,-17.95314 -13.21823,-12.5672c-13.21823,4.48829 -17.6243,3.59063 -14.09944,-3.59063c3.52486,-5.38594 12.33701,-9.87423 19.38673,-9.87423c6.16851,0 16.74309,-8.07891 22.9116,-17.95314c6.16851,-9.87423 15.86187,-17.95314 22.03038,-17.95314c7.93094,0 10.57458,-10.77189 9.69337,-28.72503c-2.64365,-26.03206 0,-29.62269 16.74309,-27.82737c13.21823,1.79531 20.26795,-3.59063 22.03038,-17.05549c1.76243,-12.5672 10.57458,-19.74846 24.67403,-22.44143c34.36739,-4.48829 45.82319,-10.77189 39.65468,-20.64611c-3.52486,-6.2836 -23.79281,-7.18126 -55.51656,-3.59063c-27.31767,3.59063 -62.56628,7.18126 -78.42815,7.18126c-15.86187,0.89766 -30.84253,4.48829 -34.36739,8.07891c-3.52486,2.69297 -15.86187,3.59063 -26.43646,0.89766c-29.0801,-7.18126 -65.20993,2.69297 -65.20993,18.8508c0,6.2836 -7.93094,14.36251 -16.74309,17.95314c-9.69337,2.69297 -19.38673,10.77189 -22.03038,17.95314c-2.64365,7.18126 -11.4558,13.46486 -19.38673,13.46486c-13.21823,0 -13.21823,-2.69297 3.52486,-20.64611c25.55524,-27.82737 24.67403,-35.00863 -4.40608,-27.82737c-36.12982,8.97657 -58.1602,30.52034 -45.82319,45.78051c7.93094,8.97657 5.28729,11.66954 -13.21823,11.66954c-21.14917,0 -22.9116,-2.69297 -17.6243,-19.74846c7.93094,-26.92971 34.36739,-49.37114 65.20993,-56.5524c31.72375,-7.18126 60.80385,-47.57583 43.17955,-59.24537c-9.69337,-6.2836 -8.81215,-8.07891 2.64365,-8.07891c7.93094,0 17.6243,4.48829 20.26795,8.97657c9.69337,15.26017 20.26795,9.87423 25.55524,-14.36251c3.52486,-14.36251 10.57458,-21.54377 18.50552,-18.8508c6.16851,2.69297 16.74309,-0.89766 22.03038,-8.07891c6.16851,-7.18126 18.50552,-12.5672 28.19889,-12.5672c9.69337,0 27.31767,-8.07891 39.65468,-17.95314c12.33701,-9.87423 30.84253,-17.95314 41.41712,-17.95314c44.94198,-0.89766 51.9917,-28.72503 9.69337,-37.7016c-14.98066,-3.59063 -13.21823,-5.38594 7.93094,-11.66954c15.86187,-4.48829 31.72375,-3.59063 42.29833,3.59063c18.50552,11.66954 37.01104,4.48829 29.96132,-12.5672c-1.76243,-6.2836 7.93094,-22.44143 22.03038,-36.80394c39.65468,-38.59926 34.36739,-50.2688 -21.14917,-43.9852l-45.82319,5.38594l61.68507,-34.11097c44.06076,-24.23674 62.56628,-39.49691 64.32871,-53.85943c3.52486,-21.54377 15.86187,-27.82737 21.14917,-9.87423c2.64365,7.18126 16.74309,3.59063 43.17955,-10.77189c47.58562,-26.92971 88.12152,-62.836 81.95301,-73.60789c-7.04972,-11.66954 14.09944,-34.11097 31.72375,-34.11097c8.81215,0 17.6243,-6.2836 21.14917,-13.46486c2.64365,-7.18126 11.4558,-12.5672 20.26795,-10.77189c8.81215,0.89766 16.74309,-1.79531 17.6243,-6.2836c0.88122,-4.48829 6.16851,-10.77189 12.33701,-15.26017c6.16851,-3.59063 14.98066,-19.74846 20.26795,-36.80394c6.16851,-19.74846 15.86187,-30.52034 29.0801,-32.31566c10.57458,-1.79531 23.79281,-8.97657 29.0801,-16.15783c6.16851,-7.18126 20.26795,-12.5672 31.72375,-12.5672c23.79281,0 37.01104,-17.05549 21.14917,-26.92971c-8.81215,-5.38594 -6.16851,-9.87423 7.93094,-18.8508c23.79281,-16.15783 23.79281,-27.82737 -0.88122,-24.23674c-45.82319,6.2836 -18.50552,-19.74846 56.39777,-55.65474c50.22927,-23.33909 96.93367,-53.85943 121.6077,-77.19852c22.03038,-21.54377 35.24861,-39.49691 29.96132,-39.49691c-5.28729,0 -16.74309,8.07891 -25.55524,17.95314c-18.50552,21.54377 -35.24861,23.33909 -27.31767,4.48829c6.16851,-17.05549 -12.33701,-17.05549 -35.24861,0c-8.81215,7.18126 -20.26795,13.46486 -25.55524,13.46486c-19.38673,0 35.24861,-29.62269 88.12152,-48.47349c31.72375,-11.66954 68.73479,-31.418 81.95301,-43.9852c14.09944,-13.46486 28.19889,-24.23674 33.48618,-24.23674c4.40608,0 23.79281,-15.26017 42.29833,-33.21331c19.38673,-18.8508 40.5359,-34.11097 47.58562,-35.90629c8.81215,-0.89766 5.28729,6.2836 -9.69337,19.74846c-12.33701,12.5672 -29.96132,34.11097 -37.89225,49.37114c-8.81215,14.36251 -19.38673,26.92971 -23.79281,26.92971c-4.40608,0 -19.38673,8.07891 -32.60496,17.95314c-17.6243,12.5672 -23.79281,23.33909 -20.26795,35.90629c6.16851,25.1344 17.6243,22.44143 68.73479,-13.46486c24.67403,-17.95314 59.04142,-42.18989 77.54694,-54.75709c18.50552,-11.66954 31.72375,-25.1344 29.0801,-28.72503c-4.40608,-7.18126 71.37843,-66.42663 109.27069,-85.27743c12.33701,-6.2836 26.43646,-20.64611 30.84253,-31.418c6.16851,-13.46486 14.09944,-18.8508 24.67403,-16.15783c19.38673,4.48829 42.29833,-17.95314 36.12982,-35.00863c-3.52486,-8.07891 0,-13.46486 6.16851,-13.46486c7.04972,0 25.55524,-12.5672 41.41712,-27.82737c15.86187,-15.26017 31.72375,-26.03206 34.36739,-22.44143c10.57458,9.87423 55.51656,-22.44143 55.51656,-40.39457c0,-11.66954 8.81215,-20.64611 25.55524,-26.92971c15.86187,-5.38594 24.67403,-14.36251 22.03038,-20.64611c-4.40608,-11.66954 55.51656,-55.65474 70.49722,-51.16646c4.40608,0.89766 14.09944,-0.89766 21.14917,-3.59063c10.57458,-3.59063 10.57458,-7.18126 1.76243,-17.95314c-14.98066,-18.8508 -5.28729,-26.03206 30.84253,-25.1344c16.74309,0.89766 33.48618,-2.69297 36.12982,-7.18126c2.64365,-4.48829 8.81215,-5.38594 14.09944,-2.69297c5.28729,3.59063 7.93094,2.69297 5.28729,-1.79531c-2.64365,-4.48829 8.81215,-19.74846 24.67403,-33.21331c22.03038,-18.8508 29.96132,-22.44143 29.96132,-12.5672c0,8.07891 5.28729,15.26017 10.57458,17.05549c13.21823,4.48829 -29.96132,60.14303 -63.4475,81.6868c-12.33701,8.07891 -33.48618,25.1344 -48.46684,37.7016l-26.43646,23.33909l30.84253,-15.26017c16.74309,-8.07891 63.4475,-39.49691 103.10218,-70.01726c69.616,-52.06412 89.00274,-77.19852 59.92263,-77.19852c-7.04972,0 -13.21823,-3.59063 -13.21823,-8.97657c0,-11.66954 14.09944,-11.66954 34.36739,1.79531c14.98066,8.97657 23.79281,4.48829 66.97236,-29.62269c28.19889,-21.54377 59.92263,-44.88286 72.25965,-51.16646c41.41712,-23.33909 38.77347,-31.418 -49.34805,-129.26263c-42.29833,-46.67817 -58.1602,-54.75709 -49.34805,-22.44143c4.40608,17.05549 2.64365,16.15783 -16.74309,-7.18126c-12.33701,-14.36251 -22.9116,-30.52034 -22.9116,-35.00863c0,-4.48829 -14.09944,-23.33909 -30.84253,-43.08754c-17.6243,-18.8508 -29.0801,-39.49691 -25.55524,-44.88286c3.52486,-5.38594 2.64365,-7.18126 -2.64365,-4.48829c-9.69337,6.2836 -137.46957,-113.1048 -155.09388,-143.62514c-6.16851,-10.77189 -47.58562,-60.14303 -92.5276,-111.30949c-55.51656,-62.836 -79.30937,-96.94697 -76.66572,-107.71886c2.64365,-8.97657 -0.88122,-17.05549 -8.81215,-20.64611c-9.69337,-3.59063 -12.33701,-1.79531 -7.93094,6.2836c4.40608,8.07891 3.52486,8.07891 -6.16851,-0.89766c-6.16851,-5.38594 -18.50552,-10.77189 -28.19889,-10.77189c-9.69337,0 -93.40881,-78.09617 -206.20436,-192.99629c-103.9834,-105.92354 -196.51099,-194.7916 -204.44193,-197.48457c-8.81215,-2.69297 -28.19889,-20.64611 -44.06076,-40.39457c-15.86187,-19.74846 -39.65468,-42.18989 -53.75413,-49.37114c-14.09944,-8.07891 -32.60496,-26.03206 -39.65468,-40.39457c-7.93094,-15.26017 -20.26795,-26.92971 -29.0801,-26.92971c-7.93094,0 -22.9116,-14.36251 -32.60496,-33.21331c-9.69337,-17.95314 -29.0801,-39.49691 -43.17955,-47.57583c-14.09944,-7.18126 -31.72375,-23.33909 -39.65468,-35.90629c-13.21823,-20.64611 -13.21823,-20.64611 6.16851,-16.15783c10.57458,2.69297 19.38673,2.69297 19.38673,-0.89766c0,-13.46486 -86.35909,-72.71023 -98.6961,-68.22194c-7.04972,2.69297 -18.50552,-0.89766 -24.67403,-8.97657c-6.16851,-7.18126 -20.26795,-13.46486 -30.84253,-13.46486c-14.09944,0 -29.0801,-14.36251 -51.9917,-49.37114c-17.6243,-26.92971 -29.96132,-49.37114 -26.43646,-49.37114c11.4558,0 44.06076,21.54377 59.04142,39.49691c14.09944,17.95314 14.98066,17.95314 9.69337,0.89766c-3.52486,-11.66954 5.28729,-6.2836 24.67403,16.15783c15.86187,17.95314 33.48618,33.21331 37.89225,33.21331c5.28729,0 18.50552,10.77189 29.96132,23.33909c11.4558,11.66954 38.77347,35.00863 59.92263,50.2688c25.55524,19.74846 37.01104,33.21331 33.48618,43.08754c-2.64365,8.97657 5.28729,24.23674 22.03038,38.59926c33.48618,30.52034 35.24861,15.26017 2.64365,-16.15783c-29.0801,-26.92971 -19.38673,-30.52034 12.33701,-4.48829c14.09944,10.77189 30.84253,16.15783 41.41712,13.46486c10.57458,-2.69297 13.21823,-1.79531 7.93094,0.89766c-16.74309,7.18126 -14.09944,19.74846 7.93094,31.418c15.86187,8.97657 17.6243,8.07891 13.21823,-4.48829c-5.28729,-13.46486 -3.52486,-13.46486 9.69337,-3.59063c8.81215,6.2836 31.72375,28.72503 50.22927,49.37114c41.41712,45.78051 57.27899,48.47349 57.27899,11.66954c0,-24.23674 -7.04972,-31.418 -28.19889,-27.82737c-2.64365,0 -18.50552,-11.66954 -33.48618,-26.03206c-20.26795,-19.74846 -23.79281,-26.92971 -14.09944,-26.92971c17.6243,0 52.87291,22.44143 89.00274,55.65474c14.09944,13.46486 27.31767,22.44143 29.96132,20.64611c7.04972,-8.07891 -72.25965,-105.92354 -96.93367,-120.28606c-14.09944,-8.07891 -27.31767,-20.64611 -29.96132,-28.72503c-4.40608,-13.46486 -29.0801,-35.90629 -183.29276,-168.75955c-25.55524,-21.54377 -51.11048,-51.16646 -57.27899,-65.52897c-14.98066,-35.00863 -7.04972,-43.9852 8.81215,-9.87423c6.16851,13.46486 18.50552,26.03206 27.31767,27.82737c30.84253,6.2836 13.21823,-23.33909 -48.46684,-79.89149c-35.24861,-31.418 -96.05246,-87.9704 -135.70714,-124.77434c-40.5359,-36.80394 -93.40881,-87.07274 -119.84527,-110.41183c-81.0718,-75.4032 -56.39777,-27.82737 31.72375,60.14303c46.70441,46.67817 84.59666,88.86806 84.59666,93.35634c0,5.38594 21.14917,23.33909 46.70441,40.39457c26.43646,17.95314 51.9917,38.59926 58.1602,45.78051c6.16851,8.07891 14.98066,11.66954 19.38673,8.97657c4.40608,-2.69297 5.28729,0.89766 2.64365,8.07891c-2.64365,7.18126 -0.88122,16.15783 4.40608,19.74846c5.28729,2.69297 9.69337,9.87423 9.69337,14.36251c0,11.66954 -32.60496,-14.36251 -92.5276,-71.81257c-75.78451,-71.81257 -182.41155,-162.47595 -193.86735,-162.47595c-5.28729,0 -14.98066,-8.97657 -21.14917,-19.74846c-6.16851,-11.66954 -27.31767,-33.21331 -47.58562,-49.37114c-58.1602,-45.78051 -299.61317,-287.25029 -302.25682,-302.51046c-0.88122,-7.18126 4.40608,-15.26017 12.33701,-18.8508c9.69337,-3.59063 31.72375,15.26017 74.90329,62.836c33.48618,36.80394 65.20993,67.32429 70.49722,67.32429c5.28729,0 44.06076,35.00863 87.24031,77.19852c43.17955,43.08754 81.0718,75.4032 84.59666,71.81257c2.64365,-3.59063 -22.03038,-33.21331 -56.39777,-66.42663c-34.36739,-33.21331 -117.20162,-112.20714 -183.29276,-176.83846c-66.97236,-63.73366 -126.89499,-120.28606 -133.94471,-123.87669c-13.21823,-8.07891 -16.74309,-24.23674 -5.28729,-24.23674c4.40608,0 38.77347,26.92971 76.66572,61.04069c113.67676,100.5376 156.85631,135.54623 163.90603,131.05794c3.52486,-1.79531 14.09944,5.38594 22.9116,17.95314c8.81215,11.66954 24.67403,23.33909 33.48618,26.92971c18.50552,5.38594 31.72375,18.8508 138.35079,133.75092c62.56628,68.22194 179.7679,165.16892 188.58006,157.09c1.76243,-2.69297 -13.21823,-18.8508 -33.48618,-36.80394c-90.76517,-78.09617 -107.50826,-93.35634 -132.18228,-117.59309c-36.12982,-36.80394 -18.50552,-52.06412 22.9116,-20.64611c21.14917,17.05549 31.72375,20.64611 34.36739,12.5672c3.52486,-6.2836 14.98066,0.89766 31.72375,20.64611c14.09944,17.05549 31.72375,31.418 37.89225,31.418c6.16851,0 28.19889,18.8508 49.34805,40.39457c21.14917,22.44143 35.24861,34.11097 30.84253,26.03206c-7.04972,-14.36251 -189.46127,-216.33537 -213.25408,-236.08383c-6.16851,-5.38594 -51.9917,-50.2688 -101.33975,-99.63994c-49.34805,-49.37114 -107.50826,-105.92354 -129.53864,-125.672c-22.03038,-19.74846 -36.12982,-33.21331 -30.84253,-29.62269c21.14917,16.15783 25.55524,4.48829 5.28729,-13.46486c-48.46684,-43.08754 -55.51656,-61.93834 -10.57458,-26.03206c26.43646,20.64611 51.11048,37.7016 55.51656,37.7016c5.28729,0 22.9116,16.15783 41.41712,35.00863c32.60496,35.00863 72.25965,55.65474 72.25965,37.7016c0,-4.48829 -3.52486,-11.66954 -8.81215,-14.36251c-4.40608,-2.69297 -8.81215,-12.5672 -8.81215,-20.64611c0,-11.66954 4.40608,-8.97657 15.86187,8.07891c7.93094,12.5672 22.03038,30.52034 29.96132,38.59926c18.50552,17.95314 20.26795,32.31566 5.28729,32.31566c-6.16851,0 13.21823,23.33909 42.29833,52.06412c149.80659,143.62514 178.88669,170.55486 189.46127,177.73612c10.57458,5.38594 10.57458,4.48829 0,-8.07891c-7.04972,-8.97657 -10.57458,-17.95314 -7.93094,-19.74846c2.64365,-2.69297 22.9116,19.74846 45.82319,49.37114c22.9116,29.62269 47.58562,53.85943 55.51656,53.85943c7.93094,0 27.31767,9.87423 43.17955,22.44143c32.60496,25.1344 52.87291,30.52034 25.55524,6.2836c-30.84253,-26.92971 -140.11322,-145.42046 -133.94471,-145.42046c2.64365,0 12.33701,7.18126 21.14917,17.05549c8.81215,8.97657 29.96132,21.54377 46.70441,26.92971c16.74309,6.2836 46.70441,25.1344 66.09114,43.08754c19.38673,17.95314 29.96132,28.72503 22.9116,25.1344c-6.16851,-3.59063 -2.64365,5.38594 8.81215,21.54377c10.57458,15.26017 25.55524,27.82737 31.72375,27.82737c7.04972,0 22.03038,9.87423 34.36739,22.44143c12.33701,12.5672 24.67403,22.44143 28.19889,22.44143c3.52486,0 26.43646,18.8508 50.22927,42.18989c56.39777,55.65474 145.40051,128.36497 155.97509,128.36497c5.28729,0 32.60496,24.23674 60.80385,53.85943c28.19889,29.62269 55.51656,53.85943 60.80385,53.85943c4.40608,0 8.81215,4.48829 8.81215,8.97657c0,5.38594 5.28729,8.97657 11.4558,8.97657c7.04972,0 19.38673,8.07891 28.19889,17.95314c8.81215,9.87423 22.03038,17.95314 29.96132,17.95314c7.93094,0 18.50552,11.66954 23.79281,26.03206c6.16851,14.36251 29.96132,38.59926 58.1602,58.34772c50.22927,33.21331 65.20993,39.49691 54.63534,22.44143c-4.40608,-7.18126 -0.88122,-7.18126 12.33701,0c10.57458,5.38594 20.26795,13.46486 23.79281,17.95314c2.64365,4.48829 15.86187,10.77189 30.84253,14.36251c28.19889,6.2836 82.83423,62.836 76.66572,78.99383c-2.64365,6.2836 -8.81215,9.87423 -14.09944,8.07891c-5.28729,-0.89766 -9.69337,-0.89766 -9.69337,0.89766c0,7.18126 87.24031,96.04932 107.50826,108.61652l23.79281,16.15783l-5.28729,-32.31566c-6.16851,-40.39457 10.57458,-43.08754 44.06076,-7.18126c25.55524,26.92971 33.48618,49.37114 8.81215,23.33909c-14.98066,-14.36251 -15.86187,-14.36251 -21.14917,6.2836c-2.64365,11.66954 -3.52486,26.03206 -1.76243,31.418c5.28729,14.36251 109.27069,96.04932 114.55798,90.66337c7.93094,-8.97657 -14.98066,-41.29223 -32.60496,-46.67817c-9.69337,-2.69297 -22.03038,-14.36251 -27.31767,-25.1344l-10.57458,-19.74846l22.03038,20.64611c11.4558,10.77189 25.55524,19.74846 29.96132,19.74846c14.98066,0 53.75413,47.57583 68.73479,83.48212c7.04972,17.95314 17.6243,33.21331 22.03038,33.21331c5.28729,0 9.69337,6.2836 9.69337,13.46486c0,7.18126 9.69337,15.26017 22.03038,18.8508c12.33701,2.69297 28.19889,17.05549 35.24861,31.418c16.74309,32.31566 107.50826,107.71886 122.48891,101.43526c7.04972,-2.69297 29.0801,19.74846 56.39777,56.5524c68.73479,93.35634 193.86735,209.15412 227.35353,209.15412c8.81215,0 25.55524,13.46486 37.01104,30.52034c14.98066,21.54377 25.55524,28.72503 37.89225,26.03206c20.26795,-5.38594 21.14917,-14.36251 3.52486,-29.62269c-7.04972,-6.2836 -13.21823,-20.64611 -13.21823,-33.21331c0,-30.52034 -32.60496,-92.45869 -49.34805,-92.45869c-8.81215,0 -12.33701,5.38594 -9.69337,13.46486c10.57458,26.03206 -14.98066,24.23674 -38.77347,-2.69297c-22.9116,-26.03206 -26.43646,-55.65474 -7.04972,-55.65474c20.26795,0 3.52486,-26.92971 -45.82319,-76.30086c-46.70441,-46.67817 -51.11048,-53.85943 -35.24861,-56.5524c25.55524,-4.48829 23.79281,-12.5672 -13.21823,-45.78051c-16.74309,-16.15783 -29.0801,-31.418 -26.43646,-35.00863c2.64365,-2.69297 12.33701,1.79531 21.14917,9.87423c21.14917,19.74846 30.84253,19.74846 20.26795,0c-27.31767,-52.06412 -108.38947,-112.20714 -91.64638,-69.1196c4.40608,12.5672 2.64365,12.5672 -22.9116,-0.89766c-20.26795,-9.87423 -27.31767,-18.8508 -23.79281,-28.72503c3.52486,-8.97657 -2.64365,-23.33909 -13.21823,-35.90629c-28.19889,-29.62269 -16.74309,-33.21331 19.38673,-6.2836c19.38673,14.36251 37.89225,21.54377 51.11048,18.8508c21.14917,-4.48829 48.46684,8.97657 81.95301,36.80394c14.98066,12.5672 14.98066,14.36251 0,25.1344c-14.09944,10.77189 -12.33701,14.36251 20.26795,43.08754c44.06076,39.49691 66.09114,43.08754 43.17955,8.07891c-14.98066,-24.23674 -14.09944,-24.23674 17.6243,4.48829c17.6243,15.26017 37.89225,28.72503 44.06076,28.72503c12.33701,0 66.97236,65.52897 66.97236,79.89149c0,6.2836 -16.74309,8.07891 -44.94198,5.38594l-44.94198,-4.48829l33.48618,38.59926c18.50552,20.64611 43.17955,43.9852 55.51656,52.06412c29.0801,17.95314 42.29833,34.11097 46.70441,57.45006c2.64365,12.5672 9.69337,17.05549 22.9116,16.15783c10.57458,-1.79531 19.38673,1.79531 19.38673,6.2836c0,5.38594 4.40608,8.97657 8.81215,8.97657c5.28729,0 8.81215,-8.07891 8.81215,-17.95314c0,-25.1344 25.55524,-22.44143 35.24861,4.48829c4.40608,12.5672 12.33701,22.44143 17.6243,22.44143c10.57458,0 10.57458,-1.79531 0,-31.418c-7.93094,-20.64611 -7.04972,-21.54377 7.04972,-14.36251c26.43646,14.36251 89.88395,73.60789 89.88395,83.48212c0,6.2836 -4.40608,5.38594 -12.33701,-0.89766c-17.6243,-15.26017 -25.55524,1.79531 -13.21823,29.62269c11.4558,25.1344 34.36739,31.418 34.36739,9.87423c0,-16.15783 12.33701,-17.05549 28.19889,-1.79531c18.50552,18.8508 42.29833,25.1344 61.68507,14.36251c9.69337,-5.38594 27.31767,-11.66954 38.77347,-13.46486c21.14917,-3.59063 20.26795,-2.69297 -7.04972,24.23674c-27.31767,26.03206 -28.19889,26.92971 -7.04972,21.54377c38.77347,-10.77189 57.27899,-10.77189 63.4475,-0.89766c3.52486,5.38594 20.26795,-1.79531 45.82319,-19.74846c21.14917,-16.15783 59.92263,-43.08754 85.47788,-60.14303c66.09114,-43.9852 192.98613,-157.98766 192.98613,-173.24783c0,-7.18126 5.28729,-10.77189 13.21823,-7.18126c7.93094,2.69297 35.24861,-10.77189 63.4475,-31.418c37.01104,-26.03206 56.39777,-35.00863 73.14086,-31.418c12.33701,2.69297 16.74309,2.69297 11.4558,0c-17.6243,-8.07891 -13.21823,-28.72503 6.16851,-35.00863c8.81215,-2.69297 32.60496,-23.33909 51.11048,-45.78051c19.38673,-21.54377 38.77347,-39.49691 44.06076,-39.49691c4.40608,0 24.67403,-13.46486 44.06076,-29.62269c19.38673,-15.26017 51.9917,-40.39457 72.25965,-54.75709c20.26795,-13.46486 34.36739,-26.92971 31.72375,-29.62269c-7.04972,-7.18126 46.70441,-50.2688 155.97509,-123.87669c56.39777,-38.59926 122.48891,-87.9704 145.40051,-109.51417c22.9116,-22.44143 51.9917,-45.78051 65.20993,-52.96177c13.21823,-7.18126 28.19889,-20.64611 33.48618,-30.52034c5.28729,-9.87423 13.21823,-17.95314 18.50552,-17.95314c5.28729,0 19.38673,-8.07891 31.72375,-17.95314c27.31767,-22.44143 63.4475,-25.1344 46.70441,-4.48829c-13.21823,16.15783 -6.16851,17.05549 19.38673,3.59063c14.98066,-8.07891 15.86187,-11.66954 6.16851,-17.95314c-14.98066,-8.97657 -0.88122,-37.7016 20.26795,-42.18989c26.43646,-5.38594 9.69337,35.90629 -34.36739,81.6868c-24.67403,26.03206 -43.17955,51.16646 -40.5359,57.45006c1.76243,5.38594 -14.09944,20.64611 -36.12982,34.11097c-22.03038,13.46486 -40.5359,28.72503 -40.5359,34.11097c0,20.64611 15.86187,35.90629 30.84253,30.52034c7.93094,-3.59063 11.4558,-10.77189 8.81215,-15.26017c-3.52486,-5.38594 3.52486,-17.05549 14.98066,-26.92971c22.9116,-19.74846 38.77347,-24.23674 25.55524,-6.2836c-47.58562,59.24537 -68.73479,78.09617 -103.9834,94.254c-36.12982,16.15783 -103.9834,82.58446 -84.59666,82.58446c14.09944,0 69.616,-38.59926 88.12152,-61.93834c10.57458,-12.5672 19.38673,-19.74846 20.26795,-15.26017c0,4.48829 5.28729,3.59063 11.4558,-1.79531c6.16851,-5.38594 22.9116,-14.36251 37.01104,-19.74846l26.43646,-8.97657l-29.0801,24.23674c-49.34805,42.18989 -130.41985,121.18372 -116.32041,114.00246c23.79281,-11.66954 87.24031,-57.45006 109.27069,-78.09617c12.33701,-10.77189 35.24861,-29.62269 51.11048,-42.18989c54.63534,-42.18989 103.9834,-91.56103 98.6961,-99.63994c-7.04972,-11.66954 16.74309,-33.21331 51.9917,-48.47349c16.74309,-7.18126 47.58562,-30.52034 68.73479,-51.16646c21.14917,-21.54377 55.51656,-51.16646 76.66572,-64.63132c21.14917,-14.36251 40.5359,-31.418 44.06076,-36.80394c3.52486,-6.2836 22.03038,-21.54377 42.29833,-34.11097c19.38673,-12.5672 59.04142,-43.9852 88.12152,-69.1196c53.75413,-47.57583 89.88395,-73.60789 79.30937,-54.75709c-3.52486,5.38594 -1.76243,9.87423 3.52486,9.87423c5.28729,0 7.04972,4.48829 4.40608,8.97657c-2.64365,5.38594 -0.88122,8.97657 5.28729,8.97657c6.16851,0 -4.40608,17.05549 -22.9116,36.80394c-37.01104,39.49691 -30.84253,38.59926 22.03038,0c35.24861,-26.92971 44.94198,-37.7016 38.77347,-46.67817c-6.16851,-10.77189 40.5359,-43.08754 55.51656,-37.7016c10.57458,4.48829 0,17.95314 -41.41712,55.65474c-81.95301,73.60789 -163.02481,154.39703 -163.02481,160.68063c0,3.59063 -17.6243,24.23674 -39.65468,46.67817c-48.46684,49.37114 -78.42815,86.17509 -64.32871,77.19852c29.0801,-17.05549 -3.52486,22.44143 -58.1602,70.91492c-52.87291,46.67817 -59.04142,54.75709 -43.17955,58.34772c15.86187,4.48829 14.09944,8.07891 -18.50552,29.62269c-32.60496,22.44143 -46.70441,42.18989 -29.0801,42.18989c3.52486,0 28.19889,-16.15783 54.63534,-35.90629c26.43646,-19.74846 66.09114,-46.67817 88.12152,-60.14303c22.03038,-13.46486 43.17955,-29.62269 46.70441,-35.90629c3.52486,-6.2836 27.31767,-25.1344 52.87291,-42.18989c25.55524,-17.05549 57.27899,-41.29223 71.37843,-53.85943c14.09944,-12.5672 29.0801,-23.33909 32.60496,-23.33909c3.52486,0 25.55524,-20.64611 49.34805,-45.78051c40.5359,-43.08754 82.83423,-76.30086 69.616,-53.85943c-9.69337,15.26017 0,11.66954 41.41712,-17.05549c40.5359,-26.92971 66.97236,-53.85943 53.75413,-53.85943c-3.52486,0 6.16851,-9.87423 22.9116,-22.44143c42.29833,-32.31566 45.82319,-17.95314 4.40608,19.74846c-98.6961,89.76572 -111.91433,104.12823 -101.33975,110.41183c7.04972,4.48829 -7.04972,17.05549 -38.77347,35.00863c-27.31767,16.15783 -47.58562,32.31566 -44.94198,36.80394c2.64365,3.59063 -6.16851,13.46486 -17.6243,21.54377c-12.33701,8.07891 -21.14917,20.64611 -20.26795,26.92971c3.52486,15.26017 -51.9917,62.836 -56.39777,48.47349c-2.64365,-7.18126 -18.50552,0 -44.94198,19.74846c-22.03038,16.15783 -38.77347,33.21331 -36.12982,37.7016c13.21823,22.44143 -58.1602,81.6868 -111.03312,92.45869c-7.04972,0.89766 -12.33701,7.18126 -10.57458,13.46486c0.88122,5.38594 -7.04972,17.95314 -17.6243,27.82737c-17.6243,14.36251 -18.50552,17.95314 -7.04972,26.03206c14.09944,8.97657 7.04972,12.5672 -21.14917,8.97657c-11.4558,-0.89766 -14.98066,2.69297 -11.4558,12.5672c5.28729,13.46486 -13.21823,34.11097 -90.76517,104.12823c-17.6243,15.26017 -18.50552,17.95314 -5.28729,13.46486c16.74309,-5.38594 16.74309,-4.48829 0.88122,13.46486c-10.57458,11.66954 -18.50552,15.26017 -22.03038,8.97657c-3.52486,-6.2836 -14.98066,1.79531 -28.19889,19.74846c-37.89225,49.37114 -60.80385,70.91492 -69.616,65.52897c-4.40608,-3.59063 -7.93094,0 -7.93094,7.18126c0,16.15783 -54.63534,60.14303 -74.02208,60.14303c-19.38673,0 -17.6243,16.15783 1.76243,20.64611c7.93094,1.79531 2.64365,3.59063 -12.33701,3.59063c-30.84253,0 -50.22927,8.97657 -43.17955,20.64611c2.64365,4.48829 -4.40608,17.95314 -14.98066,29.62269c-11.4558,12.5672 -27.31767,33.21331 -36.12982,45.78051c-9.69337,13.46486 -27.31767,29.62269 -39.65468,35.00863c-29.0801,13.46486 -81.0718,61.04069 -81.0718,73.60789c0,15.26017 -38.77347,49.37114 -55.51656,49.37114c-8.81215,0 -20.26795,9.87423 -25.55524,22.44143c-5.28729,12.5672 -16.74309,22.44143 -25.55524,22.44143c-8.81215,0 -21.14917,8.97657 -26.43646,20.64611c-20.26795,39.49691 -61.68507,70.91492 -96.05246,72.71023c-7.93094,0.89766 -12.33701,8.07891 -10.57458,19.74846c2.64365,23.33909 -101.33975,122.97903 -120.72648,115.79777c-6.16851,-2.69297 -29.0801,11.66954 -50.22927,31.418c-21.14917,19.74846 -42.29833,35.90629 -46.70441,35.90629c-11.4558,0 -20.26795,30.52034 -13.21823,48.47349c7.04972,19.74846 16.74309,17.95314 54.63534,-8.07891c38.77347,-26.92971 49.34805,-28.72503 37.01104,-4.48829c-6.16851,12.5672 -6.16851,17.95314 0,17.95314c4.40608,0 8.81215,-2.69297 8.81215,-6.2836c0,-4.48829 9.69337,-11.66954 22.03038,-17.95314c23.79281,-10.77189 29.0801,-4.48829 11.4558,13.46486c-18.50552,18.8508 0,22.44143 29.96132,4.48829c21.14917,-12.5672 29.0801,-23.33909 29.0801,-41.29223c0,-29.62269 19.38673,-52.06412 29.96132,-34.11097c5.28729,8.07891 9.69337,8.97657 13.21823,1.79531c3.52486,-5.38594 12.33701,-9.87423 20.26795,-9.87423c8.81215,0 4.40608,8.97657 -14.09944,26.03206c-16.74309,15.26017 -27.31767,35.00863 -27.31767,48.47349c0,12.5672 -10.57458,35.00863 -23.79281,50.2688c-25.55524,29.62269 -43.17955,36.80394 -35.24861,14.36251c3.52486,-7.18126 1.76243,-15.26017 -3.52486,-17.95314c-4.40608,-3.59063 -10.57458,0.89766 -13.21823,8.07891c-2.64365,7.18126 -12.33701,16.15783 -21.14917,18.8508c-9.69337,2.69297 -19.38673,13.46486 -22.03038,23.33909c-3.52486,8.97657 -11.4558,17.05549 -17.6243,17.05549c-13.21823,0 -26.43646,16.15783 -18.50552,24.23674c2.64365,2.69297 16.74309,-6.2836 32.60496,-18.8508c37.01104,-31.418 43.17955,-23.33909 8.81215,10.77189c-14.98066,14.36251 -27.31767,28.72503 -27.31767,31.418c0,3.59063 16.74309,16.15783 37.89225,29.62269c20.26795,12.5672 54.63534,40.39457 76.66572,61.93834c22.03038,21.54377 62.56628,60.14303 91.64638,87.07274c28.19889,26.03206 57.27899,62.836 64.32871,80.78914c7.04972,18.8508 21.14917,35.90629 29.96132,38.59926c9.69337,3.59063 23.79281,15.26017 30.84253,27.82737c7.93094,11.66954 22.9116,21.54377 33.48618,21.54377c11.4558,0 29.0801,10.77189 41.41712,23.33909c11.4558,12.5672 31.72375,28.72503 45.82319,35.90629c13.21823,7.18126 23.79281,20.64611 23.79281,30.52034c0,9.87423 17.6243,31.418 42.29833,51.16646c22.9116,18.8508 72.25965,66.42663 111.03312,105.92354c40.5359,42.18989 71.37843,67.32429 73.14086,60.14303c2.64365,-5.38594 7.93094,-8.97657 12.33701,-5.38594c4.40608,2.69297 7.93094,0 7.93094,-6.2836c0,-7.18126 3.52486,-7.18126 13.21823,0.89766c7.04972,6.2836 13.21823,16.15783 13.21823,22.44143c0,22.44143 44.94198,68.22194 61.68507,62.836c7.93094,-2.69297 20.26795,0.89766 26.43646,8.97657c13.21823,16.15783 59.04142,40.39457 65.20993,34.11097c2.64365,-2.69297 -0.88122,-18.8508 -8.81215,-36.80394c-7.04972,-17.05549 -10.57458,-33.21331 -8.81215,-35.90629c4.40608,-3.59063 16.74309,23.33909 51.11048,110.41183c9.69337,24.23674 21.14917,50.2688 26.43646,55.65474c10.57458,13.46486 54.63534,16.15783 46.70441,2.69297c-2.64365,-4.48829 -1.76243,-8.97657 2.64365,-8.97657c5.28729,0 11.4558,6.2836 14.09944,14.36251c4.40608,10.77189 8.81215,12.5672 16.74309,4.48829c12.33701,-9.87423 25.55524,14.36251 62.56628,109.51417c7.04972,17.95314 16.74309,33.21331 21.14917,33.21331c7.93094,0 6.16851,-122.08137 -2.64365,-172.35017c-1.76243,-14.36251 -1.76243,-25.1344 0,-25.1344c8.81215,0 48.46684,72.71023 48.46684,88.86806c0,9.87423 2.64365,19.74846 7.04972,21.54377c7.93094,5.38594 7.04972,-112.20714 -1.76243,-159.78297l-7.04972,-35.90629l31.72375,53.85943c23.79281,40.39457 30.84253,63.73366 31.72375,96.04932c0,43.08754 37.89225,123.87669 57.27899,123.87669c12.33701,0 8.81215,-124.77434 -3.52486,-137.34154c-14.09944,-14.36251 -12.33701,-33.21331 3.52486,-33.21331c15.86187,0 35.24861,34.11097 31.72375,56.5524c-2.64365,21.54377 29.0801,71.81257 55.51656,86.17509c13.21823,7.18126 29.96132,33.21331 44.94198,69.1196c29.0801,70.91492 45.82319,86.17509 53.75413,53.85943c5.28729,-23.33909 6.16851,-23.33909 31.72375,17.05549c25.55524,39.49691 66.97236,76.30086 84.59666,76.30086c5.28729,0 23.79281,20.64611 41.41712,44.88286c17.6243,25.1344 37.01104,44.88286 43.17955,44.88286c29.96132,0 116.32041,140.03452 147.16294,237.87915c38.77347,125.672 72.25965,198.38223 118.96405,262.11589c26.43646,35.90629 61.68507,90.66337 78.42815,122.08137c28.19889,52.06412 30.84253,63.73366 30.84253,128.36497c0,77.19852 -8.81215,98.74229 -35.24861,82.58446c-24.67403,-16.15783 -46.70441,-1.79531 -41.41712,26.03206c3.52486,20.64611 -4.40608,14.36251 -51.9917,-37.7016l-56.39777,-61.93834l14.09944,48.47349c7.93094,26.03206 19.38673,56.5524 24.67403,66.42663c6.16851,10.77189 18.50552,51.16646 26.43646,90.66337c21.14917,98.74229 27.31767,112.20714 71.37843,148.11343c21.14917,17.05549 37.01104,35.90629 35.24861,42.18989c-5.28729,16.15783 24.67403,50.2688 69.616,78.99383c33.48618,21.54377 46.70441,39.49691 81.95301,110.41183c28.19889,56.5524 59.04142,102.33292 92.5276,137.34154c27.31767,28.72503 57.27899,65.52897 65.20993,81.6868c7.93094,16.15783 22.03038,39.49691 30.84253,51.16646c8.81215,11.66954 14.09944,24.23674 11.4558,28.72503c-2.64365,4.48829 3.52486,18.8508 13.21823,31.418c21.14917,27.82737 23.79281,48.47349 6.16851,48.47349c-8.81215,0 -14.09944,11.66954 -15.86187,34.11097l-2.64365,33.21331l-45.82319,-45.78051c-24.67403,-26.03206 -56.39777,-67.32429 -69.616,-92.45869c-25.55524,-48.47349 -38.77347,-57.45006 -38.77347,-27.82737c0,21.54377 -15.86187,23.33909 -42.29833,3.59063c-29.96132,-20.64611 -33.48618,-8.97657 -7.93094,25.1344c11.4558,16.15783 23.79281,36.80394 26.43646,45.78051c3.52486,8.97657 17.6243,22.44143 31.72375,31.418c14.98066,8.97657 34.36739,33.21331 45.82319,57.45006c22.03038,49.37114 31.72375,53.85943 36.12982,18.8508c2.64365,-24.23674 3.52486,-23.33909 35.24861,22.44143c18.50552,25.1344 39.65468,46.67817 46.70441,46.67817c15.86187,0 30.84253,27.82737 30.84253,59.24537c0,19.74846 -1.76243,21.54377 -12.33701,12.5672c-7.04972,-5.38594 -14.09944,-21.54377 -15.86187,-34.11097c-1.76243,-18.8508 -7.04972,-23.33909 -20.26795,-21.54377c-25.55524,4.48829 -25.55524,7.18126 -6.16851,41.29223c9.69337,17.05549 15.86187,38.59926 14.09944,47.57583c-2.64365,9.87423 1.76243,22.44143 8.81215,28.72503c19.38673,17.05549 17.6243,25.1344 -8.81215,31.418c-19.38673,5.38594 -22.03038,8.97657 -16.74309,32.31566c3.52486,15.26017 4.40608,26.92971 2.64365,26.92971c-2.64365,0 -23.79281,-25.1344 -47.58562,-55.65474zm1.76243,-193.89395c-15.86187,-14.36251 -15.86187,-14.36251 -5.28729,5.38594c5.28729,11.66954 12.33701,18.8508 15.86187,16.15783c2.64365,-3.59063 -1.76243,-12.5672 -10.57458,-21.54377zm-202.6795,-124.77434l-5.28729,-25.1344l16.74309,20.64611c18.50552,22.44143 27.31767,25.1344 27.31767,8.97657c0,-5.38594 -17.6243,-27.82737 -39.65468,-49.37114l-39.65468,-38.59926l0,31.418c0,17.05549 3.52486,31.418 8.81215,31.418c4.40608,0 10.57458,9.87423 14.09944,22.44143c7.93094,30.52034 24.67403,28.72503 17.6243,-1.79531zm-719.07162,-285.45498c-6.16851,-8.07891 -13.21823,-11.66954 -15.86187,-8.97657c-2.64365,1.79531 0.88122,9.87423 7.04972,17.95314c6.16851,8.07891 13.21823,11.66954 15.86187,8.97657c2.64365,-1.79531 -0.88122,-9.87423 -7.04972,-17.95314zm-84.59666,-1.79531c3.52486,-9.87423 -3.52486,-25.1344 -22.9116,-44.88286c-14.98066,-16.15783 -31.72375,-29.62269 -35.24861,-29.62269c-12.33701,0 -7.93094,17.05549 9.69337,33.21331c8.81215,8.97657 19.38673,25.1344 22.03038,36.80394c7.93094,23.33909 18.50552,26.03206 26.43646,4.48829zm852.13511,-54.75709c-10.57458,-19.74846 -87.24031,-69.1196 -95.17124,-61.04069c-2.64365,2.69297 15.86187,25.1344 42.29833,50.2688c45.82319,43.9852 73.14086,49.37114 52.87291,10.77189zm-1031.90302,-105.02589c-6.16851,-8.07891 -13.21823,-11.66954 -14.98066,-9.87423c-6.16851,6.2836 6.16851,23.33909 16.74309,23.33909c5.28729,0 5.28729,-5.38594 -1.76243,-13.46486zm850.37268,-121.18372c-7.93094,-16.15783 -16.74309,-26.92971 -18.50552,-24.23674c-2.64365,2.69297 1.76243,17.05549 9.69337,33.21331c7.93094,16.15783 16.74309,26.92971 18.50552,24.23674c2.64365,-2.69297 -1.76243,-17.05549 -9.69337,-33.21331zm-133.0635,-418.30823c21.14917,-8.07891 16.74309,-29.62269 -9.69337,-57.45006c-14.09944,-13.46486 -31.72375,-34.11097 -40.5359,-45.78051l-14.98066,-21.54377l6.16851,26.92971c6.16851,31.418 35.24861,103.23057 41.41712,103.23057c1.76243,0 9.69337,-2.69297 17.6243,-5.38594zm-1201.97755,-61.04069c-26.43646,-26.92971 -50.22927,-47.57583 -51.9917,-44.88286c-5.28729,5.38594 80.19058,93.35634 90.76517,93.35634c5.28729,0 -12.33701,-21.54377 -38.77347,-48.47349zm-128.65742,-124.77434c-41.41712,-46.67817 -73.14086,-72.71023 -80.19058,-65.52897c-2.64365,2.69297 9.69337,19.74846 29.0801,36.80394c18.50552,17.05549 44.06076,41.29223 55.51656,53.85943c36.12982,37.7016 31.72375,16.15783 -4.40608,-25.1344zm-109.27069,-23.33909c0,-10.77189 -64.32871,-73.60789 -113.67676,-109.51417c-28.19889,-21.54377 -36.12982,-24.23674 -29.0801,-11.66954c14.98066,28.72503 124.25135,129.26263 140.11322,129.26263c1.76243,0 2.64365,-3.59063 2.64365,-8.07891zm-3241.99077,-145.42046c9.69337,-9.87423 16.74309,-20.64611 14.09944,-22.44143c-7.93094,-8.97657 -50.22927,14.36251 -50.22927,27.82737c0,18.8508 14.09944,17.05549 36.12982,-5.38594zm1047.76489,-52.96177c0,-4.48829 -3.52486,-8.97657 -8.81215,-8.97657c-4.40608,0 -8.81215,4.48829 -8.81215,8.97657c0,5.38594 4.40608,8.97657 8.81215,8.97657c5.28729,0 8.81215,-3.59063 8.81215,-8.97657zm17.6243,-59.24537c0,-8.97657 -29.0801,-29.62269 -41.41712,-30.52034c-18.50552,0 -13.21823,12.5672 8.81215,23.33909c23.79281,12.5672 32.60496,14.36251 32.60496,7.18126zm1824.11549,-167.86189c0,-1.79531 -10.57458,-12.5672 -23.79281,-25.1344l-24.67403,-21.54377l21.14917,25.1344c20.26795,22.44143 27.31767,28.72503 27.31767,21.54377zm-107.50826,-111.30949c-31.72375,-32.31566 -47.58562,-36.80394 -37.89225,-10.77189c5.28729,13.46486 46.70441,43.08754 61.68507,43.9852c4.40608,0 -6.16851,-15.26017 -23.79281,-33.21331zm-2965.2892,-64.63132c44.94198,-19.74846 60.80385,-36.80394 33.48618,-36.80394c-9.69337,0 -20.26795,4.48829 -22.9116,8.97657c-2.64365,5.38594 -14.98066,8.97657 -25.55524,8.97657c-22.03038,0 -44.94198,19.74846 -34.36739,29.62269c7.04972,8.07891 4.40608,8.97657 49.34805,-10.77189zm-11.4558,-81.6868c0,-4.48829 -7.93094,-8.97657 -16.74309,-8.97657c-9.69337,0 -20.26795,4.48829 -22.9116,8.97657c-3.52486,5.38594 4.40608,8.97657 16.74309,8.97657c12.33701,0 22.9116,-3.59063 22.9116,-8.97657zm4332.054,-46.67817c-7.04972,-26.92971 -10.57458,-32.31566 -12.33701,-18.8508c-2.64365,17.05549 11.4558,56.5524 19.38673,56.5524c1.76243,0 -1.76243,-17.05549 -7.04972,-37.7016zm-1450.48024,-2.69297c-6.16851,-7.18126 -14.09944,-13.46486 -18.50552,-13.46486c-4.40608,0 -5.28729,6.2836 -2.64365,13.46486c3.52486,7.18126 11.4558,13.46486 18.50552,13.46486c11.4558,0 11.4558,-2.69297 2.64365,-13.46486zm1502.47194,-30.52034c-2.64365,-5.38594 -9.69337,-9.87423 -14.98066,-9.87423c-5.28729,0 -5.28729,5.38594 1.76243,13.46486c12.33701,15.26017 22.9116,11.66954 13.21823,-3.59063zm-1559.75093,-18.8508c-7.93094,-15.26017 -17.6243,-25.1344 -22.9116,-21.54377c-5.28729,3.59063 -1.76243,13.46486 10.57458,26.92971c26.43646,28.72503 29.0801,26.92971 12.33701,-5.38594zm-70.49722,-49.37114c-36.12982,-31.418 -52.87291,-39.49691 -46.70441,-21.54377c2.64365,8.97657 65.20993,51.16646 77.54694,52.06412c2.64365,0 -11.4558,-13.46486 -30.84253,-30.52034zm-84.59666,-86.17509c-16.74309,-20.64611 -39.65468,-45.78051 -51.11048,-56.5524c-81.95301,-72.71023 -150.6878,-144.5228 -192.10492,-201.0752c-26.43646,-35.90629 -55.51656,-69.1196 -64.32871,-73.60789c-8.81215,-4.48829 -22.03038,-14.36251 -29.0801,-21.54377c-15.86187,-17.05549 -59.04142,-28.72503 -59.04142,-16.15783c0,4.48829 6.16851,10.77189 13.21823,14.36251c7.04972,2.69297 13.21823,10.77189 13.21823,17.95314c0,7.18126 5.28729,17.05549 11.4558,20.64611c5.28729,3.59063 14.98066,15.26017 20.26795,25.1344c5.28729,9.87423 18.50552,22.44143 29.0801,27.82737c10.57458,5.38594 55.51656,43.9852 99.57732,85.27743c44.06076,41.29223 93.40881,84.37977 109.27069,96.04932c16.74309,10.77189 29.96132,25.1344 29.96132,30.52034c0,11.66954 89.00274,98.74229 95.17124,93.35634c1.76243,-2.69297 -9.69337,-21.54377 -25.55524,-42.18989zm1397.60733,19.74846c-2.64365,-10.77189 -9.69337,-18.8508 -14.09944,-18.8508c-5.28729,0 -7.04972,2.69297 -5.28729,7.18126c1.76243,3.59063 6.16851,14.36251 9.69337,23.33909c7.93094,22.44143 17.6243,11.66954 9.69337,-11.66954zm-3617.38846,-193.89395c14.09944,-17.05549 4.40608,-28.72503 -11.4558,-15.26017c-7.04972,6.2836 -14.98066,8.07891 -17.6243,5.38594c-7.93094,-8.07891 -24.67403,5.38594 -19.38673,15.26017c7.93094,12.5672 36.12982,9.87423 48.46684,-5.38594zm1414.35042,-13.46486c2.64365,-5.38594 -0.88122,-6.2836 -7.93094,-3.59063c-15.86187,6.2836 -18.50552,12.5672 -6.16851,12.5672c5.28729,0 11.4558,-3.59063 14.09944,-8.97657zm74.02208,-26.03206c9.69337,-6.2836 8.81215,-8.97657 -5.28729,-13.46486c-20.26795,-6.2836 -46.70441,1.79531 -46.70441,13.46486c0,9.87423 36.12982,9.87423 51.9917,0zm51.11048,-33.21331c-2.64365,-2.69297 -10.57458,-3.59063 -16.74309,-0.89766c-7.04972,2.69297 -4.40608,5.38594 5.28729,5.38594c9.69337,0.89766 14.98066,-1.79531 11.4558,-4.48829zm1368.52723,-97.84463c-6.16851,-8.07891 -13.21823,-11.66954 -15.86187,-8.97657c-2.64365,1.79531 0.88122,9.87423 7.04972,17.95314c6.16851,8.07891 13.21823,11.66954 15.86187,8.97657c2.64365,-1.79531 -0.88122,-9.87423 -7.04972,-17.95314zm-52.87291,-43.08754c0,-1.79531 -8.81215,-10.77189 -19.38673,-20.64611l-20.26795,-17.05549l16.74309,20.64611c15.86187,18.8508 22.9116,24.23674 22.9116,17.05549zm-44.06076,-39.49691c0,-10.77189 -52.87291,-101.43526 -58.1602,-101.43526c-2.64365,0 -3.52486,5.38594 -0.88122,12.5672c2.64365,7.18126 0.88122,14.36251 -5.28729,17.05549c-5.28729,1.79531 2.64365,18.8508 20.26795,40.39457c27.31767,35.00863 44.06076,46.67817 44.06076,31.418zm-2269.12918,-74.50554c8.81215,-9.87423 21.14917,-17.95314 28.19889,-17.95314c6.16851,0 11.4558,-3.59063 11.4558,-8.97657c0,-4.48829 -3.52486,-8.97657 -7.04972,-8.97657c-10.57458,0 -68.73479,52.96177 -58.1602,53.85943c5.28729,0 16.74309,-8.07891 25.55524,-17.95314zm2374.875,-21.54377c0,-2.69297 -3.52486,-7.18126 -8.81215,-9.87423c-4.40608,-2.69297 -8.81215,-0.89766 -8.81215,3.59063c0,5.38594 4.40608,9.87423 8.81215,9.87423c5.28729,0 8.81215,-1.79531 8.81215,-3.59063zm-202.6795,-41.29223c0,-4.48829 -4.40608,-8.97657 -9.69337,-8.97657c-4.40608,0 -6.16851,4.48829 -3.52486,8.97657c2.64365,5.38594 7.04972,8.97657 9.69337,8.97657c1.76243,0 3.52486,-3.59063 3.52486,-8.97657zm-2040.01322,-40.39457c34.36739,-32.31566 38.77347,-38.59926 17.6243,-27.82737c-27.31767,14.36251 -74.90329,54.75709 -74.90329,63.73366c0,11.66954 16.74309,1.79531 57.27899,-35.90629zm1809.13484,-60.14303c-1.76243,-5.38594 -8.81215,-12.5672 -14.09944,-14.36251c-6.16851,-1.79531 -8.81215,1.79531 -5.28729,10.77189c6.16851,16.15783 24.67403,19.74846 19.38673,3.59063zm37.01104,-15.26017c0,-9.87423 -11.4558,-26.03206 -26.43646,-36.80394c-30.84253,-22.44143 -33.48618,-16.15783 -8.81215,25.1344c19.38673,32.31566 35.24861,37.7016 35.24861,11.66954zm-1789.7481,-34.11097c17.6243,-13.46486 44.94198,-35.90629 61.68507,-50.2688c26.43646,-23.33909 27.31767,-25.1344 8.81215,-19.74846c-24.67403,8.07891 -113.67676,75.4032 -113.67676,86.17509c0,13.46486 9.69337,8.97657 43.17955,-16.15783zm1679.5962,-20.64611c-8.81215,-9.87423 -17.6243,-16.15783 -20.26795,-13.46486c-6.16851,5.38594 15.86187,31.418 27.31767,31.418c4.40608,0 1.76243,-8.07891 -7.04972,-17.95314zm-66.09114,-125.672c0,-4.48829 -1.76243,-8.97657 -3.52486,-8.97657c-2.64365,0 -7.04972,4.48829 -9.69337,8.97657c-2.64365,5.38594 -0.88122,8.97657 3.52486,8.97657c5.28729,0 9.69337,-3.59063 9.69337,-8.97657zm-1230.17644,-67.32429c8.81215,-6.2836 14.09944,-17.05549 12.33701,-23.33909c-1.76243,-6.2836 -13.21823,-1.79531 -29.0801,12.5672c-28.19889,25.1344 -14.09944,34.11097 16.74309,10.77189zm133.0635,-13.46486c2.64365,-5.38594 -0.88122,-6.2836 -7.93094,-3.59063c-15.86187,6.2836 -18.50552,12.5672 -6.16851,12.5672c5.28729,0 11.4558,-3.59063 14.09944,-8.97657zm1260.13776,-53.85943c2.64365,-4.48829 0.88122,-8.97657 -3.52486,-8.97657c-5.28729,0 -9.69337,4.48829 -9.69337,8.97657c0,5.38594 1.76243,8.97657 3.52486,8.97657c2.64365,0 7.04972,-3.59063 9.69337,-8.97657zm37.89225,-35.00863c2.64365,-7.18126 -0.88122,-10.77189 -7.93094,-8.07891c-6.16851,1.79531 -13.21823,8.97657 -14.98066,15.26017c-2.64365,7.18126 0.88122,10.77189 7.93094,8.07891c6.16851,-1.79531 13.21823,-8.97657 14.98066,-15.26017zm-770.1821,-293.53389c5.28729,-13.46486 -30.84253,-26.92971 -46.70441,-17.05549c-15.86187,9.87423 -10.57458,25.1344 7.04972,19.74846c12.33701,-2.69297 15.86187,-0.89766 12.33701,8.07891c-2.64365,8.97657 0,10.77189 8.81215,7.18126c7.93094,-2.69297 15.86187,-10.77189 18.50552,-17.95314zm44.06076,-59.24537c-6.16851,-8.97657 -13.21823,-8.97657 -29.0801,0.89766c-6.16851,4.48829 -9.69337,12.5672 -6.16851,17.95314c4.40608,6.2836 10.57458,6.2836 22.9116,-0.89766c8.81215,-6.2836 14.09944,-14.36251 12.33701,-17.95314zm-79.30937,-16.15783c22.03038,-8.07891 32.60496,-35.90629 14.09944,-35.90629c-4.40608,0 -8.81215,-6.2836 -8.81215,-14.36251c0,-9.87423 -4.40608,-12.5672 -14.09944,-8.97657c-7.93094,2.69297 -17.6243,5.38594 -22.03038,5.38594c-8.81215,0 -10.57458,27.82737 -2.64365,48.47349c6.16851,17.05549 5.28729,17.05549 33.48618,5.38594zm-127.77621,-36.80394c-16.74309,-10.77189 -21.14917,-1.79531 -7.04972,15.26017c7.93094,9.87423 12.33701,11.66954 14.98066,3.59063c2.64365,-6.2836 -1.76243,-14.36251 -7.93094,-18.8508zm1295.38637,-44.88286c-14.09944,-8.97657 -20.26795,-3.59063 -12.33701,8.97657c2.64365,5.38594 9.69337,7.18126 14.98066,4.48829c5.28729,-3.59063 4.40608,-8.07891 -2.64365,-13.46486zm-1183.47203,-3.59063c-2.64365,-8.97657 0.88122,-13.46486 10.57458,-13.46486c7.93094,0 21.14917,-3.59063 28.19889,-8.97657c10.57458,-6.2836 10.57458,-10.77189 -3.52486,-26.03206c-20.26795,-22.44143 -31.72375,-24.23674 -31.72375,-3.59063c0,12.5672 -1.76243,12.5672 -17.6243,-1.79531c-21.14917,-19.74846 -23.79281,-9.87423 -3.52486,11.66954c12.33701,11.66954 12.33701,15.26017 1.76243,23.33909c-15.86187,11.66954 -10.57458,32.31566 7.93094,32.31566c7.93094,0 11.4558,-5.38594 7.93094,-13.46486zm-137.46957,-169.6572c0,-2.69297 -3.52486,-7.18126 -8.81215,-9.87423c-4.40608,-2.69297 -8.81215,-0.89766 -8.81215,3.59063c0,5.38594 4.40608,9.87423 8.81215,9.87423c5.28729,0 8.81215,-1.79531 8.81215,-3.59063zm-929.68205,-23.33909c-2.64365,-4.48829 -10.57458,-8.97657 -15.86187,-8.97657c-6.16851,0 -5.28729,3.59063 2.64365,8.97657c16.74309,10.77189 20.26795,10.77189 13.21823,0zm-46.70441,-13.46486c17.6243,0 12.33701,-14.36251 -15.86187,-43.9852c-24.67403,-26.03206 -34.36739,-30.52034 -43.17955,-23.33909c-7.04972,5.38594 -9.69337,17.05549 -7.04972,25.1344c8.81215,25.1344 39.65468,55.65474 50.22927,48.47349c5.28729,-3.59063 12.33701,-6.2836 15.86187,-6.2836zm932.3257,6.2836c0,-15.26017 -29.0801,-47.57583 -54.63534,-61.04069c-30.84253,-16.15783 -27.31767,-6.2836 14.09944,39.49691c26.43646,27.82737 40.5359,35.90629 40.5359,21.54377zm992.24833,-35.00863c-5.28729,-5.38594 -40.5359,17.95314 -40.5359,26.92971c0,3.59063 9.69337,0 22.03038,-8.07891c12.33701,-8.07891 21.14917,-17.05549 18.50552,-18.8508zm34.36739,14.36251c9.69337,-15.26017 -0.88122,-18.8508 -13.21823,-3.59063c-7.04972,8.07891 -7.04972,13.46486 -1.76243,13.46486c5.28729,0 12.33701,-4.48829 14.98066,-9.87423zm-2057.63753,-52.96177c0,-4.48829 -4.40608,-8.97657 -9.69337,-8.97657c-4.40608,0 -6.16851,4.48829 -3.52486,8.97657c2.64365,5.38594 7.04972,8.97657 9.69337,8.97657c1.76243,0 3.52486,-3.59063 3.52486,-8.97657zm934.08813,-22.44143c-6.16851,-7.18126 -14.98066,-13.46486 -19.38673,-13.46486c-5.28729,0 -4.40608,6.2836 1.76243,13.46486c6.16851,7.18126 14.98066,13.46486 19.38673,13.46486c5.28729,0 4.40608,-6.2836 -1.76243,-13.46486zm-974.62403,-17.95314c-5.28729,-14.36251 -21.14917,-18.8508 -21.14917,-6.2836c0,9.87423 9.69337,19.74846 18.50552,19.74846c4.40608,0 5.28729,-6.2836 2.64365,-13.46486zm1027.49694,-44.88286c0,-7.18126 -7.93094,-17.05549 -17.6243,-22.44143c-20.26795,-10.77189 -22.03038,-6.2836 -8.81215,18.8508c11.4558,19.74846 26.43646,22.44143 26.43646,3.59063zm-1101.51902,-26.92971c0,-7.18126 -8.81215,-17.05549 -18.50552,-23.33909c-10.57458,-5.38594 -16.74309,-6.2836 -14.98066,-1.79531c2.64365,3.59063 7.04972,14.36251 9.69337,23.33909c7.04972,18.8508 23.79281,20.64611 23.79281,1.79531zm-64.32871,-105.92354c-82.83423,-79.89149 -104.86461,-106.8212 -67.85357,-87.07274c9.69337,5.38594 17.6243,7.18126 17.6243,3.59063c0,-11.66954 -37.01104,-58.34772 -54.63534,-67.32429c-16.74309,-8.97657 -17.6243,-8.07891 -14.09944,12.5672c4.40608,25.1344 -14.09944,25.1344 -22.9116,0c-4.40608,-10.77189 -7.93094,-11.66954 -18.50552,-2.69297c-11.4558,9.87423 -15.86187,8.97657 -25.55524,-5.38594c-7.04972,-8.97657 -14.98066,-15.26017 -17.6243,-12.5672c-7.93094,8.07891 64.32871,87.9704 85.47788,94.254c46.70441,14.36251 67.85357,28.72503 86.35909,58.34772c20.26795,32.31566 104.86461,102.33292 112.79555,93.35634c3.52486,-2.69297 -33.48618,-42.18989 -81.0718,-87.07274zm2384.56837,61.04069c8.81215,-12.5672 12.33701,-22.44143 8.81215,-22.44143c-12.33701,0.89766 -37.89225,24.23674 -37.89225,35.00863c0,16.15783 12.33701,10.77189 29.0801,-12.5672zm130.41985,-9.87423c6.16851,-7.18126 26.43646,-21.54377 44.06076,-31.418c33.48618,-17.05549 48.46684,-32.31566 40.5359,-40.39457c-6.16851,-7.18126 -56.39777,20.64611 -65.20993,35.90629c-3.52486,6.2836 -15.86187,16.15783 -26.43646,22.44143c-11.4558,5.38594 -20.26795,14.36251 -20.26795,18.8508c0,13.46486 14.09944,10.77189 27.31767,-5.38594zm-60.80385,-51.16646c9.69337,-8.07891 13.21823,-18.8508 9.69337,-31.418c-4.40608,-19.74846 -29.0801,-27.82737 -29.0801,-10.77189c0,5.38594 -5.28729,8.97657 -11.4558,8.97657c-7.93094,0 -12.33701,11.66954 -13.21823,31.418c-0.88122,33.21331 4.40608,34.11097 44.06076,1.79531zm84.59666,-2.69297c19.38673,-13.46486 28.19889,-57.45006 10.57458,-57.45006c-4.40608,0 -8.81215,4.48829 -8.81215,9.87423c0,4.48829 -7.93094,8.07891 -16.74309,6.2836c-11.4558,-1.79531 -24.67403,8.07891 -39.65468,31.418l-23.79281,35.00863l29.0801,-6.2836c15.86187,-3.59063 37.89225,-11.66954 49.34805,-18.8508zm574.55232,-8.07891c9.69337,-11.66954 8.81215,-12.5672 -3.52486,-8.07891c-7.93094,2.69297 -14.09944,8.97657 -14.09944,13.46486c0,11.66954 5.28729,9.87423 17.6243,-5.38594zm-718.1904,-4.48829c2.64365,-4.48829 0.88122,-8.97657 -3.52486,-8.97657c-5.28729,0 -9.69337,4.48829 -9.69337,8.97657c0,5.38594 1.76243,8.97657 3.52486,8.97657c2.64365,0 7.04972,-3.59063 9.69337,-8.97657zm306.66289,-21.54377c7.93094,-6.2836 14.98066,-14.36251 14.98066,-17.95314c0,-11.66954 -24.67403,-4.48829 -39.65468,12.5672c-18.50552,21.54377 -0.88122,25.1344 24.67403,5.38594zm328.69328,-43.08754c21.14917,-15.26017 37.01104,-29.62269 35.24861,-32.31566c-3.52486,-2.69297 -51.11048,28.72503 -79.30937,53.85943c-22.9116,19.74846 9.69337,3.59063 44.06076,-21.54377zm-542.82857,0.89766c0,-5.38594 -3.52486,-6.2836 -8.81215,-3.59063c-4.40608,2.69297 -8.81215,9.87423 -8.81215,14.36251c0,5.38594 4.40608,6.2836 8.81215,3.59063c5.28729,-2.69297 8.81215,-9.87423 8.81215,-14.36251zm35.24861,-26.03206c0,-4.48829 -3.52486,-8.97657 -8.81215,-8.97657c-4.40608,0 -8.81215,4.48829 -8.81215,8.97657c0,5.38594 4.40608,8.97657 8.81215,8.97657c5.28729,0 8.81215,-3.59063 8.81215,-8.97657zm77.54694,-6.2836c46.70441,-41.29223 55.51656,-47.57583 60.80385,-47.57583c3.52486,0 1.76243,4.48829 -4.40608,10.77189c-16.74309,17.05549 -12.33701,26.92971 7.04972,16.15783c9.69337,-5.38594 17.6243,-16.15783 17.6243,-25.1344c0,-10.77189 7.93094,-15.26017 27.31767,-16.15783c34.36739,-1.79531 62.56628,-26.92971 43.17955,-39.49691c-10.57458,-7.18126 -10.57458,-9.87423 1.76243,-24.23674c7.04972,-8.97657 11.4558,-21.54377 9.69337,-27.82737c-2.64365,-6.2836 2.64365,-17.95314 11.4558,-24.23674c22.03038,-17.05549 10.57458,-17.05549 -24.67403,0.89766c-17.6243,8.97657 -36.12982,28.72503 -47.58562,51.16646c-13.21823,26.92971 -30.84253,44.88286 -60.80385,61.93834c-38.77347,21.54377 -74.02208,55.65474 -74.90329,72.71023c0,10.77189 14.09944,7.18126 33.48618,-8.97657zm-2666.55724,-67.32429c-21.14917,-19.74846 -40.5359,-33.21331 -44.06076,-29.62269c-3.52486,3.59063 11.4558,22.44143 31.72375,42.18989c21.14917,19.74846 40.5359,33.21331 44.06076,29.62269c3.52486,-3.59063 -11.4558,-22.44143 -31.72375,-42.18989zm447.65733,33.21331c-6.16851,-8.07891 -13.21823,-11.66954 -14.98066,-9.87423c-6.16851,6.2836 6.16851,23.33909 16.74309,23.33909c5.28729,0 5.28729,-5.38594 -1.76243,-13.46486zm2207.44411,-4.48829c2.64365,-4.48829 -0.88122,-8.97657 -7.93094,-8.97657c-7.04972,0 -15.86187,4.48829 -18.50552,8.97657c-2.64365,5.38594 0.88122,8.97657 7.93094,8.97657c7.04972,0 15.86187,-3.59063 18.50552,-8.97657zm478.49986,-49.37114c63.4475,-63.73366 48.46684,-63.73366 -20.26795,0c-29.0801,26.92971 -46.70441,49.37114 -40.5359,49.37114c6.16851,0 34.36739,-22.44143 60.80385,-49.37114zm-3221.72283,2.69297c-6.16851,-6.2836 -10.57458,-7.18126 -10.57458,-1.79531c0,5.38594 2.64365,12.5672 6.16851,15.26017c2.64365,3.59063 7.93094,4.48829 10.57458,1.79531c1.76243,-2.69297 -0.88122,-9.87423 -6.16851,-15.26017zm3346.85539,-105.92354c11.4558,-7.18126 11.4558,-8.97657 -1.76243,-8.97657c-7.93094,0 -17.6243,4.48829 -20.26795,8.97657c-7.04972,11.66954 4.40608,11.66954 22.03038,0zm-2921.22844,-62.836c-17.6243,-20.64611 -25.55524,-18.8508 -16.74309,3.59063c2.64365,8.07891 11.4558,14.36251 19.38673,14.36251c11.4558,0 10.57458,-2.69297 -2.64365,-17.95314zm-497.8866,-26.92971c0,-8.97657 -88.12152,-112.20714 -96.93367,-112.20714c-2.64365,0 -9.69337,-3.59063 -16.74309,-8.07891c-8.81215,-5.38594 -10.57458,-4.48829 -7.93094,4.48829c2.64365,7.18126 11.4558,11.66954 19.38673,11.66954c7.93094,-0.89766 14.09944,3.59063 14.09944,9.87423c0,12.5672 71.37843,103.23057 81.95301,103.23057c3.52486,0 6.16851,-3.59063 6.16851,-8.97657z"/>
    <path fill="#000000" stroke="null" id="svg_6" d="m6121.90006,8937.71403c-7.04972,-6.2836 -20.26795,-21.54377 -29.96132,-33.21331l-17.6243,-21.54377l28.19889,20.64611c15.86187,11.66954 29.96132,26.03206 32.60496,33.21331c6.16851,14.36251 3.52486,14.36251 -13.21823,0.89766z"/>
    <path fill="#000000" stroke="null" id="svg_7" d="m5630.18197,8759.08025c-12.33701,-35.90629 -12.33701,-35.00863 2.64365,-35.00863c13.21823,0 22.9116,18.8508 22.9116,45.78051c0,26.92971 -14.98066,19.74846 -25.55524,-10.77189z"/>
    <path fill="#000000" stroke="null" id="svg_8" d="m5191.33679,8533.7683c-20.26795,-26.92971 -20.26795,-32.31566 -0.88122,-26.92971c22.03038,5.38594 34.36739,19.74846 28.19889,30.52034c-6.16851,10.77189 -17.6243,8.97657 -27.31767,-3.59063z"/>
    <path fill="#000000" stroke="null" id="svg_9" d="m5104.9777,8439.5143l-14.98066,-25.1344l20.26795,19.74846c10.57458,10.77189 17.6243,22.44143 14.98066,25.1344c-2.64365,2.69297 -11.4558,-6.2836 -20.26795,-19.74846z"/>
    <path fill="#000000" stroke="null" id="svg_10" d="m4704.02478,8019.41075c-31.72375,-33.21331 -30.84253,-55.65474 0.88122,-26.03206c20.26795,18.8508 37.89225,47.57583 32.60496,53.85943c-2.64365,1.79531 -17.6243,-10.77189 -33.48618,-27.82737z"/>
    <path fill="#000000" stroke="null" id="svg_11" d="m5880.44709,8005.04824c-3.52486,-5.38594 -4.40608,-11.66954 -1.76243,-14.36251c6.16851,-6.2836 23.79281,5.38594 23.79281,16.15783c0,10.77189 -14.98066,10.77189 -22.03038,-1.79531z"/>
    <path fill="#000000" stroke="null" id="svg_12" d="m4648.50822,7963.75601c-3.52486,-2.69297 -6.16851,-9.87423 -6.16851,-15.26017c0,-5.38594 4.40608,-4.48829 10.57458,1.79531c5.28729,5.38594 7.93094,12.5672 6.16851,15.26017c-2.64365,2.69297 -7.93094,1.79531 -10.57458,-1.79531z"/>
    <path fill="#000000" stroke="null" id="svg_13" d="m5980.02441,7878.47858c-14.09944,-4.48829 -24.67403,-12.5672 -24.67403,-17.05549c0,-8.07891 41.41712,7.18126 57.27899,20.64611c10.57458,9.87423 -1.76243,8.07891 -32.60496,-3.59063z"/>
    <path fill="#000000" stroke="null" id="svg_14" d="m5824.04932,7872.19498c-7.04972,-5.38594 -9.69337,-14.36251 -6.16851,-24.23674c4.40608,-10.77189 8.81215,-12.5672 14.98066,-6.2836c14.09944,14.36251 6.16851,40.39457 -8.81215,30.52034z"/>
    <path fill="#000000" stroke="null" id="svg_15" d="m4527.78173,7768.06675c-7.04972,-8.07891 -7.04972,-13.46486 -1.76243,-13.46486c10.57458,0 22.9116,17.05549 16.74309,23.33909c-1.76243,1.79531 -8.81215,-1.79531 -14.98066,-9.87423z"/>
    <path fill="#000000" stroke="null" id="svg_16" d="m4369.163,7705.23075c-6.16851,-8.07891 -9.69337,-16.15783 -7.04972,-17.95314c2.64365,-2.69297 9.69337,0.89766 15.86187,8.97657c6.16851,8.07891 9.69337,16.15783 7.04972,17.95314c-2.64365,2.69297 -9.69337,-0.89766 -15.86187,-8.97657z"/>
    <path fill="#000000" stroke="null" id="svg_17" d="m271.51225,7664.83618c0,-4.48829 6.16851,-8.97657 14.09944,-8.97657c7.04972,0 10.57458,4.48829 7.93094,8.97657c-2.64365,5.38594 -8.81215,8.97657 -14.09944,8.97657c-4.40608,0 -7.93094,-3.59063 -7.93094,-8.97657z"/>
    <path fill="#000000" stroke="null" id="svg_18" d="m319.97908,7664.83618c-2.64365,-4.48829 0,-8.97657 6.16851,-8.97657c7.93094,0 11.4558,-11.66954 10.57458,-35.90629c0,-20.64611 2.64365,-38.59926 7.04972,-41.29223c4.40608,-2.69297 4.40608,-8.97657 1.76243,-14.36251c-4.40608,-6.2836 2.64365,-8.07891 19.38673,-4.48829c30.84253,5.38594 65.20993,-7.18126 65.20993,-24.23674c0,-7.18126 14.98066,-17.95314 33.48618,-24.23674c17.6243,-5.38594 40.5359,-14.36251 49.34805,-19.74846c16.74309,-8.07891 58.1602,-14.36251 121.6077,-17.95314c17.6243,-0.89766 37.89225,-7.18126 43.17955,-12.5672c6.16851,-6.2836 15.86187,-11.66954 22.03038,-11.66954c6.16851,0 12.33701,5.38594 14.98066,11.66954c2.64365,9.87423 -30.84253,32.31566 -111.03312,75.4032c-13.21823,7.18126 -29.0801,21.54377 -35.24861,30.52034c-5.28729,8.97657 -19.38673,17.05549 -29.96132,17.05549c-10.57458,0 -24.67403,5.38594 -30.84253,11.66954c-21.14917,18.8508 -69.616,42.18989 -89.00274,42.18989c-10.57458,0 -30.84253,8.07891 -45.82319,17.95314c-29.0801,19.74846 -44.94198,22.44143 -52.87291,8.97657z"/>
    <path fill="#000000" stroke="null" id="svg_19" d="m2047.1609,7530.1876c2.64365,-4.48829 12.33701,-8.97657 20.26795,-8.97657c13.21823,0 13.21823,1.79531 1.76243,8.97657c-17.6243,11.66954 -29.0801,11.66954 -22.03038,0z"/>
    <path fill="#000000" stroke="null" id="svg_20" d="m4001.69625,7279.74126c-30.84253,-26.03206 -38.77347,-43.08754 -13.21823,-28.72503c29.96132,17.95314 47.58562,35.90629 44.94198,43.9852c-1.76243,5.38594 -16.74309,-1.79531 -31.72375,-15.26017z"/>
    <path fill="#000000" stroke="null" id="svg_21" d="m3893.30678,7173.81771c0,-6.2836 -10.57458,-16.15783 -23.79281,-22.44143c-12.33701,-6.2836 -25.55524,-17.05549 -27.31767,-24.23674c-2.64365,-8.07891 0,-9.87423 7.04972,-5.38594c6.16851,3.59063 3.52486,-4.48829 -5.28729,-18.8508l-15.86187,-26.03206l29.96132,26.92971c16.74309,15.26017 35.24861,32.31566 42.29833,37.7016c7.93094,8.07891 8.81215,16.15783 2.64365,26.92971c-5.28729,8.97657 -9.69337,11.66954 -9.69337,5.38594z"/>
    <path fill="#000000" stroke="null" id="svg_22" d="m449.51772,7142.39971c4.40608,-13.46486 24.67403,-20.64611 24.67403,-8.97657c0,4.48829 -6.16851,11.66954 -14.09944,14.36251c-8.81215,3.59063 -12.33701,0.89766 -10.57458,-5.38594z"/>
    <path fill="#000000" stroke="null" id="svg_23" d="m3777.86759,7066.09885l-21.14917,-25.1344l24.67403,21.54377c13.21823,12.5672 23.79281,23.33909 23.79281,25.1344c0,7.18126 -7.04972,0.89766 -27.31767,-21.54377z"/>
    <path fill="#000000" stroke="null" id="svg_24" d="m3756.71842,7018.52303c-23.79281,-24.23674 -40.5359,-46.67817 -37.89225,-49.37114c2.64365,-2.69297 13.21823,4.48829 22.9116,17.05549c9.69337,13.46486 21.14917,23.33909 24.67403,23.33909c4.40608,0 14.98066,12.5672 22.9116,26.92971c7.93094,15.26017 14.09944,26.92971 13.21823,26.92971c-1.76243,0 -22.03038,-19.74846 -45.82319,-44.88286z"/>
    <path fill="#000000" stroke="null" id="svg_25" d="m483.0039,6987.10503c0,-7.18126 -5.28729,-14.36251 -10.57458,-14.36251c-13.21823,-1.79531 33.48618,-14.36251 57.27899,-16.15783c7.93094,0 14.98066,3.59063 14.98066,8.07891c0,5.38594 -7.93094,8.97657 -17.6243,8.97657c-9.69337,0 -20.26795,6.2836 -22.9116,13.46486c-3.52486,7.18126 -8.81215,13.46486 -13.21823,13.46486c-4.40608,0 -7.93094,-6.2836 -7.93094,-13.46486z"/>
    <path fill="#000000" stroke="null" id="svg_26" d="m520.01494,6860.53537c14.09944,-14.36251 35.24861,-26.03206 52.87291,-27.82737l29.0801,-2.69297l-30.84253,20.64611c-16.74309,11.66954 -40.5359,25.1344 -52.87291,28.72503l-22.03038,6.2836l23.79281,-25.1344z"/>
    <path fill="#000000" stroke="null" id="svg_27" d="m622.2359,6841.68457c6.16851,-2.69297 14.09944,-1.79531 16.74309,0.89766c3.52486,2.69297 -1.76243,5.38594 -11.4558,4.48829c-9.69337,0 -12.33701,-2.69297 -5.28729,-5.38594z"/>
    <path fill="#000000" stroke="null" id="svg_28" d="m5431.02733,6657.66485c-14.98066,-26.03206 -14.98066,-27.82737 -0.88122,-17.05549c18.50552,15.26017 35.24861,45.78051 25.55524,45.78051c-4.40608,0 -14.98066,-13.46486 -24.67403,-28.72503z"/>
    <path fill="#000000" stroke="null" id="svg_29" d="m5484.78146,6653.17656c-5.28729,-12.5672 -4.40608,-13.46486 4.40608,-5.38594c6.16851,6.2836 8.81215,13.46486 6.16851,16.15783c-2.64365,2.69297 -7.93094,-1.79531 -10.57458,-10.77189z"/>
    <path fill="#000000" stroke="null" id="svg_30" d="m3322.27932,6604.70308c-10.57458,-17.05549 -9.69337,-17.05549 7.04972,-8.07891c9.69337,5.38594 17.6243,13.46486 17.6243,17.95314c0,15.26017 -13.21823,9.87423 -24.67403,-9.87423z"/>
    <path fill="#000000" stroke="null" id="svg_31" d="m3216.53349,6549.94599c-10.57458,-5.38594 -22.03038,-19.74846 -24.67403,-31.418c-3.52486,-11.66954 -12.33701,-25.1344 -20.26795,-29.62269c-12.33701,-7.18126 -11.4558,-8.07891 4.40608,-8.97657c20.26795,0 38.77347,16.15783 38.77347,35.00863c0,7.18126 6.16851,20.64611 14.98066,29.62269c15.86187,17.95314 14.98066,18.8508 -13.21823,5.38594z"/>
    <path fill="#000000" stroke="null" id="svg_32" d="m3104.61916,6435.04587c-14.09944,-6.2836 -14.98066,-8.07891 -2.64365,-8.07891c7.93094,-0.89766 17.6243,3.59063 20.26795,8.07891c6.16851,9.87423 6.16851,9.87423 -17.6243,0z"/>
    <path fill="#000000" stroke="null" id="svg_33" d="m1187.97607,6327.32702c0,-9.87423 1.76243,-17.95314 3.52486,-17.95314c1.76243,0 9.69337,-2.69297 17.6243,-5.38594c11.4558,-4.48829 11.4558,-1.79531 2.64365,17.95314c-12.33701,27.82737 -23.79281,30.52034 -23.79281,5.38594z"/>
    <path fill="#000000" stroke="null" id="svg_34" d="m1597.74115,6044.56501c14.98066,-11.66954 29.96132,-21.54377 33.48618,-22.44143c11.4558,0 -9.69337,33.21331 -25.55524,39.49691c-29.96132,11.66954 -33.48618,4.48829 -7.93094,-17.05549z"/>
    <path fill="#000000" stroke="null" id="svg_35" d="m1782.79634,5977.24072c2.64365,-4.48829 7.04972,-8.97657 9.69337,-8.97657c1.76243,0 3.52486,4.48829 3.52486,8.97657c0,5.38594 -4.40608,8.97657 -9.69337,8.97657c-4.40608,0 -6.16851,-3.59063 -3.52486,-8.97657z"/>
    <path fill="#000000" stroke="null" id="svg_36" d="m2174.93711,5665.75369c0,-3.59063 11.4558,-15.26017 24.67403,-25.1344l23.79281,-17.05549l-14.09944,21.54377c-14.09944,21.54377 -34.36739,34.11097 -34.36739,20.64611z"/>
    <path fill="#000000" stroke="null" id="svg_37" d="m2248.95919,5637.02866c18.50552,-20.64611 22.9116,-23.33909 22.9116,-9.87423c0,4.48829 -8.81215,13.46486 -19.38673,18.8508c-20.26795,10.77189 -20.26795,10.77189 -3.52486,-8.97657z"/>
    <path fill="#000000" stroke="null" id="svg_38" d="m2273.63322,5595.73643c-8.81215,-10.77189 -8.81215,-13.46486 0.88122,-13.46486c7.04972,0 19.38673,-8.07891 28.19889,-17.95314c12.33701,-13.46486 17.6243,-15.26017 22.9116,-7.18126c4.40608,7.18126 0,19.74846 -11.4558,31.418c-22.03038,24.23674 -25.55524,24.23674 -40.5359,7.18126z"/>
    <path fill="#000000" stroke="null" id="svg_39" d="m2373.21053,5533.79809l-26.43646,-10.77189l23.79281,-16.15783c23.79281,-15.26017 23.79281,-16.15783 8.81215,-39.49691l-14.98066,-22.44143l24.67403,15.26017c13.21823,8.97657 23.79281,17.95314 23.79281,20.64611c0,1.79531 -10.57458,13.46486 -23.79281,26.03206c-20.26795,18.8508 -21.14917,20.64611 -5.28729,13.46486c10.57458,-5.38594 22.03038,-14.36251 24.67403,-18.8508c2.64365,-5.38594 12.33701,-8.97657 20.26795,-8.97657c12.33701,0.89766 10.57458,4.48829 -7.04972,19.74846c-12.33701,9.87423 -21.14917,22.44143 -19.38673,26.03206c2.64365,9.87423 3.52486,9.87423 -29.0801,-4.48829z"/>
    <path fill="#000000" stroke="null" id="svg_40" d="m4054.56916,5463.78083c5.28729,-9.87423 24.67403,-33.21331 41.41712,-50.2688c27.31767,-26.92971 28.19889,-28.72503 7.04972,-16.15783c-21.14917,12.5672 -24.67403,12.5672 -24.67403,1.79531c0,-8.97657 -5.28729,-11.66954 -14.98066,-8.07891c-14.09944,5.38594 -14.09944,4.48829 -3.52486,-9.87423c8.81215,-10.77189 14.09944,-12.5672 18.50552,-4.48829c5.28729,7.18126 11.4558,7.18126 24.67403,0c31.72375,-17.05549 29.96132,13.46486 -2.64365,50.2688c-16.74309,18.8508 -30.84253,36.80394 -30.84253,39.49691c0,3.59063 -6.16851,8.07891 -13.21823,11.66954c-10.57458,3.59063 -11.4558,1.79531 -1.76243,-14.36251z"/>
    <path fill="#000000" stroke="null" id="svg_41" d="m3946.17969,5404.53546c0,-23.33909 8.81215,-29.62269 22.03038,-17.05549c7.93094,7.18126 8.81215,14.36251 2.64365,22.44143c-13.21823,16.15783 -24.67403,13.46486 -24.67403,-5.38594z"/>
    <path fill="#000000" stroke="null" id="svg_42" d="m4093.34263,5342.59712c7.04972,-18.8508 124.25135,-137.34154 135.70714,-137.34154c15.86187,0 7.04972,28.72503 -9.69337,33.21331c-9.69337,2.69297 -14.98066,8.07891 -12.33701,12.5672c2.64365,4.48829 -7.93094,21.54377 -23.79281,36.80394c-14.98066,16.15783 -29.0801,35.00863 -29.96132,42.18989c-1.76243,8.07891 -3.52486,16.15783 -3.52486,18.8508c-0.88122,2.69297 -4.40608,-0.89766 -8.81215,-8.07891c-7.04972,-10.77189 -11.4558,-10.77189 -30.84253,1.79531c-21.14917,14.36251 -22.03038,14.36251 -16.74309,0zm55.51656,-39.49691c0,-5.38594 -3.52486,-6.2836 -8.81215,-3.59063c-4.40608,2.69297 -8.81215,9.87423 -8.81215,14.36251c0,5.38594 4.40608,6.2836 8.81215,3.59063c5.28729,-2.69297 8.81215,-9.87423 8.81215,-14.36251z"/>
    <path fill="#000000" stroke="null" id="svg_43" d="m4236.98071,5314.76974c0,-4.48829 6.16851,-13.46486 13.21823,-19.74846c7.04972,-6.2836 13.21823,-7.18126 13.21823,-1.79531c0,4.48829 -6.16851,13.46486 -13.21823,19.74846c-7.04972,6.2836 -13.21823,7.18126 -13.21823,1.79531z"/>
    <path fill="#000000" stroke="null" id="svg_44" d="m4043.11337,5303.99786c0,-4.48829 4.40608,-8.97657 9.69337,-8.97657c4.40608,0 6.16851,4.48829 3.52486,8.97657c-2.64365,5.38594 -7.04972,8.97657 -9.69337,8.97657c-1.76243,0 -3.52486,-3.59063 -3.52486,-8.97657z"/>
    <path fill="#000000" stroke="null" id="svg_45" d="m4272.22932,5264.50094c0,-7.18126 -4.40608,-14.36251 -10.57458,-16.15783c-7.04972,-2.69297 -3.52486,-10.77189 9.69337,-21.54377c11.4558,-8.97657 28.19889,-24.23674 37.01104,-32.31566c26.43646,-26.03206 78.42815,-48.47349 53.75413,-23.33909c-6.16851,6.2836 -7.04972,15.26017 -1.76243,25.1344c9.69337,17.95314 4.40608,26.03206 -36.12982,56.5524c-35.24861,26.92971 -51.9917,30.52034 -51.9917,11.66954zm79.30937,-64.63132c0,-14.36251 -7.93094,-16.15783 -25.55524,-4.48829c-6.16851,4.48829 -9.69337,12.5672 -6.16851,17.05549c7.93094,13.46486 31.72375,3.59063 31.72375,-12.5672z"/>
    <path fill="#000000" stroke="null" id="svg_46" d="m4435.25414,5027.51945c-20.26795,-17.95314 -22.9116,-47.57583 -5.28729,-53.85943c7.04972,-2.69297 9.69337,0 6.16851,6.2836c-7.93094,12.5672 0,12.5672 22.03038,0.89766c11.4558,-7.18126 16.74309,-6.2836 16.74309,0c0,5.38594 4.40608,7.18126 9.69337,3.59063c10.57458,-6.2836 10.57458,-5.38594 -8.81215,35.00863c-14.09944,27.82737 -16.74309,28.72503 -40.5359,8.07891z"/>
    <path fill="#000000" stroke="null" id="svg_47" d="m4508.395,5021.23585c3.52486,-21.54377 51.11048,-67.32429 68.73479,-67.32429c4.40608,0 0.88122,4.48829 -7.93094,9.87423c-7.93094,5.38594 -13.21823,13.46486 -9.69337,17.95314c5.28729,8.97657 -37.01104,61.93834 -49.34805,61.93834c-3.52486,0 -4.40608,-9.87423 -1.76243,-22.44143z"/>
    <path fill="#000000" stroke="null" id="svg_48" d="m4621.19055,4957.5022c-7.93094,-21.54377 -7.04972,-23.33909 14.98066,-16.15783c27.31767,8.07891 29.96132,12.5672 14.98066,21.54377c-18.50552,11.66954 -23.79281,10.77189 -29.96132,-5.38594z"/>
    <path fill="#000000" stroke="null" id="svg_49" d="m4518.96958,4944.935c5.28729,-9.87423 13.21823,-16.15783 18.50552,-12.5672c5.28729,3.59063 5.28729,9.87423 -1.76243,17.95314c-14.98066,18.8508 -27.31767,15.26017 -16.74309,-5.38594z"/>
    <path fill="#000000" stroke="null" id="svg_50" d="m4726.05516,4882.09899c8.81215,-9.87423 17.6243,-16.15783 20.26795,-13.46486c6.16851,5.38594 -15.86187,31.418 -27.31767,31.418c-4.40608,0 -1.76243,-8.07891 7.04972,-17.95314z"/>
    <path fill="#000000" stroke="null" id="svg_51" d="m4589.4668,4877.61071c0,-8.97657 8.81215,-13.46486 22.9116,-13.46486c19.38673,0 22.03038,1.79531 12.33701,13.46486c-6.16851,7.18126 -16.74309,13.46486 -22.9116,13.46486c-7.04972,0 -12.33701,-6.2836 -12.33701,-13.46486z"/>
    <path fill="#000000" stroke="null" id="svg_52" d="m4717.24301,4855.16928c2.64365,-4.48829 7.04972,-8.97657 9.69337,-8.97657c1.76243,0 3.52486,4.48829 3.52486,8.97657c0,5.38594 -4.40608,8.97657 -9.69337,8.97657c-4.40608,0 -6.16851,-3.59063 -3.52486,-8.97657z"/>
    <path fill="#000000" stroke="null" id="svg_53" d="m4686.40047,4808.49111c9.69337,-10.77189 17.6243,-26.92971 17.6243,-35.90629c0,-19.74846 31.72375,-38.59926 38.77347,-22.44143c2.64365,8.07891 7.93094,6.2836 16.74309,-4.48829c7.04972,-8.97657 14.98066,-16.15783 17.6243,-16.15783c9.69337,0 75.78451,-65.52897 72.25965,-71.81257c-2.64365,-3.59063 5.28729,-8.97657 17.6243,-10.77189c12.33701,-2.69297 22.03038,-3.59063 22.03038,-1.79531c0,6.2836 -41.41712,45.78051 -63.4475,60.14303c-14.98066,8.97657 -24.67403,23.33909 -24.67403,35.00863c0,15.26017 2.64365,17.05549 10.57458,8.97657c6.16851,-6.2836 18.50552,-10.77189 27.31767,-10.77189c14.98066,0 15.86187,1.79531 5.28729,14.36251c-8.81215,11.66954 -8.81215,15.26017 1.76243,22.44143c9.69337,7.18126 8.81215,11.66954 -9.69337,26.92971c-18.50552,16.15783 -22.9116,16.15783 -30.84253,5.38594c-7.93094,-10.77189 -10.57458,-10.77189 -20.26795,-0.89766c-18.50552,20.64611 -30.84253,14.36251 -26.43646,-13.46486c3.52486,-22.44143 1.76243,-25.1344 -9.69337,-18.8508c-7.93094,3.59063 -23.79281,17.95314 -35.24861,30.52034c-12.33701,12.5672 -27.31767,23.33909 -33.48618,23.33909c-8.81215,0 -7.04972,-6.2836 6.16851,-19.74846z"/>
    <path fill="#000000" stroke="null" id="svg_54" d="m3272.05005,4810.28642c-2.64365,-4.48829 -1.76243,-8.97657 3.52486,-8.97657c4.40608,0 14.98066,-6.2836 22.03038,-14.36251c11.4558,-10.77189 14.09944,-10.77189 14.09944,-1.79531c0,13.46486 -16.74309,34.11097 -27.31767,34.11097c-3.52486,0 -9.69337,-3.59063 -12.33701,-8.97657z"/>
    <path fill="#000000" stroke="null" id="svg_55" d="m3626.29857,4782.45905c15.86187,-9.87423 33.48618,-17.05549 39.65468,-14.36251c6.16851,1.79531 -3.52486,10.77189 -22.9116,18.8508c-45.82319,19.74846 -51.11048,17.95314 -16.74309,-4.48829z"/>
    <path fill="#000000" stroke="null" id="svg_56" d="m1575.71076,4702.56756c-31.72375,-29.62269 -51.9917,-52.96177 -45.82319,-53.85943c12.33701,0 112.79555,96.04932 106.62704,102.33292c-1.76243,2.69297 -29.96132,-19.74846 -60.80385,-48.47349z"/>
    <path fill="#000000" stroke="null" id="svg_57" d="m2503.63039,4687.30739c-35.24861,-37.7016 -62.56628,-70.91492 -59.92263,-72.71023c4.40608,-5.38594 63.4475,40.39457 118.96405,91.56103c29.0801,26.92971 34.36739,35.90629 25.55524,42.18989c-7.04972,4.48829 -14.09944,8.07891 -16.74309,8.07891c-2.64365,-0.89766 -33.48618,-31.418 -67.85357,-69.1196z"/>
    <path fill="#000000" stroke="null" id="svg_58" d="m4855.59379,4713.33945c5.28729,-12.5672 81.0718,-79.89149 97.81489,-85.27743c22.9116,-8.97657 18.50552,8.97657 -7.04972,26.03206c-12.33701,8.07891 -22.03038,18.8508 -22.03038,23.33909c0,13.46486 -37.89225,42.18989 -55.51656,43.08754c-8.81215,0 -14.98066,-3.59063 -13.21823,-7.18126z"/>
    <path fill="#000000" stroke="null" id="svg_59" d="m2562.67181,4672.04722c0,-7.18126 -2.64365,-20.64611 -6.16851,-29.62269c-5.28729,-15.26017 -5.28729,-15.26017 13.21823,0c9.69337,9.87423 15.86187,22.44143 13.21823,29.62269c-6.16851,16.15783 -20.26795,16.15783 -20.26795,0z"/>
    <path fill="#000000" stroke="null" id="svg_60" d="m4726.93637,4637.03859c8.81215,-12.5672 22.03038,-26.03206 29.0801,-28.72503c22.9116,-9.87423 17.6243,0.89766 -14.09944,26.92971l-32.60496,26.03206l17.6243,-24.23674z"/>
    <path fill="#000000" stroke="null" id="svg_61" d="m3518.79031,4621.77842c2.64365,-4.48829 7.04972,-8.97657 9.69337,-8.97657c1.76243,0 3.52486,4.48829 3.52486,8.97657c0,5.38594 -4.40608,8.97657 -9.69337,8.97657c-4.40608,0 -6.16851,-3.59063 -3.52486,-8.97657z"/>
    <path fill="#000000" stroke="null" id="svg_62" d="m4800.07724,4573.30493c22.9116,-25.1344 27.31767,-27.82737 27.31767,-15.26017c0,4.48829 -10.57458,15.26017 -23.79281,23.33909l-24.67403,16.15783l21.14917,-24.23674z"/>
    <path fill="#000000" stroke="null" id="svg_63" d="m2438.42046,4570.61196c-11.4558,-14.36251 -10.57458,-15.26017 3.52486,-3.59063c14.09944,11.66954 18.50552,18.8508 11.4558,18.8508c-1.76243,0 -8.81215,-7.18126 -14.98066,-15.26017z"/>
    <path fill="#000000" stroke="null" id="svg_64" d="m4950.76504,4576.89556c-10.57458,-7.18126 -10.57458,-8.97657 1.76243,-13.46486c22.9116,-8.97657 37.89225,-1.79531 22.9116,10.77189c-7.04972,6.2836 -16.74309,7.18126 -24.67403,2.69297z"/>
    <path fill="#000000" stroke="null" id="svg_65" d="m2355.58623,4549.06819c-9.69337,-15.26017 0.88122,-18.8508 13.21823,-3.59063c7.04972,8.07891 7.04972,13.46486 1.76243,13.46486c-5.28729,0 -12.33701,-4.48829 -14.98066,-9.87423z"/>
    <path fill="#000000" stroke="null" id="svg_66" d="m4845.01921,4532.91036c0,-5.38594 5.28729,-12.5672 11.4558,-15.26017c7.04972,-2.69297 21.14917,-17.05549 32.60496,-32.31566c10.57458,-15.26017 15.86187,-25.1344 9.69337,-21.54377c-5.28729,3.59063 -9.69337,1.79531 -9.69337,-3.59063c0,-6.2836 7.04972,-8.07891 16.74309,-4.48829c12.33701,3.59063 34.36739,-9.87423 79.30937,-46.67817c96.05246,-79.89149 115.43919,-94.254 115.43919,-86.17509c-0.88122,3.59063 -50.22927,49.37114 -111.03312,101.43526c-133.94471,114.00246 -144.5193,122.08137 -144.5193,108.61652z"/>
    <path fill="#000000" stroke="null" id="svg_67" d="m5082.94732,4524.83145c0,-10.77189 20.26795,-28.72503 32.60496,-28.72503c9.69337,0 9.69337,3.59063 0.88122,17.95314c-11.4558,17.95314 -33.48618,25.1344 -33.48618,10.77189z"/>
    <path fill="#000000" stroke="null" id="svg_68" d="m2474.55028,4509.57127c-17.6243,-21.54377 -5.28729,-25.1344 13.21823,-4.48829c8.81215,9.87423 11.4558,17.95314 7.04972,17.95314c-5.28729,0 -14.09944,-6.2836 -20.26795,-13.46486z"/>
    <path fill="#000000" stroke="null" id="svg_69" d="m5047.69871,4505.98065c0,-4.48829 14.98066,-18.8508 33.48618,-32.31566l32.60496,-25.1344l-29.96132,32.31566c-32.60496,35.00863 -36.12982,37.7016 -36.12982,25.1344z"/>
    <path fill="#000000" stroke="null" id="svg_70" d="m1353.64453,4486.23219c-27.31767,-20.64611 -34.36739,-41.29223 -7.93094,-25.1344c13.21823,8.97657 41.41712,44.88286 34.36739,43.9852c-1.76243,0 -13.21823,-8.97657 -26.43646,-18.8508z"/>
    <path fill="#000000" stroke="null" id="svg_71" d="m2500.98674,4459.30247c-47.58562,-42.18989 -70.49722,-51.16646 -36.12982,-13.46486c18.50552,18.8508 25.55524,32.31566 17.6243,31.418c-6.16851,0 -22.03038,-12.5672 -33.48618,-26.92971c-27.31767,-35.00863 -14.09944,-52.06412 22.9116,-28.72503c62.56628,39.49691 90.76517,58.34772 90.76517,61.93834c0,12.5672 -36.12982,-1.79531 -61.68507,-24.23674z"/>
    <path fill="#000000" stroke="null" id="svg_72" d="m2392.59727,4455.71185c-9.69337,-14.36251 -11.4558,-23.33909 -5.28729,-26.92971c5.28729,-3.59063 9.69337,-4.48829 10.57458,-3.59063c0.88122,1.79531 11.4558,14.36251 22.9116,28.72503c20.26795,22.44143 20.26795,24.23674 4.40608,24.23674c-8.81215,0 -23.79281,-9.87423 -32.60496,-22.44143z"/>
    <path fill="#000000" stroke="null" id="svg_73" d="m2322.10005,4401.85242c-43.17955,-26.03206 -85.47788,-67.32429 -85.47788,-82.58446c0,-17.05549 14.09944,-14.36251 32.60496,5.38594c8.81215,8.97657 23.79281,18.8508 33.48618,22.44143c30.84253,9.87423 67.85357,49.37114 59.92263,62.836c-6.16851,10.77189 -12.33701,9.87423 -40.5359,-8.07891z"/>
    <path fill="#000000" stroke="null" id="svg_74" d="m2379.37904,4407.23836c1.76243,-6.2836 6.16851,-10.77189 9.69337,-10.77189c10.57458,0.89766 7.93094,13.46486 -2.64365,17.95314c-6.16851,1.79531 -9.69337,-1.79531 -7.04972,-7.18126z"/>
    <path fill="#000000" stroke="null" id="svg_75" d="m4977.20149,4351.58362c22.9116,-16.15783 61.68507,-35.90629 61.68507,-31.418c0,5.38594 -58.1602,41.29223 -66.97236,41.29223c-4.40608,0 -1.76243,-4.48829 5.28729,-9.87423z"/>
    <path fill="#000000" stroke="null" id="svg_76" d="m4201.7321,4335.42579c0,-8.07891 50.22927,-51.16646 78.42815,-68.22194c8.81215,-5.38594 9.69337,-3.59063 4.40608,7.18126c-10.57458,17.95314 -82.83423,71.81257 -82.83423,61.04069z"/>
    <path fill="#000000" stroke="null" id="svg_77" d="m5190.45558,4314.77967c2.64365,-6.2836 10.57458,-12.5672 18.50552,-14.36251c10.57458,-1.79531 13.21823,0.89766 9.69337,10.77189c-6.16851,17.05549 -33.48618,19.74846 -28.19889,3.59063z"/>
    <path fill="#000000" stroke="null" id="svg_78" d="m2271.87078,4279.77104c0,-4.48829 4.40608,-6.2836 8.81215,-3.59063c5.28729,2.69297 8.81215,7.18126 8.81215,9.87423c0,1.79531 -3.52486,3.59063 -8.81215,3.59063c-4.40608,0 -8.81215,-4.48829 -8.81215,-9.87423z"/>
    <path fill="#000000" stroke="null" id="svg_79" d="m2285.08901,4253.73899c-8.81215,-9.87423 -11.4558,-17.95314 -7.04972,-17.95314c11.4558,0 33.48618,26.03206 27.31767,31.418c-2.64365,2.69297 -11.4558,-3.59063 -20.26795,-13.46486z"/>
    <path fill="#000000" stroke="null" id="svg_80" d="m2157.31281,4193.59596c-49.34805,-50.2688 -60.80385,-65.52897 -44.06076,-61.04069c12.33701,3.59063 22.03038,7.18126 22.9116,8.07891c7.04972,17.05549 32.60496,50.2688 38.77347,50.2688c15.86187,0 8.81215,-18.8508 -14.09944,-40.39457c-12.33701,-11.66954 -21.14917,-26.92971 -18.50552,-33.21331c2.64365,-7.18126 27.31767,11.66954 64.32871,51.16646c44.94198,46.67817 57.27899,62.836 45.82319,65.52897c-8.81215,1.79531 -13.21823,8.07891 -9.69337,16.15783c10.57458,29.62269 -23.79281,7.18126 -85.47788,-56.5524z"/>
    <path fill="#000000" stroke="null" id="svg_81" d="m4426.44198,4163.97327c8.81215,-9.87423 17.6243,-16.15783 20.26795,-13.46486c6.16851,5.38594 -15.86187,31.418 -27.31767,31.418c-4.40608,0 -1.76243,-8.07891 7.04972,-17.95314z"/>
    <path fill="#000000" stroke="null" id="svg_82" d="m1929.07807,4120.88573c-5.28729,-9.87423 -6.16851,-19.74846 -3.52486,-23.33909c2.64365,-2.69297 -1.76243,-13.46486 -9.69337,-22.44143c-8.81215,-9.87423 -14.09944,-25.1344 -12.33701,-35.00863c2.64365,-15.26017 5.28729,-16.15783 31.72375,-4.48829c24.67403,10.77189 28.19889,16.15783 28.19889,46.67817c0,42.18989 -20.26795,65.52897 -34.36739,38.59926z"/>
    <path fill="#000000" stroke="null" id="svg_83" d="m4664.37009,4084.08178c0.88122,-9.87423 7.93094,-26.03206 15.86187,-35.00863c7.93094,-8.97657 14.98066,-20.64611 14.98066,-26.03206c0,-13.46486 21.14917,-29.62269 51.9917,-38.59926l27.31767,-8.07891l-13.21823,26.92971c-8.81215,17.05549 -20.26795,26.03206 -33.48618,26.03206c-15.86187,0 -16.74309,1.79531 -6.16851,8.97657c14.98066,9.87423 4.40608,23.33909 -22.03038,28.72503c-9.69337,1.79531 -17.6243,8.97657 -17.6243,15.26017c0,7.18126 -4.40608,14.36251 -9.69337,16.15783c-5.28729,1.79531 -8.81215,-4.48829 -7.93094,-14.36251z"/>
    <path fill="#000000" stroke="null" id="svg_84" d="m1714.06155,4023.0411c-8.81215,-8.07891 -7.93094,-20.64611 1.76243,-20.64611c4.40608,0 9.69337,6.2836 13.21823,13.46486c4.40608,13.46486 -4.40608,17.95314 -14.98066,7.18126z"/>
    <path fill="#000000" stroke="null" id="svg_85" d="m1838.3129,3992.52075c-15.86187,-8.97657 -22.03038,-35.00863 -8.81215,-35.00863c3.52486,0 13.21823,10.77189 22.03038,22.44143c16.74309,23.33909 12.33701,27.82737 -13.21823,12.5672z"/>
    <path fill="#000000" stroke="null" id="svg_86" d="m894.5314,3962.89807c-44.06076,-27.82737 -45.82319,-30.52034 -18.50552,-26.92971c13.21823,0.89766 34.36739,12.5672 46.70441,25.1344c28.19889,28.72503 15.86187,29.62269 -28.19889,1.79531z"/>
    <path fill="#000000" stroke="null" id="svg_87" d="m1662.95107,3969.18167c-11.4558,-14.36251 -10.57458,-15.26017 3.52486,-3.59063c14.09944,11.66954 18.50552,18.8508 11.4558,18.8508c-1.76243,0 -8.81215,-7.18126 -14.98066,-15.26017z"/>
    <path fill="#000000" stroke="null" id="svg_88" d="m1863.86814,3959.30744c-13.21823,-14.36251 -21.14917,-28.72503 -17.6243,-32.31566c4.40608,-3.59063 3.52486,-6.2836 -1.76243,-5.38594c-18.50552,4.48829 -25.55524,-0.89766 -14.09944,-8.07891c15.86187,-9.87423 50.22927,6.2836 75.78451,35.00863c14.09944,16.15783 14.98066,20.64611 4.40608,26.92971c-18.50552,12.5672 -20.26795,11.66954 -46.70441,-16.15783z"/>
    <path fill="#000000" stroke="null" id="svg_89" d="m4817.70154,3941.35429c4.40608,-8.97657 14.98066,-21.54377 22.03038,-27.82737c10.57458,-8.97657 12.33701,-8.07891 7.93094,8.07891c-2.64365,9.87423 -12.33701,22.44143 -22.03038,27.82737c-14.98066,8.07891 -15.86187,7.18126 -7.93094,-8.07891z"/>
    <path fill="#000000" stroke="null" id="svg_90" d="m831.08391,3913.52692c-6.16851,-10.77189 10.57458,-21.54377 22.03038,-14.36251c9.69337,6.2836 3.52486,22.44143 -8.81215,22.44143c-4.40608,0 -9.69337,-3.59063 -13.21823,-8.07891z"/>
    <path fill="#000000" stroke="null" id="svg_91" d="m1721.99249,3888.39252l-15.86187,-34.11097l22.9116,21.54377c12.33701,12.5672 22.9116,26.92971 22.9116,34.11097c0,22.44143 -14.09944,11.66954 -29.96132,-21.54377z"/>
    <path fill="#000000" stroke="null" id="svg_92" d="m1888.54217,3903.65269c-2.64365,-4.48829 0.88122,-8.97657 7.93094,-8.97657c7.93094,0 14.09944,4.48829 14.09944,8.97657c0,5.38594 -3.52486,8.97657 -7.93094,8.97657c-5.28729,0 -11.4558,-3.59063 -14.09944,-8.97657z"/>
    <path fill="#000000" stroke="null" id="svg_93" d="m5188.69315,3891.08549c0,-1.79531 6.16851,-6.2836 14.09944,-8.97657c7.04972,-2.69297 10.57458,-1.79531 7.93094,3.59063c-5.28729,8.97657 -22.03038,12.5672 -22.03038,5.38594z"/>
    <path fill="#000000" stroke="null" id="svg_94" d="m1535.17487,3863.25812c-8.81215,-7.18126 -12.33701,-13.46486 -7.04972,-13.46486c5.28729,0 14.98066,6.2836 21.14917,13.46486c14.09944,17.05549 7.93094,17.05549 -14.09944,0z"/>
    <path fill="#000000" stroke="null" id="svg_95" d="m5230.11026,3870.43938c-2.64365,-4.48829 9.69337,-13.46486 25.55524,-21.54377c16.74309,-8.07891 29.96132,-13.46486 29.96132,-11.66954c0,7.18126 -51.9917,38.59926 -55.51656,33.21331z"/>
    <path fill="#000000" stroke="null" id="svg_96" d="m1760.76596,3825.55652c0,-8.97657 -2.64365,-26.03206 -5.28729,-38.59926c-5.28729,-22.44143 -5.28729,-21.54377 16.74309,4.48829c17.6243,21.54377 19.38673,27.82737 9.69337,37.7016c-14.98066,16.15783 -21.14917,14.36251 -21.14917,-3.59063z"/>
    <path fill="#000000" stroke="null" id="svg_97" d="m5796.73164,3829.14715c0,-2.69297 18.50552,-19.74846 41.41712,-38.59926c22.9116,-18.8508 38.77347,-29.62269 35.24861,-24.23674c-7.93094,12.5672 -76.66572,69.1196 -76.66572,62.836z"/>
    <path fill="#000000" stroke="null" id="svg_98" d="m1622.41517,3791.44555c-10.57458,-7.18126 -25.55524,-10.77189 -33.48618,-8.07891c-17.6243,7.18126 -47.58562,-23.33909 -45.82319,-46.67817c0.88122,-10.77189 -3.52486,-17.05549 -13.21823,-16.15783c-9.69337,0.89766 -15.86187,-4.48829 -15.86187,-13.46486c0,-21.54377 -85.47788,-91.56103 -103.10218,-84.37977c-9.69337,3.59063 -12.33701,1.79531 -9.69337,-7.18126c2.64365,-7.18126 -7.04972,-26.03206 -22.03038,-41.29223c-46.70441,-50.2688 -13.21823,-32.31566 45.82319,24.23674c30.84253,29.62269 61.68507,53.85943 67.85357,53.85943c16.74309,0 15.86187,-2.69297 -9.69337,-41.29223c-22.9116,-34.11097 -23.79281,-50.2688 -1.76243,-31.418c10.57458,8.07891 11.4558,6.2836 7.93094,-12.5672c-5.28729,-28.72503 0.88122,-28.72503 29.0801,2.69297c13.21823,13.46486 21.14917,31.418 18.50552,40.39457c-2.64365,9.87423 6.16851,26.03206 22.9116,41.29223c27.31767,26.03206 27.31767,45.78051 0,45.78051c-9.69337,0.89766 3.52486,17.95314 37.89225,49.37114c49.34805,45.78051 64.32871,73.60789 24.67403,44.88286zm-88.12152,-116.69543c-2.64365,-8.07891 -7.04972,-12.5672 -8.81215,-9.87423c-2.64365,2.69297 -1.76243,8.07891 1.76243,13.46486c7.93094,14.36251 13.21823,11.66954 7.04972,-3.59063z"/>
    <path fill="#000000" stroke="null" id="svg_99" d="m1433.83512,3771.69709l-21.14917,-25.1344l24.67403,21.54377c22.03038,20.64611 28.19889,27.82737 21.14917,27.82737c-1.76243,0 -12.33701,-10.77189 -24.67403,-24.23674z"/>
    <path fill="#000000" stroke="null" id="svg_100" d="m1668.23836,3777.98069c-2.64365,-4.48829 -0.88122,-8.97657 3.52486,-8.97657c5.28729,0 9.69337,4.48829 9.69337,8.97657c0,5.38594 -1.76243,8.97657 -3.52486,8.97657c-2.64365,0 -7.04972,-3.59063 -9.69337,-8.97657z"/>
    <path fill="#000000" stroke="null" id="svg_101" d="m1635.6334,3729.50721c-17.6243,-13.46486 -20.26795,-23.33909 -7.04972,-23.33909c4.40608,0 12.33701,8.07891 17.6243,17.95314c10.57458,20.64611 9.69337,21.54377 -10.57458,5.38594z"/>
    <path fill="#000000" stroke="null" id="svg_102" d="m1355.40696,3706.16812c-7.04972,-4.48829 -10.57458,-10.77189 -7.93094,-13.46486c3.52486,-2.69297 10.57458,0.89766 16.74309,8.97657c12.33701,15.26017 9.69337,17.05549 -8.81215,4.48829z"/>
    <path fill="#000000" stroke="null" id="svg_103" d="m1649.73284,3696.29389c-16.74309,-19.74846 -16.74309,-19.74846 2.64365,-8.97657c21.14917,10.77189 34.36739,27.82737 22.03038,27.82737c-4.40608,0 -14.98066,-8.97657 -24.67403,-18.8508z"/>
    <path fill="#000000" stroke="null" id="svg_104" d="m5099.69041,3685.52201c14.09944,-17.95314 62.56628,-54.75709 62.56628,-48.47349c0,2.69297 -16.74309,17.95314 -37.01104,34.11097c-21.14917,17.05549 -32.60496,23.33909 -25.55524,14.36251z"/>
    <path fill="#000000" stroke="null" id="svg_105" d="m1293.7219,3647.8204c-7.04972,-8.07891 -7.04972,-13.46486 -1.76243,-13.46486c10.57458,0 22.9116,17.05549 16.74309,23.33909c-1.76243,1.79531 -8.81215,-1.79531 -14.98066,-9.87423z"/>
    <path fill="#000000" stroke="null" id="svg_106" d="m491.81605,3616.4024c-22.03038,-19.74846 -37.01104,-35.90629 -33.48618,-35.90629c3.52486,0 24.67403,16.15783 46.70441,35.90629c22.03038,19.74846 37.89225,35.90629 33.48618,35.90629c-3.52486,-0.89766 -24.67403,-17.05549 -46.70441,-35.90629z"/>
    <path fill="#000000" stroke="null" id="svg_107" d="m1217.93739,3578.7008l-16.74309,-20.64611l22.03038,17.95314c12.33701,9.87423 23.79281,18.8508 25.55524,19.74846c1.76243,1.79531 0,2.69297 -5.28729,2.69297c-4.40608,0 -15.86187,-8.97657 -25.55524,-19.74846z"/>
    <path fill="#000000" stroke="null" id="svg_108" d="m1411.80474,3558.95235c-2.64365,-6.2836 -22.03038,-25.1344 -44.94198,-42.18989c-39.65468,-30.52034 -78.42815,-77.19852 -70.49722,-85.27743c1.76243,-2.69297 15.86187,8.07891 30.84253,23.33909c14.98066,14.36251 29.96132,26.92971 34.36739,26.92971c10.57458,0.89766 51.9917,39.49691 68.73479,65.52897c14.09944,22.44143 14.09944,24.23674 0.88122,24.23674c-7.93094,0 -16.74309,-5.38594 -19.38673,-12.5672z"/>
    <path fill="#000000" stroke="null" id="svg_109" d="m1261.11693,3497.91166c-4.40608,-6.2836 -13.21823,-23.33909 -19.38673,-38.59926l-10.57458,-26.92971l19.38673,19.74846c11.4558,10.77189 20.26795,27.82737 21.14917,38.59926c1.76243,20.64611 0.88122,21.54377 -10.57458,7.18126z"/>
    <path fill="#000000" stroke="null" id="svg_110" d="m1019.66396,3479.06086c-48.46684,-41.29223 -60.80385,-51.16646 -68.73479,-51.16646c-4.40608,0 -12.33701,-6.2836 -19.38673,-14.36251c-8.81215,-11.66954 -8.81215,-15.26017 0,-21.54377c15.86187,-8.97657 -1.76243,-19.74846 -20.26795,-12.5672c-11.4558,4.48829 -18.50552,-3.59063 -29.0801,-31.418c-9.69337,-24.23674 -21.14917,-38.59926 -34.36739,-42.18989c-10.57458,-2.69297 -26.43646,-12.5672 -34.36739,-21.54377c-13.21823,-15.26017 -13.21823,-16.15783 -0.88122,-14.36251c16.74309,2.69297 102.22096,66.42663 102.22096,77.19852c0,3.59063 24.67403,27.82737 55.51656,53.85943c29.96132,26.03206 54.63534,52.06412 54.63534,58.34772c0,6.2836 5.28729,17.95314 12.33701,26.03206c15.86187,19.74846 9.69337,17.95314 -17.6243,-6.2836z"/>
    <path fill="#000000" stroke="null" id="svg_111" d="m861.04523,3368.64903c-20.26795,-22.44143 -20.26795,-23.33909 -1.76243,-11.66954c11.4558,6.2836 22.03038,17.05549 23.79281,23.33909c7.04972,17.05549 1.76243,14.36251 -22.03038,-11.66954z"/>
    <path fill="#000000" stroke="null" id="svg_112" d="m1110.42913,3337.23103c-41.41712,-37.7016 -31.72375,-40.39457 11.4558,-2.69297c19.38673,16.15783 31.72375,30.52034 26.43646,30.52034c-4.40608,-0.89766 -22.03038,-12.5672 -37.89225,-27.82737z"/>
    <path fill="#000000" stroke="null" id="svg_113" d="m1202.95673,3358.7748c-3.52486,-2.69297 -6.16851,-9.87423 -6.16851,-15.26017c0,-5.38594 4.40608,-4.48829 10.57458,1.79531c5.28729,5.38594 7.93094,12.5672 6.16851,15.26017c-2.64365,2.69297 -7.93094,1.79531 -10.57458,-1.79531z"/>
    <path fill="#000000" stroke="null" id="svg_114" d="m1113.07278,3287.85989c-13.21823,-12.5672 -22.03038,-25.1344 -18.50552,-27.82737c7.93094,-8.07891 49.34805,23.33909 49.34805,37.7016c0,17.95314 -2.64365,17.05549 -30.84253,-9.87423z"/>
    <path fill="#000000" stroke="null" id="svg_115" d="m899.8187,3228.61451c-5.28729,-6.2836 -11.4558,-18.8508 -14.09944,-26.92971c-3.52486,-11.66954 -1.76243,-13.46486 8.81215,-9.87423c10.57458,4.48829 12.33701,2.69297 7.04972,-6.2836c-5.28729,-8.07891 -3.52486,-9.87423 3.52486,-5.38594c6.16851,4.48829 8.81215,8.97657 6.16851,11.66954c-1.76243,2.69297 -0.88122,14.36251 3.52486,26.03206c8.81215,22.44143 -0.88122,29.62269 -14.98066,10.77189z"/>
    <path fill="#000000" stroke="null" id="svg_116" d="m531.47074,3122.69097c-3.52486,-5.38594 -8.81215,-7.18126 -12.33701,-4.48829c-8.81215,5.38594 -50.22927,-38.59926 -43.17955,-45.78051c3.52486,-2.69297 13.21823,-0.89766 22.03038,3.59063c22.9116,12.5672 60.80385,55.65474 48.46684,55.65474c-5.28729,0 -12.33701,-4.48829 -14.98066,-8.97657z"/>
    <path fill="#000000" stroke="null" id="svg_117" d="m99.67528,2485.35439c-23.79281,-26.92971 -10.57458,-30.52034 13.21823,-4.48829c11.4558,12.5672 16.74309,22.44143 11.4558,22.44143c-4.40608,0 -15.86187,-8.07891 -24.67403,-17.95314z"/>
    <path fill="#000000" stroke="null" id="svg_118" d="m45.92115,2436.8809c-8.81215,-7.18126 -13.21823,-16.15783 -9.69337,-19.74846c3.52486,-3.59063 14.98066,1.79531 26.43646,12.5672c21.14917,22.44143 10.57458,26.92971 -16.74309,7.18126z"/>
   </g>
  </g>
 </g>
</svg>