<?xml version="1.0" standalone="no"?>
<!DOCTYPE svg PUBLIC "-//W3C//DTD SVG 20010904//EN"
 "http://www.w3.org/TR/2001/REC-SVG-20010904/DTD/svg10.dtd">
<svg version="1.0" xmlns="http://www.w3.org/2000/svg"
 width="522.000000pt" height="284.000000pt" viewBox="0 0 522.000000 284.000000"
 preserveAspectRatio="xMidYMid meet">
<metadata>
Created by potrace 1.16, written by Peter Selinger 2001-2019
</metadata>
<g transform="translate(0.000000,284.000000) scale(0.100000,-0.100000)"
fill="#000000" stroke="none">
<path d="M130 2696 c-4 -12 -3 -27 3 -34 15 -19 -6 -37 -29 -24 -11 5 -32 12
-47 16 -26 6 -28 4 -25 -16 2 -13 10 -23 18 -23 11 0 16 -15 18 -63 3 -53 8
-70 36 -106 18 -23 43 -68 55 -99 20 -48 33 -64 86 -102 34 -24 74 -58 88 -75
29 -34 42 -37 51 -14 8 21 38 14 42 -9 1 -11 4 -20 6 -22 2 -2 95 -6 208 -9
113 -3 212 -7 220 -10 8 -2 43 -7 76 -10 50 -5 63 -3 68 9 3 8 12 15 19 15 21
0 49 -34 37 -46 -5 -5 30 -9 93 -8 56 1 126 -2 156 -6 52 -7 53 -6 63 22 16
44 55 49 89 10 24 -26 36 -32 86 -35 32 -3 42 -2 23 2 -26 4 -35 11 -35 26 0
15 8 20 35 22 19 2 41 5 48 8 7 2 23 0 36 -5 20 -7 25 -5 29 11 6 23 20 24 42
3 14 -15 21 -15 56 -4 35 12 41 12 53 -5 12 -17 13 -17 19 4 5 20 8 21 27 11
16 -9 25 -8 37 1 14 12 93 23 93 12 0 -2 -5 -13 -10 -24 -14 -25 -1 -25 44 1
32 17 36 18 44 3 11 -20 32 -9 32 17 0 32 22 35 46 7 17 -20 33 -27 59 -27 32
0 35 2 35 30 0 28 2 30 20 20 11 -6 20 -19 20 -30 0 -24 15 -33 45 -26 19 5
23 12 21 38 -1 43 21 44 39 2 9 -22 10 -35 3 -42 -18 -18 29 -24 62 -7 22 11
35 13 49 6 10 -6 20 -9 22 -7 2 2 20 6 40 9 19 2 45 10 58 16 17 9 26 10 36 1
11 -9 23 -9 48 -1 19 7 39 11 43 10 5 -1 11 -1 14 0 4 2 66 6 183 11 9 1 17 4
17 8 0 4 4 13 9 21 8 12 12 12 25 2 13 -11 16 -8 24 21 6 20 5 38 -1 45 -11
16 15 28 39 19 11 -4 14 -13 10 -30 -8 -31 57 -108 68 -81 3 10 13 15 20 12 8
-3 17 -1 19 6 3 9 12 8 33 -3 46 -24 68 -20 74 15 5 27 10 31 39 27 10 -2 8
-23 -4 -54 -5 -13 -2 -18 9 -18 9 0 13 6 10 15 -10 24 4 35 32 25 21 -9 31 -6
56 15 32 27 48 31 65 14 8 -8 13 -8 17 0 12 19 36 12 36 -10 0 -15 4 -19 16
-15 21 8 45 -11 37 -30 -3 -8 0 -14 6 -14 6 0 16 12 21 26 8 19 15 24 29 19
13 -4 27 1 41 15 29 29 55 22 55 -14 1 -36 37 -46 62 -17 15 18 18 18 49 3 31
-14 35 -14 54 3 14 13 17 22 10 29 -12 12 -13 53 -1 60 5 4 20 2 33 -2 50 -19
78 -23 76 -10 -5 22 30 20 37 -2 l7 -22 15 22 c14 20 16 20 41 4 l27 -17 -25
28 c-17 19 -21 29 -12 32 16 6 16 63 0 64 -7 1 -37 3 -66 5 -63 3 -86 10 -77
24 11 18 76 30 95 18 14 -9 25 -9 42 -1 18 8 28 7 43 -3 26 -19 30 -18 43 11
14 30 42 33 49 5 7 -27 19 -25 46 6 18 20 32 26 77 28 30 1 66 -1 79 -6 22 -8
80 -1 153 17 22 6 29 2 42 -23 8 -16 13 -32 11 -36 -3 -3 0 -2 6 3 6 5 12 22
13 38 2 44 14 56 50 49 39 -7 59 5 61 38 1 25 -2 26 -30 20 -16 -3 -36 -11
-44 -18 -11 -8 -15 -8 -18 2 -8 22 -23 13 -23 -14 0 -19 -4 -25 -17 -22 -10 2
-17 12 -16 22 1 16 -6 17 -60 14 -50 -2 -62 0 -62 12 0 10 -9 14 -25 13 -14
-1 -41 3 -61 8 -31 8 -43 5 -82 -17 -50 -27 -66 -25 -68 9 -1 21 -1 21 -8 -2
-9 -32 -31 -39 -38 -12 -7 27 -28 27 -47 0 l-14 -21 -31 23 c-16 12 -32 28
-35 36 -4 10 -11 11 -25 4 -13 -7 -38 -7 -80 0 -47 9 -69 8 -91 -1 -24 -10
-28 -16 -19 -26 6 -7 9 -23 7 -36 -2 -18 -10 -23 -36 -24 -31 -2 -33 0 -27 26
7 32 -15 46 -46 30 -16 -9 -21 -6 -31 15 -15 32 -42 32 -56 -1 -10 -20 -17
-24 -35 -18 -12 4 -26 6 -32 6 -5 -1 -20 -3 -33 -5 -12 -2 -27 -8 -33 -14 -14
-14 -69 12 -69 32 0 20 -42 47 -54 35 -13 -13 -97 -13 -130 0 -27 10 -34 5
-41 -32 -7 -35 -28 -41 -41 -13 -5 14 -13 23 -16 19 -4 -3 -16 -1 -27 6 -16 8
-21 8 -21 -3 0 -12 -45 -18 -122 -17 -13 1 -56 1 -95 2 -70 1 -73 2 -73 25 0
21 -4 23 -49 23 -28 0 -53 -5 -56 -10 -4 -6 -1 -9 6 -8 21 5 23 -31 2 -38 -10
-3 -32 -12 -49 -21 -29 -14 -35 -13 -68 2 -22 11 -46 15 -62 11 -14 -4 -32 -2
-39 4 -10 8 -19 8 -35 0 -28 -15 -43 -4 -30 21 10 17 7 19 -23 19 -26 0 -33
-4 -34 -21 -3 -29 -11 -35 -32 -22 -13 8 -21 9 -29 1 -8 -8 -15 -8 -25 0 -8 7
-17 9 -20 5 -9 -8 -38 17 -31 28 8 13 -10 11 -24 -3 -10 -10 -15 -10 -22 1 -7
12 -11 12 -24 2 -19 -16 -36 -7 -30 17 5 15 -4 17 -74 17 -65 -1 -83 -4 -106
-23 -29 -22 -46 -21 -46 3 0 20 -20 23 -205 24 -223 2 -382 9 -479 23 -67 9
-80 9 -87 -4 -7 -13 -19 -13 -96 -1 -48 7 -106 13 -128 13 -22 0 -56 1 -75 3
-19 2 -45 0 -58 -5 -17 -6 -24 -4 -29 7 -5 14 -7 14 -17 -1 -11 -14 -21 -15
-77 -6 -36 5 -71 6 -80 1 -9 -4 -19 -6 -22 -3 -2 3 -43 7 -90 9 -94 4 -171 14
-204 26 -14 5 -23 4 -26 -4 -3 -9 -7 -9 -19 0 -8 7 -50 17 -92 21 -74 8 -78 7
-86 -12z m3268 -251 c22 -28 42 -33 42 -10 0 8 9 19 19 25 37 20 119 8 109
-16 -1 -5 9 -15 25 -22 29 -14 35 -36 15 -49 -15 -9 -169 -7 -220 2 -22 4 -38
3 -42 -4 -5 -7 -15 -6 -32 5 -36 24 -31 44 14 45 32 0 34 1 15 9 -36 15 -28
40 13 40 12 0 31 -11 42 -25z"/>
<path d="M4241 2353 c0 -12 -10 -27 -21 -33 -15 -8 -19 -19 -17 -45 1 -20 7
-35 15 -35 8 0 10 8 6 24 -3 14 -3 30 1 36 10 16 35 -7 35 -32 0 -27 30 -35
46 -12 7 10 18 24 24 31 18 21 8 61 -17 66 -12 2 -20 0 -17 -5 11 -17 -5 -37
-25 -31 -12 3 -21 16 -24 32 -3 21 -4 22 -6 4z"/>
<path d="M4080 2199 c0 -5 9 -9 20 -9 11 0 20 2 20 4 0 2 -9 6 -20 9 -11 3
-20 1 -20 -4z"/>
<path d="M2280 1784 c-36 -2 -231 -8 -435 -15 -203 -6 -372 -14 -375 -19 -3
-4 -149 -10 -325 -14 -176 -4 -336 -9 -355 -11 -19 -2 -102 -4 -185 -6 -82 -1
-132 -5 -110 -8 22 -3 36 -9 30 -12 -14 -10 -233 -32 -244 -25 -5 3 -40 10
-77 15 -55 8 -81 7 -134 -6 -77 -20 -79 -21 -60 -33 12 -7 12 -12 2 -22 -6 -6
-12 -15 -12 -19 0 -13 49 -19 74 -9 16 6 27 6 31 0 4 -6 -1 -10 -10 -10 -16 0
-45 -22 -45 -35 0 -4 17 -4 38 -1 40 7 69 -5 57 -23 -4 -7 -19 -11 -33 -10
-15 1 -43 1 -64 1 -30 -2 -35 -5 -31 -21 3 -10 0 -22 -6 -25 -22 -14 -10 -26
23 -26 38 0 55 -24 28 -40 -12 -7 -14 -12 -5 -17 6 -5 13 -17 15 -28 2 -16 -4
-21 -32 -25 -29 -4 -35 -9 -35 -30 l0 -25 121 -1 c90 -1 130 -6 154 -17 18 -9
62 -19 98 -23 37 -3 69 -10 70 -15 5 -12 152 -12 152 1 0 6 10 10 21 10 12 0
27 6 33 13 13 16 180 11 170 -4 -3 -5 -1 -9 5 -9 5 0 11 4 13 9 2 6 95 15 208
20 207 11 320 20 331 26 3 2 144 7 315 11 170 4 311 11 312 15 5 13 92 11 92
-1 0 -6 32 -10 75 -10 46 0 93 -7 122 -17 43 -16 82 -18 348 -15 l300 3 21 24
c28 32 140 47 150 20 5 -13 8 -14 15 -3 12 18 129 20 129 1 0 -20 20 -16 21 5
0 14 2 14 9 -3 8 -18 9 -18 9 -2 1 16 6 17 34 12 17 -4 35 -12 38 -17 4 -6 8
-5 11 3 4 11 8 10 22 -4 11 -11 33 -17 62 -17 24 0 44 -4 44 -10 0 -5 5 -10
11 -10 5 0 7 5 3 12 -5 8 -2 9 12 2 21 -10 288 -10 328 0 17 4 23 11 20 21 -5
12 5 15 54 15 39 0 62 -4 65 -12 3 -10 70 -13 288 -14 297 -2 379 2 379 17 0
5 -6 9 -14 9 -7 0 -19 7 -26 15 -10 12 -10 18 0 30 9 10 9 15 1 15 -6 0 -11 5
-11 10 0 6 12 10 26 10 14 0 23 4 19 10 -4 6 6 10 22 11 15 0 23 3 16 5 -7 3
-9 12 -6 20 4 12 -45 14 -343 14 -381 0 -510 6 -517 25 -4 9 92 11 396 10 221
0 410 1 420 3 13 3 15 8 7 17 -7 8 -7 15 -1 19 16 10 0 46 -20 46 -25 0 -24
17 1 25 11 3 20 12 20 19 0 7 10 12 22 12 17 -1 23 5 24 23 1 22 -1 23 -45 17
-25 -4 -130 -9 -233 -13 -165 -5 -188 -4 -203 10 -15 15 1 17 216 19 167 2
233 6 236 15 2 6 -6 13 -19 16 -20 4 -20 4 5 6 33 1 38 30 5 32 -26 2 -24 2
-70 -6 -18 -3 -34 -10 -36 -16 -6 -14 -32 -11 -32 5 0 11 -42 15 -222 20 -240
6 -1920 14 -2028 10z m-2123 -110 c-3 -3 -12 -4 -19 -1 -8 3 -5 6 6 6 11 1 17
-2 13 -5z m4276 -61 c92 -3 167 -10 167 -14 0 -5 -24 -9 -54 -9 -34 0 -56 -5
-59 -12 -4 -10 -8 -9 -16 2 -10 13 -12 13 -21 0 -9 -13 -10 -13 -10 0 0 12 -2
12 -9 2 -12 -20 -412 -25 -404 -6 5 13 -23 19 -68 15 -9 -1 -19 5 -23 14 -5
14 13 16 162 15 92 0 242 -3 335 -7z m-713 -33 c0 -5 -4 -10 -10 -10 -5 0 -10
5 -10 10 0 6 5 10 10 10 6 0 10 -4 10 -10z m70 0 c0 -5 -9 -10 -20 -10 -11 0
-20 5 -20 10 0 6 9 10 20 10 11 0 20 -4 20 -10z m-1850 -40 c0 -5 -4 -10 -9
-10 -6 0 -13 5 -16 10 -3 6 1 10 9 10 9 0 16 -4 16 -10z m469 -5 c2 -3 -65 -5
-150 -4 -85 0 -146 4 -136 8 19 7 278 4 286 -4z m308 9 c-3 -3 -12 -4 -19 -1
-8 3 -5 6 6 6 11 1 17 -2 13 -5z m106 -1 c-13 -2 -33 -2 -45 0 -13 2 -3 4 22
4 25 0 35 -2 23 -4z m-2575 -10 c-16 -2 -40 -2 -55 0 -16 2 -3 4 27 4 30 0 43
-2 28 -4z m1382 -2 c0 -5 6 -11 13 -14 6 -2 3 -3 -8 -1 -11 2 -31 4 -45 4 -20
0 -22 2 -10 10 19 12 50 13 50 1z m216 -1 c-27 -9 -176 -4 -185 6 -2 2 45 4
105 3 79 0 101 -3 80 -9z m757 3 c-7 -2 -19 -2 -25 0 -7 3 -2 5 12 5 14 0 19
-2 13 -5z m-1410 -15 c4 -9 8 -9 14 -3 4 6 78 11 168 13 146 3 158 2 140 -12
-11 -8 -30 -16 -42 -16 -12 0 -23 -6 -25 -12 -4 -10 -77 -13 -319 -14 -173 -1
-296 0 -274 3 22 2 43 10 47 16 6 9 11 8 18 -3 8 -12 12 -13 19 -2 5 9 34 14
90 15 44 1 81 5 81 9 0 17 76 23 83 6z m2060 -5 c-7 -2 -19 -2 -25 0 -7 3 -2
5 12 5 14 0 19 -2 13 -5z m-2540 -10 c-7 -2 -19 -2 -25 0 -7 3 -2 5 12 5 14 0
19 -2 13 -5z m3094 1 c-3 -3 -12 -4 -19 -1 -8 3 -5 6 6 6 11 1 17 -2 13 -5z
m-3644 -31 c-7 -2 -19 -2 -25 0 -7 3 -2 5 12 5 14 0 19 -2 13 -5z m125 0 c-16
-2 -40 -2 -55 0 -16 2 -3 4 27 4 30 0 43 -2 28 -4z m537 -13 c14 -6 -1 -9 -47
-7 -36 1 -65 0 -63 -3 3 -5 -33 -5 -117 -1 -16 0 -28 6 -28 11 0 13 227 12
255 0z m718 3 c-13 -2 -35 -2 -50 0 -16 2 -5 4 22 4 28 0 40 -2 28 -4z m552
-24 c39 -5 112 -10 163 -10 50 0 92 -5 92 -10 0 -5 -49 -9 -110 -9 -67 0 -110
-4 -110 -10 0 -6 49 -10 126 -10 107 0 125 2 121 15 -4 8 -3 16 1 19 9 5 230
10 252 5 8 -1 -32 -6 -90 -9 l-105 -6 108 -2 c63 -1 107 -6 107 -12 0 -5 -7
-10 -15 -10 -8 0 -24 -6 -35 -12 -17 -11 -22 -10 -30 2 -7 12 -13 12 -32 1
-25 -13 -155 -17 -438 -13 -80 0 -172 0 -205 -2 -33 -2 -158 -5 -277 -7 -120
-2 -218 -6 -218 -10 0 -12 -59 -16 -71 -5 -9 8 -10 8 -5 -1 6 -10 -16 -13 -93
-13 -61 0 -101 -4 -101 -10 0 -6 -52 -10 -135 -10 -77 0 -135 4 -135 9 0 6 15
12 33 14 24 3 20 4 -16 5 -40 2 -50 -1 -54 -17 -4 -16 -19 -19 -101 -25 -66
-5 -98 -4 -100 3 -2 6 -15 11 -29 11 -32 0 -28 30 7 47 36 17 411 37 421 22 6
-10 247 -14 257 -5 3 3 -48 7 -114 8 -65 1 -92 3 -59 5 33 2 62 8 65 13 3 5
82 12 175 16 283 11 304 12 470 22 88 5 171 9 185 10 14 1 57 -3 95 -9z m702
5 c-3 -3 -12 -4 -19 -1 -8 3 -5 6 6 6 11 1 17 -2 13 -5z m50 0 c-3 -3 -12 -4
-19 -1 -8 3 -5 6 6 6 11 1 17 -2 13 -5z m461 -1 c40 -3 70 -9 65 -14 -10 -10
-407 -14 -422 -5 -6 4 -16 4 -21 1 -15 -10 -71 5 -64 16 6 11 313 12 442 2z
m-2964 -69 c12 -30 7 -36 -26 -29 -45 10 -51 15 -37 31 16 19 55 18 63 -2z
m2293 -10 c-3 -3 -12 -4 -19 -1 -8 3 -5 6 6 6 11 1 17 -2 13 -5z m313 -58 c0
-11 -19 -15 -25 -6 -3 5 1 10 9 10 9 0 16 -2 16 -4z"/>
<path d="M4288 1603 c7 -3 16 -2 19 1 4 3 -2 6 -13 5 -11 0 -14 -3 -6 -6z"/>
<path d="M1408 1513 c12 -2 32 -2 45 0 12 2 2 4 -23 4 -25 0 -35 -2 -22 -4z"/>
<path d="M1688 1413 c6 -2 18 -2 25 0 6 3 1 5 -13 5 -14 0 -19 -2 -12 -5z"/>
<path d="M1858 1413 c18 -2 45 -2 60 0 15 2 0 4 -33 4 -33 0 -45 -2 -27 -4z"/>
<path d="M1580 1400 c0 -5 20 -10 45 -10 25 0 45 5 45 10 0 6 -20 10 -45 10
-25 0 -45 -4 -45 -10z"/>
<path d="M2020 1400 c0 -5 23 -10 50 -10 28 0 50 5 50 10 0 6 -22 10 -50 10
-27 0 -50 -4 -50 -10z"/>
<path d="M1348 1383 c6 -2 18 -2 25 0 6 3 1 5 -13 5 -14 0 -19 -2 -12 -5z"/>
<path d="M1398 1383 c7 -3 16 -2 19 1 4 3 -2 6 -13 5 -11 0 -14 -3 -6 -6z"/>
<path d="M1888 1383 c6 -2 18 -2 25 0 6 3 1 5 -13 5 -14 0 -19 -2 -12 -5z"/>
<path d="M898 1363 c18 -2 45 -2 60 0 15 2 0 4 -33 4 -33 0 -45 -2 -27 -4z"/>
<path d="M1005 1349 c-35 -5 -33 -6 23 -8 34 0 62 1 62 3 0 8 -47 11 -85 5z"/>
<path d="M740 1320 c0 -5 7 -10 15 -10 8 0 15 5 15 10 0 6 -7 10 -15 10 -8 0
-15 -4 -15 -10z"/>
<path d="M4847 1424 c-3 -4 -21 -8 -39 -10 -18 -2 -34 -9 -36 -14 -5 -13 -42
-13 -42 0 0 6 -9 10 -20 10 -13 0 -20 -7 -20 -20 0 -11 5 -20 11 -20 5 0 7 -4
4 -10 -3 -5 1 -10 9 -10 8 0 18 5 21 10 3 6 19 10 36 10 16 0 29 5 29 10 0 6
5 10 11 10 6 0 17 7 26 16 9 8 22 13 29 10 7 -3 16 -1 19 4 7 11 -28 14 -38 4z"/>
<path d="M1947 1263 c18 -2 50 -2 70 0 21 2 7 4 -32 4 -38 0 -55 -2 -38 -4z"/>
<path d="M360 1230 c0 -5 5 -10 10 -10 6 0 10 5 10 10 0 6 -4 10 -10 10 -5 0
-10 -4 -10 -10z"/>
<path d="M391 1216 c12 -10 60 -16 54 -6 -3 5 -18 10 -32 10 -15 0 -24 -2 -22
-4z"/>
<path d="M469 955 c-10 -10 -56 -16 -162 -21 -120 -6 -150 -10 -155 -22 -3 -9
0 -18 6 -20 18 -6 15 -25 -11 -63 -12 -19 -24 -52 -25 -74 -2 -22 -8 -42 -14
-46 -5 -4 -7 -16 -3 -28 8 -26 -10 -51 -37 -51 -15 0 -18 -4 -12 -17 10 -24 6
-82 -8 -117 -9 -23 -8 -34 7 -62 21 -39 49 -55 155 -90 72 -24 84 -25 440 -28
201 -2 514 -6 695 -8 861 -11 1805 -5 2205 13 140 7 291 13 335 14 44 1 90 7
102 13 12 7 52 12 90 12 44 1 75 6 87 15 11 8 36 15 56 15 21 0 50 4 66 9 16
5 65 13 109 17 45 5 67 10 50 12 -47 6 -51 19 -6 27 22 4 39 12 38 18 -3 15
119 35 220 36 45 0 93 5 108 11 14 5 46 10 71 10 24 0 44 5 44 10 0 6 -52 10
-132 11 l-133 2 75 14 c63 12 233 31 293 32 9 1 17 8 17 16 0 12 13 15 55 15
56 0 73 13 33 24 -13 3 -50 6 -83 6 -37 0 -55 4 -47 9 23 14 -12 21 -126 23
l-107 1 108 10 c59 6 107 14 107 20 0 5 -13 7 -30 5 -16 -3 -30 -1 -30 4 0 4
-39 8 -86 8 -74 0 -88 3 -102 20 -24 28 -149 54 -224 45 -38 -4 -58 -2 -58 5
0 5 9 10 20 10 35 0 21 15 -27 30 -34 10 -98 13 -218 13 -93 -1 -172 3 -175 8
-7 10 -313 24 -537 23 -90 0 -163 3 -163 7 0 5 -19 7 -42 7 -24 -1 -63 -1 -88
0 -25 2 -238 3 -474 3 -236 0 -462 4 -502 10 -49 7 -99 7 -156 -1 -55 -7 -84
-7 -86 0 -2 6 -74 10 -189 10 -170 0 -187 2 -213 20 -32 22 -88 22 -235 -1
-85 -13 -328 -6 -333 10 -5 16 -22 13 -22 -4 0 -8 -8 -16 -17 -16 -59 -5 -440
4 -448 11 -22 16 -62 19 -76 5z m3881 -515 c0 -5 -4 -10 -10 -10 -5 0 -10 5
-10 10 0 6 5 10 10 10 6 0 10 -4 10 -10z"/>
</g>
</svg>
