<svg id="visual" viewBox="0 0 960 540" width="960" height="540" xmlns="http://www.w3.org/2000/svg" xmlns:xlink="http://www.w3.org/1999/xlink" version="1.1"><path d="M0 71L13.3 72C26.7 73 53.3 75 80 65.2C106.7 55.3 133.3 33.7 160 26.3C186.7 19 213.3 26 240 34C266.7 42 293.3 51 320 57.3C346.7 63.7 373.3 67.3 400 62C426.7 56.7 453.3 42.3 480 37C506.7 31.7 533.3 35.3 560 37.2C586.7 39 613.3 39 640 41.7C666.7 44.3 693.3 49.7 720 45.2C746.7 40.7 773.3 26.3 800 31.7C826.7 37 853.3 62 880 71.8C906.7 81.7 933.3 76.3 946.7 73.7L960 71L960 0L946.7 0C933.3 0 906.7 0 880 0C853.3 0 826.7 0 800 0C773.3 0 746.7 0 720 0C693.3 0 666.7 0 640 0C613.3 0 586.7 0 560 0C533.3 0 506.7 0 480 0C453.3 0 426.7 0 400 0C373.3 0 346.7 0 320 0C293.3 0 266.7 0 240 0C213.3 0 186.7 0 160 0C133.3 0 106.7 0 80 0C53.3 0 26.7 0 13.3 0L0 0Z" fill="#f9f8f4"></path><path d="M0 222L13.3 222C26.7 222 53.3 222 80 203.2C106.7 184.3 133.3 146.7 160 120.7C186.7 94.7 213.3 80.3 240 103.7C266.7 127 293.3 188 320 216.8C346.7 245.7 373.3 242.3 400 224.3C426.7 206.3 453.3 173.7 480 155.7C506.7 137.7 533.3 134.3 560 132.7C586.7 131 613.3 131 640 170.5C666.7 210 693.3 289 720 298.8C746.7 308.7 773.3 249.3 800 216C826.7 182.7 853.3 175.3 880 179C906.7 182.7 933.3 197.3 946.7 204.7L960 212L960 69L946.7 71.7C933.3 74.3 906.7 79.7 880 69.8C853.3 60 826.7 35 800 29.7C773.3 24.3 746.7 38.7 720 43.2C693.3 47.7 666.7 42.3 640 39.7C613.3 37 586.7 37 560 35.2C533.3 33.3 506.7 29.7 480 35C453.3 40.3 426.7 54.7 400 60C373.3 65.3 346.7 61.7 320 55.3C293.3 49 266.7 40 240 32C213.3 24 186.7 17 160 24.3C133.3 31.7 106.7 53.3 80 63.2C53.3 73 26.7 71 13.3 70L0 69Z" fill="#fddcd2"></path><path d="M0 233L13.3 232.2C26.7 231.3 53.3 229.7 80 210.8C106.7 192 133.3 156 160 129.8C186.7 103.7 213.3 87.3 240 111.7C266.7 136 293.3 201 320 235.2C346.7 269.3 373.3 272.7 400 264.5C426.7 256.3 453.3 236.7 480 221.5C506.7 206.3 533.3 195.7 560 189.3C586.7 183 613.3 181 640 218.7C666.7 256.3 693.3 333.7 720 345.3C746.7 357 773.3 303 800 275.2C826.7 247.3 853.3 245.7 880 240.3C906.7 235 933.3 226 946.7 221.5L960 217L960 210L946.7 202.7C933.3 195.3 906.7 180.7 880 177C853.3 173.3 826.7 180.7 800 214C773.3 247.3 746.7 306.7 720 296.8C693.3 287 666.7 208 640 168.5C613.3 129 586.7 129 560 130.7C533.3 132.3 506.7 135.7 480 153.7C453.3 171.7 426.7 204.3 400 222.3C373.3 240.3 346.7 243.7 320 214.8C293.3 186 266.7 125 240 101.7C213.3 78.3 186.7 92.7 160 118.7C133.3 144.7 106.7 182.3 80 201.2C53.3 220 26.7 220 13.3 220L0 220Z" fill="#f8bfdc"></path><path d="M0 363L13.3 349.5C26.7 336 53.3 309 80 292.8C106.7 276.7 133.3 271.3 160 272.2C186.7 273 213.3 280 240 297C266.7 314 293.3 341 320 361.7C346.7 382.3 373.3 396.7 400 394.8C426.7 393 453.3 375 480 361.5C506.7 348 533.3 339 560 326.5C586.7 314 613.3 298 640 318.8C666.7 339.7 693.3 397.3 720 399.2C746.7 401 773.3 347 800 331.7C826.7 316.3 853.3 339.7 880 340.5C906.7 341.3 933.3 319.7 946.7 308.8L960 298L960 215L946.7 219.5C933.3 224 906.7 233 880 238.3C853.3 243.7 826.7 245.3 800 273.2C773.3 301 746.7 355 720 343.3C693.3 331.7 666.7 254.3 640 216.7C613.3 179 586.7 181 560 187.3C533.3 193.7 506.7 204.3 480 219.5C453.3 234.7 426.7 254.3 400 262.5C373.3 270.7 346.7 267.3 320 233.2C293.3 199 266.7 134 240 109.7C213.3 85.3 186.7 101.7 160 127.8C133.3 154 106.7 190 80 208.8C53.3 227.7 26.7 229.3 13.3 230.2L0 231Z" fill="#e5b9eb"></path><path d="M0 401L13.3 403.7C26.7 406.3 53.3 411.7 80 410.7C106.7 409.7 133.3 402.3 160 409.5C186.7 416.7 213.3 438.3 240 446.5C266.7 454.7 293.3 449.3 320 448.5C346.7 447.7 373.3 451.3 400 450.3C426.7 449.3 453.3 443.7 480 445.3C506.7 447 533.3 456 560 445.3C586.7 434.7 613.3 404.3 640 412.5C666.7 420.7 693.3 467.3 720 477.2C746.7 487 773.3 460 800 450.2C826.7 440.3 853.3 447.7 880 450.3C906.7 453 933.3 451 946.7 450L960 449L960 296L946.7 306.8C933.3 317.7 906.7 339.3 880 338.5C853.3 337.7 826.7 314.3 800 329.7C773.3 345 746.7 399 720 397.2C693.3 395.3 666.7 337.7 640 316.8C613.3 296 586.7 312 560 324.5C533.3 337 506.7 346 480 359.5C453.3 373 426.7 391 400 392.8C373.3 394.7 346.7 380.3 320 359.7C293.3 339 266.7 312 240 295C213.3 278 186.7 271 160 270.2C133.3 269.3 106.7 274.7 80 290.8C53.3 307 26.7 334 13.3 347.5L0 361Z" fill="#f8bfdc"></path><path d="M0 503L13.3 506.7C26.7 510.3 53.3 517.7 80 510.5C106.7 503.3 133.3 481.7 160 479C186.7 476.3 213.3 492.7 240 492.7C266.7 492.7 293.3 476.3 320 480.8C346.7 485.3 373.3 510.7 400 511.5C426.7 512.3 453.3 488.7 480 482.3C506.7 476 533.3 487 560 486.2C586.7 485.3 613.3 472.7 640 478C666.7 483.3 693.3 506.7 720 516.5C746.7 526.3 773.3 522.7 800 519.2C826.7 515.7 853.3 512.3 880 508.8C906.7 505.3 933.3 501.7 946.7 499.8L960 498L960 447L946.7 448C933.3 449 906.7 451 880 448.3C853.3 445.7 826.7 438.3 800 448.2C773.3 458 746.7 485 720 475.2C693.3 465.3 666.7 418.7 640 410.5C613.3 402.3 586.7 432.7 560 443.3C533.3 454 506.7 445 480 443.3C453.3 441.7 426.7 447.3 400 448.3C373.3 449.3 346.7 445.7 320 446.5C293.3 447.3 266.7 452.7 240 444.5C213.3 436.3 186.7 414.7 160 407.5C133.3 400.3 106.7 407.7 80 408.7C53.3 409.7 26.7 404.3 13.3 401.7L0 399Z" fill="#fddcd2"></path><path d="M0 541L13.3 541C26.7 541 53.3 541 80 541C106.7 541 133.3 541 160 541C186.7 541 213.3 541 240 541C266.7 541 293.3 541 320 541C346.7 541 373.3 541 400 541C426.7 541 453.3 541 480 541C506.7 541 533.3 541 560 541C586.7 541 613.3 541 640 541C666.7 541 693.3 541 720 541C746.7 541 773.3 541 800 541C826.7 541 853.3 541 880 541C906.7 541 933.3 541 946.7 541L960 541L960 496L946.7 497.8C933.3 499.7 906.7 503.3 880 506.8C853.3 510.3 826.7 513.7 800 517.2C773.3 520.7 746.7 524.3 720 514.5C693.3 504.7 666.7 481.3 640 476C613.3 470.7 586.7 483.3 560 484.2C533.3 485 506.7 474 480 480.3C453.3 486.7 426.7 510.3 400 509.5C373.3 508.7 346.7 483.3 320 478.8C293.3 474.3 266.7 490.7 240 490.7C213.3 490.7 186.7 474.3 160 477C133.3 479.7 106.7 501.3 80 508.5C53.3 515.7 26.7 508.3 13.3 504.7L0 501Z" fill="#f9f8f4"></path></svg>