<svg id="visual" viewBox="0 0 960 540" width="960" height="540" xmlns="http://www.w3.org/2000/svg" xmlns:xlink="http://www.w3.org/1999/xlink" version="1.1"><path d="M0 33L13.3 34.8C26.7 36.7 53.3 40.3 80 45.8C106.7 51.3 133.3 58.7 160 75.8C186.7 93 213.3 120 240 125.3C266.7 130.7 293.3 114.3 320 111.7C346.7 109 373.3 120 400 122.7C426.7 125.3 453.3 119.7 480 123.2C506.7 126.7 533.3 139.3 560 145.7C586.7 152 613.3 152 640 154.7C666.7 157.3 693.3 162.7 720 142C746.7 121.3 773.3 74.7 800 71.2C826.7 67.7 853.3 107.3 880 128C906.7 148.7 933.3 150.3 946.7 151.2L960 152L960 0L946.7 0C933.3 0 906.7 0 880 0C853.3 0 826.7 0 800 0C773.3 0 746.7 0 720 0C693.3 0 666.7 0 640 0C613.3 0 586.7 0 560 0C533.3 0 506.7 0 480 0C453.3 0 426.7 0 400 0C373.3 0 346.7 0 320 0C293.3 0 266.7 0 240 0C213.3 0 186.7 0 160 0C133.3 0 106.7 0 80 0C53.3 0 26.7 0 13.3 0L0 0Z" fill="#f9f8f4"></path><path d="M0 141L13.3 142C26.7 143 53.3 145 80 148.7C106.7 152.3 133.3 157.7 160 169.3C186.7 181 213.3 199 240 206.2C266.7 213.3 293.3 209.7 320 206C346.7 202.3 373.3 198.7 400 198.7C426.7 198.7 453.3 202.3 480 198.8C506.7 195.3 533.3 184.7 560 190.2C586.7 195.7 613.3 217.3 640 231.7C666.7 246 693.3 253 720 229.5C746.7 206 773.3 152 800 141.2C826.7 130.3 853.3 162.7 880 186.2C906.7 209.7 933.3 224.3 946.7 231.7L960 239L960 150L946.7 149.2C933.3 148.3 906.7 146.7 880 126C853.3 105.3 826.7 65.7 800 69.2C773.3 72.7 746.7 119.3 720 140C693.3 160.7 666.7 155.3 640 152.7C613.3 150 586.7 150 560 143.7C533.3 137.3 506.7 124.7 480 121.2C453.3 117.7 426.7 123.3 400 120.7C373.3 118 346.7 107 320 109.7C293.3 112.3 266.7 128.7 240 123.3C213.3 118 186.7 91 160 73.8C133.3 56.7 106.7 49.3 80 43.8C53.3 38.3 26.7 34.7 13.3 32.8L0 31Z" fill="#f2e3d4"></path><path d="M0 260L13.3 267.2C26.7 274.3 53.3 288.7 80 285.2C106.7 281.7 133.3 260.3 160 267.7C186.7 275 213.3 311 240 307.3C266.7 303.7 293.3 260.3 320 250.3C346.7 240.3 373.3 263.7 400 275.3C426.7 287 453.3 287 480 275.3C506.7 263.7 533.3 240.3 560 235.8C586.7 231.3 613.3 245.7 640 263.7C666.7 281.7 693.3 303.3 720 289.8C746.7 276.3 773.3 227.7 800 226.8C826.7 226 853.3 273 880 293.7C906.7 314.3 933.3 308.7 946.7 305.8L960 303L960 237L946.7 229.7C933.3 222.3 906.7 207.7 880 184.2C853.3 160.7 826.7 128.3 800 139.2C773.3 150 746.7 204 720 227.5C693.3 251 666.7 244 640 229.7C613.3 215.3 586.7 193.7 560 188.2C533.3 182.7 506.7 193.3 480 196.8C453.3 200.3 426.7 196.7 400 196.7C373.3 196.7 346.7 200.3 320 204C293.3 207.7 266.7 211.3 240 204.2C213.3 197 186.7 179 160 167.3C133.3 155.7 106.7 150.3 80 146.7C53.3 143 26.7 141 13.3 140L0 139Z" fill="#f2cabd"></path><path d="M0 411L13.3 422.8C26.7 434.7 53.3 458.3 80 450.3C106.7 442.3 133.3 402.7 160 386.3C186.7 370 213.3 377 240 384.2C266.7 391.3 293.3 398.7 320 401.5C346.7 404.3 373.3 402.7 400 392.8C426.7 383 453.3 365 480 365C506.7 365 533.3 383 560 390.2C586.7 397.3 613.3 393.7 640 390C666.7 386.3 693.3 382.7 720 372.7C746.7 362.7 773.3 346.3 800 353.5C826.7 360.7 853.3 391.3 880 394.2C906.7 397 933.3 372 946.7 359.5L960 347L960 301L946.7 303.8C933.3 306.7 906.7 312.3 880 291.7C853.3 271 826.7 224 800 224.8C773.3 225.7 746.7 274.3 720 287.8C693.3 301.3 666.7 279.7 640 261.7C613.3 243.7 586.7 229.3 560 233.8C533.3 238.3 506.7 261.7 480 273.3C453.3 285 426.7 285 400 273.3C373.3 261.7 346.7 238.3 320 248.3C293.3 258.3 266.7 301.7 240 305.3C213.3 309 186.7 273 160 265.7C133.3 258.3 106.7 279.7 80 283.2C53.3 286.7 26.7 272.3 13.3 265.2L0 258Z" fill="#f0b5b5"></path><path d="M0 422L13.3 432.8C26.7 443.7 53.3 465.3 80 467.2C106.7 469 133.3 451 160 437.5C186.7 424 213.3 415 240 419.5C266.7 424 293.3 442 320 442.8C346.7 443.7 373.3 427.3 400 418.3C426.7 409.3 453.3 407.7 480 406.8C506.7 406 533.3 406 560 406C586.7 406 613.3 406 640 409.7C666.7 413.3 693.3 420.7 720 415.3C746.7 410 773.3 392 800 392C826.7 392 853.3 410 880 416.2C906.7 422.3 933.3 416.7 946.7 413.8L960 411L960 345L946.7 357.5C933.3 370 906.7 395 880 392.2C853.3 389.3 826.7 358.7 800 351.5C773.3 344.3 746.7 360.7 720 370.7C693.3 380.7 666.7 384.3 640 388C613.3 391.7 586.7 395.3 560 388.2C533.3 381 506.7 363 480 363C453.3 363 426.7 381 400 390.8C373.3 400.7 346.7 402.3 320 399.5C293.3 396.7 266.7 389.3 240 382.2C213.3 375 186.7 368 160 384.3C133.3 400.7 106.7 440.3 80 448.3C53.3 456.3 26.7 432.7 13.3 420.8L0 409Z" fill="#f0b5b5"></path><path d="M0 438L13.3 448C26.7 458 53.3 478 80 488.8C106.7 499.7 133.3 501.3 160 491.3C186.7 481.3 213.3 459.7 240 457C266.7 454.3 293.3 470.7 320 476.2C346.7 481.7 373.3 476.3 400 472.7C426.7 469 453.3 467 480 459.8C506.7 452.7 533.3 440.3 560 435.8C586.7 431.3 613.3 434.7 640 435.5C666.7 436.3 693.3 434.7 720 430.2C746.7 425.7 773.3 418.3 800 419.2C826.7 420 853.3 429 880 434.5C906.7 440 933.3 442 946.7 443L960 444L960 409L946.7 411.8C933.3 414.7 906.7 420.3 880 414.2C853.3 408 826.7 390 800 390C773.3 390 746.7 408 720 413.3C693.3 418.7 666.7 411.3 640 407.7C613.3 404 586.7 404 560 404C533.3 404 506.7 404 480 404.8C453.3 405.7 426.7 407.3 400 416.3C373.3 425.3 346.7 441.7 320 440.8C293.3 440 266.7 422 240 417.5C213.3 413 186.7 422 160 435.5C133.3 449 106.7 467 80 465.2C53.3 463.3 26.7 441.7 13.3 430.8L0 420Z" fill="#f2cabd"></path><path d="M0 465L13.3 475.8C26.7 486.7 53.3 508.3 80 515.7C106.7 523 133.3 516 160 510.7C186.7 505.3 213.3 501.7 240 498.8C266.7 496 293.3 494 320 491.3C346.7 488.7 373.3 485.3 400 489C426.7 492.7 453.3 503.3 480 498.8C506.7 494.3 533.3 474.7 560 464.8C586.7 455 613.3 455 640 461.2C666.7 467.3 693.3 479.7 720 481.3C746.7 483 773.3 474 800 473.2C826.7 472.3 853.3 479.7 880 480.7C906.7 481.7 933.3 476.3 946.7 473.7L960 471L960 442L946.7 441C933.3 440 906.7 438 880 432.5C853.3 427 826.7 418 800 417.2C773.3 416.3 746.7 423.7 720 428.2C693.3 432.7 666.7 434.3 640 433.5C613.3 432.7 586.7 429.3 560 433.8C533.3 438.3 506.7 450.7 480 457.8C453.3 465 426.7 467 400 470.7C373.3 474.3 346.7 479.7 320 474.2C293.3 468.7 266.7 452.3 240 455C213.3 457.7 186.7 479.3 160 489.3C133.3 499.3 106.7 497.7 80 486.8C53.3 476 26.7 456 13.3 446L0 436Z" fill="#f2e3d4"></path><path d="M0 541L13.3 541C26.7 541 53.3 541 80 541C106.7 541 133.3 541 160 541C186.7 541 213.3 541 240 541C266.7 541 293.3 541 320 541C346.7 541 373.3 541 400 541C426.7 541 453.3 541 480 541C506.7 541 533.3 541 560 541C586.7 541 613.3 541 640 541C666.7 541 693.3 541 720 541C746.7 541 773.3 541 800 541C826.7 541 853.3 541 880 541C906.7 541 933.3 541 946.7 541L960 541L960 469L946.7 471.7C933.3 474.3 906.7 479.7 880 478.7C853.3 477.7 826.7 470.3 800 471.2C773.3 472 746.7 481 720 479.3C693.3 477.7 666.7 465.3 640 459.2C613.3 453 586.7 453 560 462.8C533.3 472.7 506.7 492.3 480 496.8C453.3 501.3 426.7 490.7 400 487C373.3 483.3 346.7 486.7 320 489.3C293.3 492 266.7 494 240 496.8C213.3 499.7 186.7 503.3 160 508.7C133.3 514 106.7 521 80 513.7C53.3 506.3 26.7 484.7 13.3 473.8L0 463Z" fill="#f9f8f4"></path></svg>