<svg id="visual" viewBox="0 0 1800 150" width="1800" height="150" xmlns="http://www.w3.org/2000/svg" xmlns:xlink="http://www.w3.org/1999/xlink" version="1.1"><path d="M0 7L18.8 7C37.7 7 75.3 7 112.8 7.3C150.3 7.7 187.7 8.3 225.2 8.7C262.7 9 300.3 9 337.8 9.7C375.3 10.3 412.7 11.7 450.2 12.7C487.7 13.7 525.3 14.3 562.8 14.2C600.3 14 637.7 13 675.2 12.5C712.7 12 750.3 12 787.8 11.2C825.3 10.3 862.7 8.7 900.2 8.7C937.7 8.7 975.3 10.3 1012.8 11.7C1050.3 13 1087.7 14 1125.2 14C1162.7 14 1200.3 13 1237.8 12C1275.3 11 1312.7 10 1350.2 9C1387.7 8 1425.3 7 1462.8 6.7C1500.3 6.3 1537.7 6.7 1575.2 6.7C1612.7 6.7 1650.3 6.3 1687.8 6.7C1725.3 7 1762.7 8 1781.3 8.5L1800 9L1800 0L1781.3 0C1762.7 0 1725.3 0 1687.8 0C1650.3 0 1612.7 0 1575.2 0C1537.7 0 1500.3 0 1462.8 0C1425.3 0 1387.7 0 1350.2 0C1312.7 0 1275.3 0 1237.8 0C1200.3 0 1162.7 0 1125.2 0C1087.7 0 1050.3 0 1012.8 0C975.3 0 937.7 0 900.2 0C862.7 0 825.3 0 787.8 0C750.3 0 712.7 0 675.2 0C637.7 0 600.3 0 562.8 0C525.3 0 487.7 0 450.2 0C412.7 0 375.3 0 337.8 0C300.3 0 262.7 0 225.2 0C187.7 0 150.3 0 112.8 0C75.3 0 37.7 0 18.8 0L0 0Z" fill="#f9f8f4"></path><path d="M0 27L18.8 26.5C37.7 26 75.3 25 112.8 24.7C150.3 24.3 187.7 24.7 225.2 23.8C262.7 23 300.3 21 337.8 20.8C375.3 20.7 412.7 22.3 450.2 23.2C487.7 24 525.3 24 562.8 24.5C600.3 25 637.7 26 675.2 25.2C712.7 24.3 750.3 21.7 787.8 19.8C825.3 18 862.7 17 900.2 17C937.7 17 975.3 18 1012.8 20.5C1050.3 23 1087.7 27 1125.2 28.8C1162.7 30.7 1200.3 30.3 1237.8 27.8C1275.3 25.3 1312.7 20.7 1350.2 19.7C1387.7 18.7 1425.3 21.3 1462.8 23.2C1500.3 25 1537.7 26 1575.2 24.7C1612.7 23.3 1650.3 19.7 1687.8 17.7C1725.3 15.7 1762.7 15.3 1781.3 15.2L1800 15L1800 7L1781.3 6.5C1762.7 6 1725.3 5 1687.8 4.7C1650.3 4.3 1612.7 4.7 1575.2 4.7C1537.7 4.7 1500.3 4.3 1462.8 4.7C1425.3 5 1387.7 6 1350.2 7C1312.7 8 1275.3 9 1237.8 10C1200.3 11 1162.7 12 1125.2 12C1087.7 12 1050.3 11 1012.8 9.7C975.3 8.3 937.7 6.7 900.2 6.7C862.7 6.7 825.3 8.3 787.8 9.2C750.3 10 712.7 10 675.2 10.5C637.7 11 600.3 12 562.8 12.2C525.3 12.3 487.7 11.7 450.2 10.7C412.7 9.7 375.3 8.3 337.8 7.7C300.3 7 262.7 7 225.2 6.7C187.7 6.3 150.3 5.7 112.8 5.3C75.3 5 37.7 5 18.8 5L0 5Z" fill="#f2dfc9"></path><path d="M0 62L18.8 63.3C37.7 64.7 75.3 67.3 112.8 65C150.3 62.7 187.7 55.3 225.2 53.8C262.7 52.3 300.3 56.7 337.8 56.7C375.3 56.7 412.7 52.3 450.2 49.3C487.7 46.3 525.3 44.7 562.8 50.7C600.3 56.7 637.7 70.3 675.2 69.7C712.7 69 750.3 54 787.8 46.5C825.3 39 862.7 39 900.2 41C937.7 43 975.3 47 1012.8 52.2C1050.3 57.3 1087.7 63.7 1125.2 67.8C1162.7 72 1200.3 74 1237.8 69C1275.3 64 1312.7 52 1350.2 49.5C1387.7 47 1425.3 54 1462.8 57.7C1500.3 61.3 1537.7 61.7 1575.2 59C1612.7 56.3 1650.3 50.7 1687.8 48.3C1725.3 46 1762.7 47 1781.3 47.5L1800 48L1800 13L1781.3 13.2C1762.7 13.3 1725.3 13.7 1687.8 15.7C1650.3 17.7 1612.7 21.3 1575.2 22.7C1537.7 24 1500.3 23 1462.8 21.2C1425.3 19.3 1387.7 16.7 1350.2 17.7C1312.7 18.7 1275.3 23.3 1237.8 25.8C1200.3 28.3 1162.7 28.7 1125.2 26.8C1087.7 25 1050.3 21 1012.8 18.5C975.3 16 937.7 15 900.2 15C862.7 15 825.3 16 787.8 17.8C750.3 19.7 712.7 22.3 675.2 23.2C637.7 24 600.3 23 562.8 22.5C525.3 22 487.7 22 450.2 21.2C412.7 20.3 375.3 18.7 337.8 18.8C300.3 19 262.7 21 225.2 21.8C187.7 22.7 150.3 22.3 112.8 22.7C75.3 23 37.7 24 18.8 24.5L0 25Z" fill="#f4c0a7"></path><path d="M0 72L18.8 72.7C37.7 73.3 75.3 74.7 112.8 72.2C150.3 69.7 187.7 63.3 225.2 62.8C262.7 62.3 300.3 67.7 337.8 67.2C375.3 66.7 412.7 60.3 450.2 57.3C487.7 54.3 525.3 54.7 562.8 60.7C600.3 66.7 637.7 78.3 675.2 77.3C712.7 76.3 750.3 62.7 787.8 55.8C825.3 49 862.7 49 900.2 50.8C937.7 52.7 975.3 56.3 1012.8 60.8C1050.3 65.3 1087.7 70.7 1125.2 74.7C1162.7 78.7 1200.3 81.3 1237.8 77.3C1275.3 73.3 1312.7 62.7 1350.2 59.8C1387.7 57 1425.3 62 1462.8 65.8C1500.3 69.7 1537.7 72.3 1575.2 70.7C1612.7 69 1650.3 63 1687.8 59.7C1725.3 56.3 1762.7 55.7 1781.3 55.3L1800 55L1800 46L1781.3 45.5C1762.7 45 1725.3 44 1687.8 46.3C1650.3 48.7 1612.7 54.3 1575.2 57C1537.7 59.7 1500.3 59.3 1462.8 55.7C1425.3 52 1387.7 45 1350.2 47.5C1312.7 50 1275.3 62 1237.8 67C1200.3 72 1162.7 70 1125.2 65.8C1087.7 61.7 1050.3 55.3 1012.8 50.2C975.3 45 937.7 41 900.2 39C862.7 37 825.3 37 787.8 44.5C750.3 52 712.7 67 675.2 67.7C637.7 68.3 600.3 54.7 562.8 48.7C525.3 42.7 487.7 44.3 450.2 47.3C412.7 50.3 375.3 54.7 337.8 54.7C300.3 54.7 262.7 50.3 225.2 51.8C187.7 53.3 150.3 60.7 112.8 63C75.3 65.3 37.7 62.7 18.8 61.3L0 60Z" fill="#f69e98"></path><path d="M0 86L18.8 87.3C37.7 88.7 75.3 91.3 112.8 91.3C150.3 91.3 187.7 88.7 225.2 87.7C262.7 86.7 300.3 87.3 337.8 86.5C375.3 85.7 412.7 83.3 450.2 79.7C487.7 76 525.3 71 562.8 74.2C600.3 77.3 637.7 88.7 675.2 88.8C712.7 89 750.3 78 787.8 73.8C825.3 69.7 862.7 72.3 900.2 73.8C937.7 75.3 975.3 75.7 1012.8 79.7C1050.3 83.7 1087.7 91.3 1125.2 95.2C1162.7 99 1200.3 99 1237.8 94.2C1275.3 89.3 1312.7 79.7 1350.2 77.8C1387.7 76 1425.3 82 1462.8 87C1500.3 92 1537.7 96 1575.2 95.7C1612.7 95.3 1650.3 90.7 1687.8 87C1725.3 83.3 1762.7 80.7 1781.3 79.3L1800 78L1800 53L1781.3 53.3C1762.7 53.7 1725.3 54.3 1687.8 57.7C1650.3 61 1612.7 67 1575.2 68.7C1537.7 70.3 1500.3 67.7 1462.8 63.8C1425.3 60 1387.7 55 1350.2 57.8C1312.7 60.7 1275.3 71.3 1237.8 75.3C1200.3 79.3 1162.7 76.7 1125.2 72.7C1087.7 68.7 1050.3 63.3 1012.8 58.8C975.3 54.3 937.7 50.7 900.2 48.8C862.7 47 825.3 47 787.8 53.8C750.3 60.7 712.7 74.3 675.2 75.3C637.7 76.3 600.3 64.7 562.8 58.7C525.3 52.7 487.7 52.3 450.2 55.3C412.7 58.3 375.3 64.7 337.8 65.2C300.3 65.7 262.7 60.3 225.2 60.8C187.7 61.3 150.3 67.7 112.8 70.2C75.3 72.7 37.7 71.3 18.8 70.7L0 70Z" fill="#f69797"></path><path d="M0 99L18.8 99.8C37.7 100.7 75.3 102.3 112.8 101.8C150.3 101.3 187.7 98.7 225.2 98C262.7 97.3 300.3 98.7 337.8 97.8C375.3 97 412.7 94 450.2 91.7C487.7 89.3 525.3 87.7 562.8 90.7C600.3 93.7 637.7 101.3 675.2 100.2C712.7 99 750.3 89 787.8 86.5C825.3 84 862.7 89 900.2 91.3C937.7 93.7 975.3 93.3 1012.8 95C1050.3 96.7 1087.7 100.3 1125.2 103.8C1162.7 107.3 1200.3 110.7 1237.8 107.7C1275.3 104.7 1312.7 95.3 1350.2 94C1387.7 92.7 1425.3 99.3 1462.8 103.2C1500.3 107 1537.7 108 1575.2 106.3C1612.7 104.7 1650.3 100.3 1687.8 97.8C1725.3 95.3 1762.7 94.7 1781.3 94.3L1800 94L1800 76L1781.3 77.3C1762.7 78.7 1725.3 81.3 1687.8 85C1650.3 88.7 1612.7 93.3 1575.2 93.7C1537.7 94 1500.3 90 1462.8 85C1425.3 80 1387.7 74 1350.2 75.8C1312.7 77.7 1275.3 87.3 1237.8 92.2C1200.3 97 1162.7 97 1125.2 93.2C1087.7 89.3 1050.3 81.7 1012.8 77.7C975.3 73.7 937.7 73.3 900.2 71.8C862.7 70.3 825.3 67.7 787.8 71.8C750.3 76 712.7 87 675.2 86.8C637.7 86.7 600.3 75.3 562.8 72.2C525.3 69 487.7 74 450.2 77.7C412.7 81.3 375.3 83.7 337.8 84.5C300.3 85.3 262.7 84.7 225.2 85.7C187.7 86.7 150.3 89.3 112.8 89.3C75.3 89.3 37.7 86.7 18.8 85.3L0 84Z" fill="#f69e98"></path><path d="M0 108L18.8 108.7C37.7 109.3 75.3 110.7 112.8 110.8C150.3 111 187.7 110 225.2 110C262.7 110 300.3 111 337.8 110C375.3 109 412.7 106 450.2 103.3C487.7 100.7 525.3 98.3 562.8 101.7C600.3 105 637.7 114 675.2 112.3C712.7 110.7 750.3 98.3 787.8 94.5C825.3 90.7 862.7 95.3 900.2 98.3C937.7 101.3 975.3 102.7 1012.8 106C1050.3 109.3 1087.7 114.7 1125.2 117.8C1162.7 121 1200.3 122 1237.8 117.7C1275.3 113.3 1312.7 103.7 1350.2 102.3C1387.7 101 1425.3 108 1462.8 111.8C1500.3 115.7 1537.7 116.3 1575.2 115.7C1612.7 115 1650.3 113 1687.8 111.5C1725.3 110 1762.7 109 1781.3 108.5L1800 108L1800 92L1781.3 92.3C1762.7 92.7 1725.3 93.3 1687.8 95.8C1650.3 98.3 1612.7 102.7 1575.2 104.3C1537.7 106 1500.3 105 1462.8 101.2C1425.3 97.3 1387.7 90.7 1350.2 92C1312.7 93.3 1275.3 102.7 1237.8 105.7C1200.3 108.7 1162.7 105.3 1125.2 101.8C1087.7 98.3 1050.3 94.7 1012.8 93C975.3 91.3 937.7 91.7 900.2 89.3C862.7 87 825.3 82 787.8 84.5C750.3 87 712.7 97 675.2 98.2C637.7 99.3 600.3 91.7 562.8 88.7C525.3 85.7 487.7 87.3 450.2 89.7C412.7 92 375.3 95 337.8 95.8C300.3 96.7 262.7 95.3 225.2 96C187.7 96.7 150.3 99.3 112.8 99.8C75.3 100.3 37.7 98.7 18.8 97.8L0 97Z" fill="#f4c0a7"></path><path d="M0 144L18.8 143.5C37.7 143 75.3 142 112.8 141.7C150.3 141.3 187.7 141.7 225.2 141.3C262.7 141 300.3 140 337.8 140C375.3 140 412.7 141 450.2 142C487.7 143 525.3 144 562.8 144.5C600.3 145 637.7 145 675.2 144.3C712.7 143.7 750.3 142.3 787.8 141.7C825.3 141 862.7 141 900.2 141.7C937.7 142.3 975.3 143.7 1012.8 143.2C1050.3 142.7 1087.7 140.3 1125.2 139.8C1162.7 139.3 1200.3 140.7 1237.8 140.8C1275.3 141 1312.7 140 1350.2 140.5C1387.7 141 1425.3 143 1462.8 144.3C1500.3 145.7 1537.7 146.3 1575.2 146.2C1612.7 146 1650.3 145 1687.8 143.5C1725.3 142 1762.7 140 1781.3 139L1800 138L1800 106L1781.3 106.5C1762.7 107 1725.3 108 1687.8 109.5C1650.3 111 1612.7 113 1575.2 113.7C1537.7 114.3 1500.3 113.7 1462.8 109.8C1425.3 106 1387.7 99 1350.2 100.3C1312.7 101.7 1275.3 111.3 1237.8 115.7C1200.3 120 1162.7 119 1125.2 115.8C1087.7 112.7 1050.3 107.3 1012.8 104C975.3 100.7 937.7 99.3 900.2 96.3C862.7 93.3 825.3 88.7 787.8 92.5C750.3 96.3 712.7 108.7 675.2 110.3C637.7 112 600.3 103 562.8 99.7C525.3 96.3 487.7 98.7 450.2 101.3C412.7 104 375.3 107 337.8 108C300.3 109 262.7 108 225.2 108C187.7 108 150.3 109 112.8 108.8C75.3 108.7 37.7 107.3 18.8 106.7L0 106Z" fill="#f2dfc9"></path><path d="M0 151L18.8 151C37.7 151 75.3 151 112.8 151C150.3 151 187.7 151 225.2 151C262.7 151 300.3 151 337.8 151C375.3 151 412.7 151 450.2 151C487.7 151 525.3 151 562.8 151C600.3 151 637.7 151 675.2 151C712.7 151 750.3 151 787.8 151C825.3 151 862.7 151 900.2 151C937.7 151 975.3 151 1012.8 151C1050.3 151 1087.7 151 1125.2 151C1162.7 151 1200.3 151 1237.8 151C1275.3 151 1312.7 151 1350.2 151C1387.7 151 1425.3 151 1462.8 151C1500.3 151 1537.7 151 1575.2 151C1612.7 151 1650.3 151 1687.8 151C1725.3 151 1762.7 151 1781.3 151L1800 151L1800 136L1781.3 137C1762.7 138 1725.3 140 1687.8 141.5C1650.3 143 1612.7 144 1575.2 144.2C1537.7 144.3 1500.3 143.7 1462.8 142.3C1425.3 141 1387.7 139 1350.2 138.5C1312.7 138 1275.3 139 1237.8 138.8C1200.3 138.7 1162.7 137.3 1125.2 137.8C1087.7 138.3 1050.3 140.7 1012.8 141.2C975.3 141.7 937.7 140.3 900.2 139.7C862.7 139 825.3 139 787.8 139.7C750.3 140.3 712.7 141.7 675.2 142.3C637.7 143 600.3 143 562.8 142.5C525.3 142 487.7 141 450.2 140C412.7 139 375.3 138 337.8 138C300.3 138 262.7 139 225.2 139.3C187.7 139.7 150.3 139.3 112.8 139.7C75.3 140 37.7 141 18.8 141.5L0 142Z" fill="#f9f8f4"></path></svg>